<?xml version="1.0" standalone="no"?>
<!DOCTYPE svg PUBLIC "-//W3C//DTD SVG 20010904//EN"
 "http://www.w3.org/TR/2001/REC-SVG-20010904/DTD/svg10.dtd">
<svg version="1.0" xmlns="http://www.w3.org/2000/svg"
 width="1024.000000pt" height="1024.000000pt" viewBox="0 0 1024.000000 1024.000000"
 preserveAspectRatio="xMidYMid meet">

<g transform="translate(0.000000,1024.000000) scale(0.100000,-0.100000)"
fill="#000000" stroke="none">
<path d="M3915 10203 c7 -43 43 -108 84 -156 29 -33 31 -43 47 -252 2 -33 9
-115 14 -183 6 -68 10 -179 10 -248 l0 -125 -63 -29 c-43 -19 -94 -57 -158
-115 -151 -139 -94 -104 -649 -405 -490 -267 -592 -326 -700 -406 -125 -93
-188 -151 -261 -240 -73 -89 -97 -143 -143 -312 -101 -372 -189 -876 -306
-1742 -29 -218 -76 -562 -126 -920 -13 -96 -33 -254 -44 -350 -11 -96 -27
-224 -35 -285 -10 -83 -15 -298 -20 -870 -3 -418 -10 -821 -15 -895 -5 -74 -9
-194 -10 -265 0 -133 -21 -425 -41 -570 -34 -255 -15 -429 54 -503 22 -24 22
-26 22 -387 l0 -363 24 -26 c13 -14 32 -28 41 -31 14 -5 15 -16 2 -133 -7 -70
-24 -182 -37 -249 -14 -67 -25 -127 -25 -133 0 -5 15 -10 34 -10 36 0 34 -5
52 115 3 17 11 68 19 115 8 47 20 139 26 205 6 66 15 127 20 136 27 52 424 75
519 30 44 -21 71 -61 98 -147 42 -137 53 -268 26 -339 -8 -22 -16 -57 -17 -78
l-2 -37 51 0 c62 0 62 1 71 140 7 115 -12 223 -57 336 l-31 77 25 36 c22 33
25 50 30 176 7 161 17 278 22 273 2 -2 8 -67 13 -143 6 -77 17 -210 26 -295 8
-85 17 -184 20 -220 3 -36 8 -72 10 -80 2 -8 9 -69 15 -135 16 -176 10 -165
91 -165 l68 0 -5 33 c-3 17 -9 57 -14 87 -28 163 -80 523 -95 650 -9 80 -22
188 -30 240 -8 52 -21 174 -30 270 -9 96 -17 187 -19 202 -1 16 -2 28 -1 28 1
0 48 -18 106 -39 113 -43 363 -109 514 -137 11 -2 58 -12 105 -22 47 -11 137
-27 200 -37 63 -9 129 -21 145 -26 45 -13 421 -59 487 -59 66 0 63 4 73 -115
34 -418 89 -724 182 -997 23 -67 30 -78 49 -78 23 0 23 0 8 47 -99 326 -183
800 -184 1046 l0 87 188 -2 187 -3 7 -205 c11 -340 20 -490 28 -490 15 0 28
93 25 175 -12 325 -15 485 -10 506 l6 26 272 18 c150 10 317 21 372 25 55 4
147 19 205 33 58 14 184 45 280 68 200 47 353 102 547 196 74 36 139 61 143
56 12 -13 114 -203 193 -361 67 -136 70 -145 59 -175 -7 -18 -15 -60 -19 -95
-3 -34 -8 -62 -11 -62 -3 0 -13 7 -22 15 -16 14 -17 9 -23 -69 -5 -58 -15
-101 -32 -137 -14 -30 -28 -69 -31 -87 -6 -33 -31 -63 -112 -135 -48 -43 -52
-60 -17 -83 21 -14 42 -15 141 -9 121 8 136 2 74 -29 -29 -14 -120 -35 -150
-34 -25 1 -224 -83 -245 -103 -19 -19 -19 -19 32 -19 28 0 95 9 148 20 120 25
175 26 175 4 0 -28 -57 -73 -235 -184 l-57 -35 119 -3 c116 -3 120 -2 231 38
62 22 115 40 117 40 17 0 -1 -24 -37 -50 l-41 -30 183 0 182 0 -5 23 c-3 12
-9 45 -12 72 -4 28 -17 82 -30 120 -13 39 -31 99 -40 135 -15 62 -15 68 5 124
32 93 28 128 -21 181 -38 41 -41 49 -37 88 6 46 84 238 148 359 35 67 45 78
67 78 55 0 99 74 307 513 81 171 95 190 145 205 22 7 52 27 70 48 63 71 152
275 202 464 40 148 102 326 155 441 29 64 87 217 129 340 75 219 148 407 226
579 36 80 81 219 92 285 3 17 15 57 28 90 23 63 33 211 20 291 -4 22 -3 60 1
86 5 28 4 94 -2 160 -6 62 -15 193 -20 290 -5 98 -11 181 -13 185 -3 5 -8 62
-12 128 -3 66 -8 122 -10 125 -2 3 -6 48 -10 100 -10 156 -24 328 -36 445 -6
61 -12 126 -14 145 -13 133 -65 521 -79 589 -8 36 -19 93 -25 126 -9 50 -25
136 -46 240 -3 11 -14 74 -25 140 -19 117 -55 294 -105 520 -60 270 -120 455
-203 620 -46 92 -114 169 -252 286 -97 82 -322 206 -475 262 -38 14 -126 47
-195 72 -69 26 -161 57 -205 71 -100 31 -199 69 -390 149 -154 65 -191 85
-367 193 l-102 63 -91 -2 -90 -3 -73 69 c-41 38 -81 83 -89 99 -32 61 -46 151
-58 375 -5 88 -3 99 20 148 15 29 29 68 32 88 l6 35 -529 -1 c-442 0 -523 -3
-494 -13 19 -7 98 -16 175 -19 77 -4 168 -9 201 -13 l61 -7 8 -101 c19 -239 5
-289 -92 -327 -51 -20 -74 -22 -191 -21 -220 3 -281 25 -473 174 -150 116
-225 193 -260 264 -27 58 -33 64 -61 64 -30 0 -30 -1 -23 -37z m385 -405 c36
-25 92 -60 125 -78 33 -18 80 -47 105 -64 25 -17 112 -65 195 -106 l150 -75
52 -79 c58 -88 73 -102 102 -86 28 15 162 -29 238 -79 34 -22 101 -79 150
-128 68 -68 98 -92 133 -102 l45 -13 -50 -46 c-144 -131 -371 -233 -605 -272
-158 -26 -382 -21 -525 13 -110 25 -216 80 -292 150 -45 42 -103 145 -103 184
0 13 20 53 45 89 69 101 69 103 55 415 -7 151 -15 311 -19 355 l-6 81 70 -57
c39 -31 99 -77 135 -102z m1650 -582 c-4 -4 -16 -4 -26 2 -16 9 -14 10 8 9 15
-1 23 -6 18 -11z m93 -16 c15 -12 29 -21 32 -20 3 0 13 -4 23 -9 9 -6 12 -11
6 -11 -6 0 -14 3 -18 8 -4 4 -11 7 -14 7 -22 2 -80 30 -76 37 8 13 19 10 47
-12z m-23 -37 c85 -27 99 -34 93 -49 -4 -11 -9 -12 -18 -4 -16 14 -161 60
-186 60 -11 0 -19 5 -19 11 0 13 61 4 130 -18z m262 -9 c74 -38 286 -117 503
-189 315 -104 406 -140 604 -238 47 -23 96 -51 110 -63 14 -12 51 -37 81 -57
53 -34 134 -111 179 -171 20 -27 20 -30 5 -48 -10 -10 -21 -18 -26 -18 -24 0
-93 -58 -155 -129 -56 -65 -119 -151 -110 -151 1 0 63 60 137 133 145 144 184
168 220 139 24 -20 115 -274 159 -446 16 -61 52 -226 81 -366 65 -325 99 -467
114 -483 7 -6 15 -19 18 -29 6 -14 -10 -19 -105 -37 -62 -11 -132 -22 -157
-26 -56 -6 -113 -17 -121 -21 -3 -2 2 -56 12 -121 10 -65 18 -121 19 -124 0
-4 30 0 68 8 90 19 258 43 305 43 25 0 37 -5 37 -14 0 -13 -65 -30 -160 -41
-25 -3 -89 -12 -142 -21 -92 -16 -98 -18 -98 -41 0 -21 4 -24 28 -19 15 3 50
8 77 11 84 9 152 19 234 35 71 13 81 13 81 -5 0 -8 -3 -15 -6 -15 -3 0 -82
-14 -177 -31 -95 -18 -182 -32 -195 -32 -17 -1 -22 -6 -20 -21 3 -18 10 -21
53 -20 53 1 124 9 240 25 39 5 82 12 98 14 17 2 27 -1 27 -9 0 -13 -57 -28
-175 -45 -38 -5 -107 -15 -152 -22 l-83 -11 0 -39 c0 -36 2 -39 23 -34 20 4
360 55 371 55 2 0 7 -39 11 -87 4 -49 15 -135 26 -193 10 -58 22 -159 25 -226
l7 -120 -32 -36 c-29 -34 -31 -40 -31 -115 0 -89 14 -210 37 -323 8 -41 16
-84 18 -95 1 -11 12 -63 24 -115 32 -144 54 -346 41 -385 -21 -65 -65 -89
-194 -110 -96 -16 -146 -31 -146 -46 0 -19 120 -103 212 -149 55 -28 113 -59
129 -71 34 -24 57 -61 41 -67 -7 -2 -6 -14 4 -37 18 -44 19 -39 -16 -79 -24
-27 -51 -42 -123 -65 -130 -44 -208 -93 -185 -117 4 -3 43 -15 88 -25 148 -35
167 -59 110 -137 -34 -47 -57 -61 -157 -91 -40 -12 -75 -26 -79 -32 -12 -20
32 -64 84 -82 l50 -19 -18 -54 c-11 -30 -36 -93 -58 -141 -39 -88 -57 -140
-127 -368 -50 -160 -85 -226 -163 -307 -49 -51 -84 -77 -141 -104 -58 -27 -91
-51 -138 -101 -35 -37 -63 -75 -63 -85 0 -25 86 -135 119 -153 22 -11 67 -20
124 -24 13 -1 -3 -42 -35 -89 -38 -56 -67 -121 -68 -152 0 -14 -5 -32 -10 -40
-9 -13 -12 -12 -22 5 -71 122 -375 310 -643 398 -99 33 -207 50 -257 42 -43
-8 -47 0 -21 48 12 23 17 56 18 114 0 74 3 85 30 124 17 23 57 63 90 89 59 46
60 48 57 91 -17 243 -7 296 70 369 62 59 70 83 48 136 -14 33 -17 54 -11 103
7 56 12 67 49 103 23 22 42 44 42 48 0 5 7 16 16 25 15 15 15 20 -1 71 -10 33
-15 68 -11 88 7 35 59 95 116 135 l35 23 -77 -6 -77 -7 3 53 c1 29 10 67 19
83 22 43 91 112 151 150 90 58 108 80 110 134 1 53 1 53 -77 22 -35 -14 -110
-14 -159 -1 -44 13 -80 65 -83 119 -2 34 7 62 70 226 36 92 39 201 8 295 -33
103 -41 156 -47 300 -3 82 -14 175 -27 235 -17 80 -22 135 -22 270 -1 175 18
315 73 535 27 107 43 199 42 240 -1 26 -10 43 -36 67 l-35 32 33 148 c19 81
39 182 45 223 44 273 136 578 230 762 22 43 36 80 31 83 -5 3 -11 -4 -15 -15
-4 -11 -10 -18 -14 -15 -9 5 -90 -186 -150 -354 -21 -60 -58 -184 -81 -277
-23 -93 -54 -209 -70 -259 -17 -55 -43 -187 -65 -335 -36 -243 -78 -470 -115
-626 -35 -145 -60 -312 -51 -336 5 -13 11 -48 15 -78 5 -56 14 -103 42 -245
18 -95 26 -306 14 -390 -4 -33 -11 -100 -15 -150 -8 -111 -33 -349 -41 -390
-3 -16 -14 -59 -25 -94 -27 -91 -25 -102 21 -131 29 -18 43 -35 50 -60 12 -50
30 -208 30 -273 0 -42 4 -59 18 -67 14 -10 14 -11 1 -6 -14 4 -18 -5 -24 -41
-4 -25 -9 -51 -12 -59 -3 -9 2 -11 16 -7 12 3 21 2 21 -2 0 -27 -90 -295 -155
-460 -28 -72 -51 -178 -65 -306 -9 -83 -17 -107 -65 -204 -48 -96 -57 -124
-71 -220 -9 -60 -21 -144 -28 -185 l-12 -75 -124 -32 c-69 -18 -186 -43 -260
-57 -171 -32 -177 -33 -214 -45 -43 -14 -68 -18 -203 -31 -65 -7 -165 -21
-223 -31 -138 -25 -236 -37 -340 -44 -47 -2 -128 -7 -180 -10 -52 -3 -128 -10
-168 -15 -95 -13 -545 -13 -732 0 -202 14 -266 21 -445 50 -66 10 -133 21
-150 24 -16 2 -50 9 -75 14 -25 6 -92 18 -150 27 -197 31 -710 165 -766 200
-29 19 -33 58 -17 162 10 63 22 102 43 136 17 27 30 52 30 56 0 4 9 25 19 47
37 76 36 87 -8 168 -47 86 -48 99 -27 281 21 178 45 302 66 349 10 22 28 78
39 124 11 46 29 95 39 110 20 29 87 195 122 304 35 108 75 172 153 243 40 35
77 65 82 65 6 0 19 -31 31 -70 21 -67 21 -70 3 -109 -17 -38 -103 -131 -121
-131 -5 0 -6 -5 -3 -10 19 -30 135 35 171 96 24 41 26 52 21 109 -6 62 -55
223 -116 380 -48 122 -116 357 -139 480 -12 61 -40 209 -62 330 -22 121 -54
290 -70 375 -16 85 -39 227 -50 315 -12 88 -30 205 -40 260 -41 216 -83 445
-100 555 -30 188 -46 253 -91 362 -23 57 -60 148 -81 202 -35 89 -133 279
-171 331 -14 18 -11 24 37 78 28 33 85 87 126 122 173 143 328 233 935 543 30
15 227 129 296 170 l35 22 33 -84 c39 -101 81 -165 152 -232 120 -112 363
-219 559 -244 163 -21 437 -9 595 25 275 61 613 231 798 403 51 48 57 66 29
81 -11 6 -32 23 -49 38 -17 15 -49 39 -73 53 -23 14 -54 35 -68 47 l-27 22 32
33 c33 32 33 32 62 15 33 -19 41 -21 41 -8 0 5 -13 14 -30 21 -29 12 -32 37
-3 26 8 -3 11 -1 8 4 -13 22 7 31 32 15 41 -27 130 -75 140 -75 4 0 -27 23
-69 51 -67 43 -94 69 -72 69 12 0 129 -65 133 -74 2 -4 7 -2 12 5 7 11 9 11 9
-3 0 -11 6 -15 19 -11 10 2 37 -5 59 -16 48 -25 52 -25 52 -8 0 6 -54 32 -120
56 -104 38 -152 61 -123 61 33 -1 178 -45 225 -69 l57 -29 20 44 c12 24 25 44
29 44 15 0 144 -47 274 -99 70 -28 255 -93 410 -145 450 -150 596 -224 757
-384 l94 -93 -49 -33 c-52 -35 -83 -66 -66 -66 5 0 15 7 22 15 17 21 97 66
120 68 11 1 20 4 20 8 0 15 -81 108 -131 151 -63 53 -209 155 -242 167 -12 5
-52 23 -89 40 -113 53 -285 116 -463 171 -392 121 -721 260 -615 260 12 0 44
-12 72 -26z m-347 -9 c49 -9 155 -48 155 -57 0 -12 -31 -7 -100 19 -17 7 -16
7 -93 22 -31 7 -55 16 -53 20 5 7 39 6 91 -4z m-1989 -49 c-8 -34 10 -120 39
-183 26 -58 107 -145 173 -187 l43 -27 -49 -62 c-47 -60 -77 -107 -69 -107 2
0 31 36 63 80 32 44 63 80 67 80 4 0 25 -9 45 -19 20 -10 56 -24 80 -30 23 -6
60 -16 81 -21 39 -10 40 -11 26 -38 -35 -66 -81 -200 -72 -209 3 -2 10 10 15
29 11 37 46 127 69 176 15 31 53 46 53 20 0 -13 -45 -133 -60 -160 -6 -10 -10
-33 -10 -53 0 -23 -4 -33 -12 -30 -11 4 -54 10 -100 14 -15 2 -8 23 42 124 57
117 41 103 -27 -23 -26 -47 -47 -86 -47 -87 -5 -7 -86 22 -86 31 0 6 11 29 25
51 26 43 31 60 15 50 -6 -4 -22 -29 -35 -56 -28 -54 -38 -58 -75 -29 -23 18
-24 21 -11 42 8 13 28 48 44 78 16 30 38 64 48 76 10 11 19 26 19 34 0 19 -42
-39 -96 -133 -38 -65 -48 -76 -60 -66 -8 6 -14 19 -14 27 0 12 -3 13 -12 4
-33 -33 -37 -3 -5 41 23 32 50 97 43 104 -2 3 -11 -15 -21 -39 -9 -24 -27 -56
-41 -73 -22 -27 -26 -28 -37 -14 -7 9 -22 19 -35 23 -12 4 -22 10 -22 14 0 4
25 36 55 72 30 35 55 68 55 73 0 4 -27 -23 -61 -62 -54 -63 -62 -69 -80 -58
-10 6 -22 20 -25 29 -3 10 -10 18 -16 18 -16 0 -1 60 24 95 l21 30 -26 -24
c-15 -14 -27 -33 -27 -43 0 -34 -30 -18 -54 30 -37 73 -58 155 -50 197 5 29
21 49 83 102 42 35 83 75 91 89 19 30 24 31 16 0z m1818 -272 c40 -45 59 -84
40 -84 -4 0 -46 41 -94 91 -61 64 -92 89 -101 84 -8 -5 -4 3 9 17 l23 26 39
-42 c21 -22 59 -64 84 -92z m-2044 87 c0 -27 -72 -70 -435 -261 -170 -89 -344
-180 -385 -203 -287 -153 -471 -279 -557 -382 -58 -70 -91 -100 -99 -93 -9 9
92 124 154 176 82 68 201 150 312 215 106 61 413 228 505 274 67 33 363 199
422 236 21 13 44 32 52 41 18 21 31 20 31 -3z m1889 -23 c11 -11 12 -10 6 2
-5 8 3 4 17 -10 15 -14 47 -45 73 -70 59 -57 70 -77 54 -96 -18 -21 -25 -18
-63 32 -19 25 -37 44 -41 44 -3 -1 -25 13 -47 32 -22 18 -46 36 -52 41 -7 5
-5 12 8 22 24 18 28 18 45 3z m181 -33 c45 -36 59 -62 44 -77 -5 -5 -68 59
-104 106 -23 30 4 17 60 -29z m-250 -4 c0 -4 29 -27 64 -50 61 -39 116 -92
116 -111 0 -5 -5 -12 -11 -16 -7 -4 -38 21 -75 62 -35 38 -64 64 -64 57 0 -6
21 -35 48 -63 61 -68 67 -79 47 -86 -17 -7 -39 16 -122 125 -45 59 -51 76 -30
84 19 8 27 8 27 -2z m-54 -38 c-3 -13 20 -45 74 -103 58 -63 76 -88 68 -97
-20 -25 -38 -12 -110 77 -66 83 -88 103 -88 82 0 -5 24 -35 53 -68 93 -104 99
-114 81 -132 -15 -14 -17 -14 -26 2 -13 23 -72 86 -62 66 4 -8 19 -30 32 -48
14 -18 23 -34 21 -35 -18 -13 -59 -37 -63 -37 -5 0 -135 187 -142 204 -3 7 6
18 20 24 21 9 26 8 31 -6 3 -9 23 -37 45 -62 50 -58 47 -26 -3 35 -20 24 -37
45 -37 47 0 2 22 15 50 29 27 13 50 27 50 32 0 4 3 7 6 7 3 0 3 -8 0 -17z
m-157 -130 c11 -21 38 -65 60 -98 23 -33 41 -65 41 -71 0 -10 -49 -38 -55 -32
-2 2 -19 35 -39 73 -37 70 -40 55 -5 -19 20 -41 25 -76 12 -76 -19 1 -33 20
-71 95 -40 80 -71 128 -72 111 0 -4 23 -53 50 -107 28 -54 50 -103 50 -108 0
-11 -39 -26 -46 -18 -7 7 -95 240 -92 242 2 1 22 7 46 15 39 12 44 12 57 -6
14 -18 15 -18 9 0 -6 16 9 35 28 36 4 0 16 -17 27 -37z m-147 -114 c39 -102
56 -159 43 -147 -4 4 -14 0 -22 -8 -24 -24 -37 -12 -60 57 -29 87 -28 116 2
59 38 -71 29 -38 -12 45 -31 63 -35 77 -23 85 26 16 34 6 72 -91z m-62 -50
c26 -104 27 -115 12 -126 -18 -14 -46 -18 -38 -5 3 5 -4 46 -15 91 -11 45 -17
90 -14 100 5 18 -20 49 -31 38 -3 -3 4 -38 15 -79 11 -40 23 -94 27 -120 6
-45 5 -48 -17 -50 -61 -4 -75 -5 -96 -12 -20 -6 -21 -3 -27 86 -10 158 -14
168 -12 35 1 -126 1 -128 -22 -134 -13 -3 -25 -4 -27 -2 -2 2 -7 64 -11 137
l-7 132 25 0 c14 0 38 3 54 6 l29 5 18 -113 c11 -62 23 -120 28 -128 10 -17 8
2 -17 138 -9 51 -13 96 -10 100 11 10 100 29 104 21 1 -3 16 -57 32 -120z
m-535 59 c-6 -21 -5 -22 8 -5 8 9 24 17 36 17 18 0 21 -4 17 -20 -3 -11 -9
-30 -12 -41 -4 -13 -2 -19 4 -15 6 4 7 -7 2 -32 -4 -20 -6 -50 -5 -67 1 -16 3
-39 4 -49 4 -63 22 83 25 207 0 11 8 17 23 17 23 0 23 -1 23 -131 l0 -130 -69
3 c-39 2 -67 7 -66 13 2 6 6 46 9 90 4 61 3 72 -5 48 -5 -19 -16 -33 -25 -33
-8 0 -12 -5 -9 -10 4 -6 11 -8 16 -4 6 4 9 -12 7 -42 l-3 -47 -58 -1 c-58 -1
-58 -1 -53 24 4 14 8 38 11 53 2 15 17 61 32 102 27 72 29 75 61 75 30 0 33
-2 27 -22z m259 -30 c3 -29 6 -90 6 -135 0 -80 -1 -83 -24 -83 -23 0 -23 2
-30 125 -4 69 -4 130 -1 135 3 6 14 10 24 10 14 0 20 -11 25 -52z m-64 -88 l0
-130 -30 0 -30 0 0 114 c0 63 3 121 6 130 3 9 17 16 30 16 l24 0 0 -130z
m-2488 -595 c74 -131 274 -621 265 -649 -10 -30 -307 639 -307 692 0 8 -3 12
-7 9 -14 -15 64 -250 137 -412 17 -38 60 -127 96 -196 57 -113 66 -137 80
-230 9 -57 38 -237 64 -399 27 -162 54 -335 60 -385 32 -253 206 -1181 261
-1390 28 -104 32 -137 32 -250 1 -151 -9 -196 -60 -262 -60 -78 -101 -156
-122 -229 -10 -38 -45 -134 -76 -214 -97 -247 -160 -450 -179 -571 -34 -219
-34 -368 -1 -482 23 -81 24 -88 9 -129 -8 -23 -22 -53 -30 -66 -23 -36 -54
-169 -54 -235 0 -32 7 -87 16 -121 19 -73 16 -117 -26 -335 -39 -208 -53 -352
-40 -420 5 -30 10 -66 10 -81 l0 -27 -82 19 c-74 17 -108 19 -328 14 -135 -3
-256 -6 -270 -6 -20 0 -22 -2 -10 -10 11 -8 4 -9 -25 -5 -30 5 -36 4 -25 -4
13 -9 12 -11 -5 -11 -11 0 -38 -9 -61 -19 l-41 -19 -17 53 c-20 64 -20 177 0
310 8 55 16 116 18 135 2 19 9 76 15 125 6 50 11 164 10 255 0 91 5 197 10
235 5 39 12 311 16 605 9 875 15 1188 25 1263 6 40 19 149 30 242 20 168 61
479 81 605 12 78 8 51 64 480 51 384 83 614 120 860 14 91 30 197 36 235 18
120 79 456 100 550 89 404 131 548 156 543 9 -2 33 -34 55 -73z m4679 -4038
c-8 -8 -11 -7 -11 4 0 20 13 34 18 19 3 -7 -1 -17 -7 -23z m20 -1417 c174 -58
434 -201 523 -287 51 -50 89 -107 84 -129 -3 -16 -4 -16 -18 -1 -8 8 -28 34
-45 57 -52 72 -360 251 -523 304 -107 34 -238 59 -273 52 -102 -21 -95 -22
-78 5 27 40 57 51 135 45 47 -3 114 -19 195 -46z m-4376 -53 c135 -56 572
-162 830 -202 55 -9 136 -22 180 -30 146 -27 349 -53 455 -59 191 -11 764 -15
835 -6 39 5 126 14 195 20 166 14 192 17 350 40 74 11 208 29 297 40 88 11
181 27 206 35 25 8 94 22 153 30 60 9 175 29 257 45 82 17 163 30 180 30 l32
-1 -22 -18 c-12 -10 -45 -21 -74 -25 -29 -4 -127 -22 -218 -41 -223 -44 -241
-48 -276 -49 -16 -1 -32 -4 -35 -7 -4 -6 -133 -29 -320 -59 -36 -5 -76 -12
-90 -15 -53 -11 -79 -14 -185 -25 -60 -6 -184 -20 -275 -31 -195 -25 -512 -38
-735 -30 -88 3 -194 6 -235 6 -41 0 -77 2 -80 6 -3 3 -48 11 -100 18 -581 77
-1366 258 -1400 321 -14 26 -12 43 3 37 6 -3 39 -17 72 -30z m4179 13 c14 -5
26 -17 26 -27 1 -17 1 -17 14 0 13 16 56 24 69 11 3 -4 -12 -33 -34 -66 -43
-63 -129 -238 -129 -260 1 -7 13 14 29 47 66 143 159 280 177 263 3 -4 -33
-82 -80 -174 -47 -92 -86 -172 -86 -178 0 -14 15 15 109 199 74 145 85 158
121 135 11 -7 12 -13 5 -23 -72 -102 -104 -153 -136 -222 -53 -114 -49 -126 6
-18 45 87 158 243 176 243 14 0 11 -26 -6 -40 -15 -12 -79 -169 -72 -176 2 -3
14 24 27 58 27 75 70 148 88 148 25 0 24 -30 -4 -77 -74 -129 -94 -170 -93
-198 l1 -30 10 30 c6 17 24 53 40 80 35 60 78 152 78 166 0 5 14 2 30 -6 27
-14 30 -20 26 -48 -9 -60 -15 -132 -10 -121 3 7 10 44 17 82 11 67 13 70 31
57 14 -11 16 -18 8 -28 -6 -7 -14 -40 -17 -73 -5 -57 -5 -58 9 -29 9 17 15 47
16 68 0 41 5 45 31 21 14 -12 15 -22 7 -50 -14 -52 -3 -66 12 -16 7 23 17 42
21 42 22 0 16 -26 -22 -98 -29 -57 -43 -98 -49 -143 -7 -62 -58 -196 -101
-265 -10 -17 -19 -38 -19 -45 0 -8 6 -3 13 11 103 191 117 223 117 260 0 22
11 70 25 107 45 119 58 142 81 143 34 0 35 -10 3 -57 -41 -59 -75 -138 -100
-231 -11 -42 -36 -101 -55 -132 -19 -30 -42 -80 -51 -110 -21 -76 -83 -184
-96 -171 -7 7 -2 22 15 48 29 44 60 103 55 103 -2 0 -20 -26 -40 -57 -20 -32
-40 -64 -45 -72 -7 -10 -14 -11 -31 -2 -30 16 -27 30 20 95 48 67 183 341 176
359 -2 6 -18 -19 -35 -58 -18 -38 -39 -81 -47 -95 -9 -14 -31 -58 -50 -98 -32
-67 -98 -162 -114 -162 -4 0 -15 6 -25 13 -18 13 -18 16 7 58 14 24 37 85 52
134 14 50 37 124 50 165 13 41 25 89 28 105 3 17 8 39 12 50 4 13 1 12 -8 -5
-16 -26 -43 -118 -76 -255 -22 -94 -79 -227 -95 -222 -18 6 -19 53 -2 86 9 16
16 38 15 48 0 10 -12 -8 -26 -39 -27 -61 -42 -69 -77 -43 -18 14 -18 15 0 41
46 65 55 82 71 134 8 30 18 62 20 70 4 13 4 13 -6 0 -6 -8 -18 -38 -27 -67 -8
-28 -27 -67 -42 -86 -15 -19 -32 -43 -38 -53 -10 -17 -13 -16 -70 6 -32 13
-63 27 -68 31 -4 4 3 22 17 41 26 35 71 118 63 118 -2 0 -20 -29 -40 -63 -45
-82 -58 -92 -97 -81 l-30 9 26 35 c24 32 75 133 75 149 0 3 -15 -20 -33 -52
-38 -69 -84 -127 -99 -127 -6 0 -8 13 -5 33 5 32 5 32 -6 5 -7 -17 -18 -28
-30 -28 -17 0 -19 5 -13 43 4 23 18 67 32 97 22 50 22 53 3 30 -29 -35 -49
-84 -49 -120 0 -16 -4 -30 -9 -30 -13 0 -36 62 -32 85 2 11 47 110 101 220 54
110 108 224 120 253 24 56 69 102 100 102 10 0 30 -4 44 -10z m-4164 -105 c30
-9 60 -24 66 -32 7 -8 13 -10 15 -4 3 8 15 8 39 1 19 -6 48 -13 64 -16 15 -2
45 -12 65 -20 20 -8 56 -19 81 -25 100 -22 120 -30 121 -47 1 -15 2 -15 6 1 3
11 10 16 20 13 17 -7 176 -38 281 -56 l72 -12 0 -47 c0 -41 -8 -102 -25 -191
-4 -19 -3 -21 4 -9 13 21 43 208 36 229 -4 14 0 16 25 12 l31 -4 -6 -57 -6
-56 18 49 c27 75 42 70 38 -12 -2 -38 -6 -86 -9 -108 -5 -29 -4 -34 3 -18 5
12 13 58 16 103 7 77 9 81 31 81 21 0 24 -5 24 -36 0 -20 -9 -79 -19 -132 -18
-91 -37 -281 -27 -271 3 2 10 53 16 113 13 120 44 304 53 313 4 3 14 3 22 -1
15 -5 16 -19 10 -104 -4 -53 -9 -105 -11 -114 -3 -10 -1 -18 4 -18 5 0 13 52
17 116 l7 116 30 -6 c17 -3 41 -6 55 -6 15 0 27 -8 33 -22 7 -18 9 -19 9 -5 1
11 9 17 26 17 l25 0 0 -177 c0 -97 2 -174 5 -171 3 2 5 82 6 176 l0 172 25 0
24 0 2 -172 c1 -156 2 -164 9 -83 4 50 7 125 8 168 1 76 1 77 26 77 l26 0 -5
-252 -5 -253 14 245 c7 135 13 246 14 248 1 1 11 2 23 2 l21 0 -5 -287 c-3
-159 -2 -238 2 -178 4 61 8 190 9 288 l1 177 31 -2 32 -2 -7 -156 c-3 -85 -9
-244 -13 -352 l-6 -198 -23 0 c-18 0 -26 8 -33 33 l-9 32 -1 -32 c-1 -23 -6
-33 -17 -33 -26 0 -54 20 -55 38 0 13 -3 11 -9 -5 -12 -30 -46 -30 -56 -1 -6
20 -8 20 -19 5 -15 -21 -55 -23 -55 -2 0 8 -4 15 -10 15 -5 0 -10 -4 -10 -10
0 -11 -43 -14 -54 -3 -4 4 -24 6 -44 4 l-37 -2 2 108 1 108 -8 -103 c-4 -57
-10 -105 -12 -108 -14 -13 -38 11 -39 40 -2 29 -2 29 -6 4 -5 -32 -30 -42 -68
-28 -14 5 -31 8 -36 5 -4 -3 -14 3 -21 14 -9 16 -14 17 -22 6 -16 -18 -86 -8
-87 14 0 10 -2 11 -6 4 -6 -17 -39 -17 -46 0 -2 6 -1 53 3 102 7 89 6 120 -4
74 -3 -13 -8 -59 -11 -101 -6 -73 -8 -78 -30 -78 -28 0 -33 28 -25 123 3 31 2
57 -2 57 -4 0 -9 -19 -10 -42 -1 -24 -3 -60 -4 -81 0 -21 -3 -40 -6 -42 -12
-12 -38 9 -38 31 0 13 -4 24 -10 24 -5 0 -10 -12 -10 -26 0 -22 -3 -24 -22
-18 -31 9 -30 6 -30 68 0 31 -4 56 -9 56 -15 0 -20 -39 -10 -75 10 -37 9 -38
-27 -29 -21 6 -22 11 -17 58 16 138 37 272 46 282 6 7 6 42 1 90 -5 44 -9 123
-8 176 1 53 -2 88 -6 77 -4 -10 -7 -101 -6 -202 2 -150 -1 -190 -15 -226 -10
-26 -17 -71 -17 -112 0 -59 -3 -69 -17 -69 -14 0 -15 -2 -5 -9 16 -10 13 -42
-4 -48 -7 -2 -19 3 -27 11 -8 9 -17 12 -19 7 -2 -5 -15 -7 -31 -4 -27 5 -27 7
-21 57 4 28 15 68 25 88 24 47 24 53 0 29 -21 -21 -39 -75 -43 -128 -2 -34 -6
-37 -32 -27 -22 9 -21 63 4 153 12 40 19 79 17 85 -4 12 -43 -128 -53 -190 -5
-34 -9 -41 -25 -37 -11 3 -20 15 -20 27 -1 17 -2 17 -6 4 -8 -32 -25 -19 -21
16 2 19 0 32 -4 29 -5 -2 -6 7 -2 21 4 17 2 26 -6 26 -9 0 -11 -15 -8 -53 4
-52 3 -53 -19 -49 -22 4 -23 9 -23 78 0 41 11 131 25 201 15 69 25 133 23 142
-7 34 -51 -209 -56 -306 -4 -96 -6 -102 -23 -92 -11 5 -20 20 -20 32 l-2 22
-4 -22 c-2 -13 -10 -23 -16 -23 -22 0 -40 18 -34 34 3 8 2 18 -3 21 -6 4 -10
-1 -10 -11 0 -12 -6 -15 -22 -10 -13 3 -26 6 -30 6 -5 0 -8 8 -8 18 0 14 -2
15 -10 2 -8 -13 -13 -13 -37 2 -50 30 -51 60 -3 328 31 174 52 349 44 362 -5
7 -2 9 7 6 8 -3 39 -13 69 -23z m3875 -96 c4 -10 2 -25 -2 -34 -7 -11 -11 -5
-19 24 -9 31 -8 38 2 34 7 -3 16 -13 19 -24z m-72 -32 c25 -39 34 -61 30 -80
-3 -15 -7 -27 -10 -27 -8 0 -42 43 -58 73 -22 39 -11 33 15 -9 12 -19 24 -33
27 -30 3 2 -11 30 -31 60 -40 63 -41 66 -22 66 7 0 29 -24 49 -53z m-78 -5
c11 -18 35 -55 52 -82 19 -29 29 -52 23 -55 -6 -4 -9 -12 -8 -18 7 -29 -16
-14 -37 25 -13 24 -28 42 -34 41 -6 -2 -8 4 -5 12 4 8 1 15 -7 15 -7 0 -9 3
-6 6 3 4 -5 27 -20 51 l-26 45 24 -4 c14 -2 32 -17 44 -36z m-59 -12 c10 -21
20 -37 24 -35 4 2 7 -2 7 -10 0 -8 17 -51 38 -96 35 -74 36 -82 21 -97 -15
-15 -17 -15 -30 3 -7 11 -12 24 -10 30 2 5 -14 41 -36 79 -22 37 -40 72 -40
77 0 5 -5 9 -12 9 -6 0 -9 3 -6 6 4 3 0 21 -8 40 -14 33 -14 34 10 34 19 0 29
-9 42 -40z m-46 -52 c22 -45 40 -89 41 -97 0 -12 2 -13 6 -3 4 10 11 5 24 -15
21 -31 24 -43 10 -43 -5 0 -11 10 -14 22 -4 12 -9 19 -13 16 -3 -4 12 -40 34
-80 35 -63 72 -170 72 -207 0 -21 -31 -11 -40 14 -14 36 -20 31 -13 -10 3 -20
1 -35 -4 -35 -6 0 -12 31 -15 68 -4 57 -16 92 -76 222 -59 132 -92 211 -92
226 0 2 9 4 20 4 16 0 30 -19 60 -82z m-72 0 c14 -35 45 -99 68 -144 54 -104
84 -194 84 -256 0 -26 -2 -48 -4 -48 -2 0 -11 -3 -20 -6 -12 -5 -16 1 -17 22
-2 27 -2 27 -9 -6 -4 -19 -8 -28 -9 -20 -2 10 -5 8 -11 -6 -4 -12 -17 -24 -29
-27 -17 -4 -21 2 -31 49 -6 30 -13 54 -16 54 -2 0 -1 -27 3 -60 3 -33 2 -60
-3 -60 -5 0 -19 -3 -31 -6 -20 -6 -23 -2 -24 22 0 16 -9 61 -19 99 -20 71 -19
65 2 -62 6 -40 10 -75 7 -77 -2 -2 -16 -7 -32 -11 -27 -7 -27 -6 -28 41 -1 27
-5 60 -9 74 -5 14 -6 -8 -3 -52 6 -75 5 -78 -18 -87 -30 -11 -39 -6 -39 24 0
13 -14 77 -31 142 -30 119 -89 388 -89 410 0 6 9 11 20 10 21 -1 37 -42 64
-173 8 -38 24 -105 35 -149 11 -44 23 -102 26 -128 4 -27 9 -46 12 -44 9 10
-18 188 -37 243 -16 44 -60 230 -60 249 0 14 29 3 33 -12 4 -14 5 -12 6 5 2
37 19 25 40 -30 18 -49 20 -51 20 -21 1 17 -3 43 -8 56 -8 21 -6 26 10 30 16
4 25 -6 49 -54 32 -63 35 -65 46 -47 4 6 3 8 -3 5 -13 -8 -26 20 -16 35 3 6 1
8 -4 5 -7 -4 -12 7 -15 28 -2 20 -3 37 -2 38 2 2 17 4 34 5 30 2 33 -1 58 -60z
m1252 23 c0 -5 -22 -47 -50 -92 -27 -45 -58 -106 -69 -135 -20 -53 -68 -150
-84 -169 -4 -5 -14 -19 -22 -30 l-15 -20 8 20 c4 11 17 38 28 60 12 22 33 75
48 118 27 76 93 204 124 240 16 19 32 22 32 8z m-1709 -38 c1 -59 56 -367 61
-338 3 23 6 16 12 -30 4 -33 14 -79 21 -101 8 -23 17 -66 21 -94 7 -51 6 -53
-15 -47 -11 3 -21 1 -21 -4 0 -5 -8 -9 -19 -9 -22 0 -38 66 -46 195 -6 79 -33
263 -41 277 -2 4 -8 43 -12 87 -8 82 -8 84 31 90 4 0 7 -11 8 -26z m69 22 c0
-13 41 -266 51 -317 6 -32 15 -55 19 -53 4 3 13 -22 19 -55 7 -33 14 -60 17
-60 8 0 -5 73 -31 175 -29 109 -55 247 -55 286 0 22 5 29 19 29 24 0 36 -35
51 -143 15 -103 41 -220 51 -227 10 -7 49 -166 49 -201 0 -19 -5 -29 -15 -29
-8 0 -18 -1 -22 -2 -4 -2 -11 11 -14 27 l-7 30 -1 -32 c-1 -35 -16 -45 -24
-15 -4 13 -5 12 -6 -4 -1 -21 -26 -40 -34 -26 -3 4 -10 40 -17 80 -7 39 -17
72 -22 72 -4 0 -8 16 -8 36 0 20 -13 96 -29 168 -35 153 -46 229 -38 251 6 13
47 22 47 10z m-132 -67 c24 -117 34 -189 29 -208 -3 -13 0 -20 10 -20 8 0 11
-4 8 -10 -6 -11 8 -127 31 -251 18 -98 18 -96 -11 -101 -14 -3 -25 -1 -25 6 0
6 -4 5 -9 -3 -5 -7 -13 -11 -19 -7 -5 3 -12 -1 -15 -8 -9 -23 -47 -15 -48 9
-1 17 -2 16 -8 -4 -7 -27 -20 -35 -37 -23 -6 4 -18 54 -27 111 -9 57 -21 108
-28 112 -7 4 -9 20 -6 40 6 35 -31 259 -43 259 -3 0 -4 16 -2 35 2 19 -1 42
-8 50 -15 18 -5 35 21 35 24 0 34 -26 48 -121 10 -67 21 -131 52 -299 6 -30
14 -82 18 -115 5 -38 9 -49 11 -30 2 30 2 29 15 -10 16 -47 20 -26 5 25 -5 19
-23 111 -40 205 -16 93 -35 195 -42 225 -7 30 -12 62 -13 70 0 8 -5 24 -12 35
-11 19 -9 21 25 20 35 0 36 -1 48 -55 7 -30 13 -73 14 -96 0 -22 7 -65 16 -95
10 -30 18 -79 18 -109 2 -65 23 -173 41 -215 l14 -30 0 33 c1 17 -3 32 -8 32
-5 0 -7 8 -5 18 3 9 1 42 -4 72 -7 40 -10 47 -12 25 -2 -30 -2 -30 -10 -5 -4
14 -8 39 -8 55 0 29 0 29 8 5 6 -16 7 -1 3 40 -3 36 -9 67 -13 70 -4 3 -10 28
-13 55 -3 28 -8 66 -11 85 -3 19 -8 50 -11 69 -3 18 -8 37 -10 42 -6 8 22 28
41 29 6 0 16 -24 22 -52z m-234 -5 c2 -10 10 -45 16 -78 6 -33 18 -88 26 -122
8 -34 14 -72 14 -83 0 -12 4 -19 9 -16 4 3 5 -12 1 -34 -5 -30 0 -63 21 -137
30 -101 36 -148 20 -157 -5 -3 -14 8 -21 24 -18 44 -32 48 -25 7 5 -27 3 -36
-11 -41 -9 -3 -18 -5 -18 -4 -1 2 -7 14 -13 28 l-10 25 0 -28 c-1 -64 -33 -42
-36 25 -1 27 -9 52 -21 64 -18 19 -18 18 -11 -26 4 -25 11 -53 16 -62 17 -31
10 -48 -17 -48 -19 0 -25 4 -20 15 3 9 0 15 -9 15 -7 0 -16 10 -18 23 -3 12
-3 3 -1 -19 3 -38 1 -42 -21 -47 -14 -2 -25 0 -25 6 0 5 -8 3 -17 -4 -15 -13
-16 -12 -11 9 4 12 2 22 -4 22 -5 0 -6 6 -2 13 4 6 3 8 -1 4 -5 -4 -9 -20 -10
-35 0 -20 -5 -27 -20 -27 -28 0 -49 65 -54 164 -1 19 -4 22 -12 14 -7 -7 -8
-20 -4 -30 4 -10 8 -31 9 -48 1 -16 6 -47 10 -67 8 -36 7 -38 -18 -38 -32 0
-46 25 -46 87 -1 32 -3 43 -9 33 -5 -8 -6 -35 -1 -60 10 -53 0 -76 -32 -75
-39 2 -48 14 -48 63 0 26 -7 108 -15 182 -8 74 -17 160 -19 190 -2 30 -7 99
-11 153 l-8 97 27 0 c15 0 28 -6 31 -12 2 -7 9 -76 15 -153 14 -166 26 -268
29 -240 7 56 7 81 0 95 -7 15 -29 238 -29 293 0 23 4 27 30 27 22 0 30 -5 30
-18 0 -42 30 -331 36 -347 4 -9 7 -32 8 -51 1 -19 6 -33 11 -32 6 2 9 7 7 11
-4 14 -40 285 -47 363 l-7 71 31 5 c18 3 31 0 31 -6 2 -87 51 -446 62 -446 12
0 10 29 -6 107 -12 60 -23 136 -41 306 -6 47 -6 47 25 47 24 0 30 -4 30 -21 0
-11 4 -18 10 -14 5 3 7 12 4 19 -5 12 34 31 44 22 1 -2 5 -37 8 -77 3 -41 12
-88 20 -105 8 -18 19 -78 25 -135 6 -57 16 -115 22 -129 l11 -25 4 24 c2 13
-1 28 -7 34 -6 6 -11 24 -11 41 0 59 -23 205 -31 200 -11 -6 -10 -15 -17 89
l-7 88 30 -3 c28 -3 31 -6 40 -63 6 -33 14 -67 19 -75 6 -8 15 -67 22 -131 6
-64 15 -131 19 -149 4 -20 3 -30 -2 -27 -6 4 -3 -20 6 -53 16 -56 31 -87 31
-61 0 7 5 9 10 6 14 -9 13 -4 -11 50 -13 30 -23 77 -26 129 -6 111 -18 191
-37 256 -18 60 -26 111 -19 123 8 14 42 7 47 -10z m-1211 -255 c-2 -123 -6
-283 -9 -356 l-6 -133 -27 3 -26 3 0 145 c0 158 13 501 21 538 3 15 12 22 28
22 l23 0 -4 -222z m61 206 c9 -9 16 -11 16 -4 0 7 13 10 32 8 27 -2 34 -8 39
-33 l7 -30 1 28 1 27 115 -1 115 -1 2 -36 1 -37 4 38 c4 33 7 37 34 37 16 0
29 -5 29 -12 0 -9 2 -10 8 -2 4 6 17 14 30 18 l22 7 1 -173 c0 -95 2 -180 3
-188 9 -45 16 -253 10 -289 -8 -51 -27 -49 -35 5 l-6 39 -2 -44 c-1 -34 -4
-42 -13 -33 -7 7 -13 99 -17 289 -5 268 -6 273 -13 143 -4 -74 -3 -191 2 -259
15 -182 15 -181 -15 -181 -45 0 -50 31 -49 305 0 187 -2 222 -7 140 -10 -168
-17 -426 -9 -375 7 44 7 44 8 -17 2 -68 -2 -72 -52 -53 l-26 10 -2 197 -2 198
-6 -204 c-3 -123 -9 -206 -15 -208 -5 -1 -17 2 -25 7 -12 8 -16 53 -21 262
l-6 253 1 -263 c1 -169 -3 -262 -9 -262 -17 0 -33 14 -38 35 -3 15 -5 13 -6
-8 -2 -42 -25 -28 -32 19 l-6 39 -2 -43 c-1 -39 -3 -43 -23 -40 l-23 3 1 320
c1 228 0 287 -6 205 -4 -63 -8 -209 -9 -323 l-1 -208 -32 3 c-39 4 -36 -49
-23 406 8 314 10 325 49 286z m661 4 c3 -7 10 -85 15 -173 5 -88 14 -189 19
-225 5 -36 13 -111 16 -167 l7 -103 -26 0 c-18 0 -26 6 -27 18 -1 15 -2 15 -6
-1 -3 -11 -11 -16 -19 -13 -8 3 -14 1 -14 -4 0 -6 -9 -10 -19 -10 -16 0 -21 9
-25 53 -11 103 -14 111 -12 30 l3 -83 -33 0 c-22 0 -37 6 -43 18 -5 9 -12 109
-15 222 -4 113 -9 258 -12 323 l-6 117 31 0 31 0 1 -157 c1 -87 3 -165 4 -173
1 -8 3 -58 5 -110 2 -77 4 -87 10 -55 4 21 6 75 4 120 -2 44 -5 145 -7 225
l-2 145 30 6 c50 11 85 10 90 -3z m1681 -372 c91 -31 205 -92 250 -133 34 -31
36 -36 31 -77 -6 -40 -78 -218 -97 -239 -8 -9 -96 131 -167 263 -55 102 -103
210 -94 210 4 0 39 -11 77 -24z m513 -129 c-17 -31 -35 -57 -40 -57 -5 0 -9 2
-9 5 0 10 72 116 76 113 2 -3 -10 -30 -27 -61z m-4854 28 c82 -21 90 -23 93
-25 1 -2 7 -3 12 -4 6 0 15 -7 19 -15 5 -7 13 -11 19 -7 5 3 12 -1 16 -9 6
-17 -23 -14 -114 12 -159 46 -565 26 -685 -33 -27 -13 -31 -13 -42 2 -7 9 -10
20 -8 25 9 13 107 42 190 55 118 18 425 17 500 -1z m-254 -92 l2 -38 6 35 c6
35 7 35 63 38 62 4 60 6 71 -68 3 -15 5 -8 6 17 1 44 9 56 29 45 8 -6 9 -50 2
-172 -5 -91 -13 -256 -16 -367 -7 -193 -8 -203 -27 -203 -19 0 -19 6 -13 233
4 127 8 273 10 322 l4 90 -14 -110 c-8 -60 -17 -204 -20 -320 l-6 -210 -25 -2
-25 -1 5 236 c2 131 10 263 16 294 7 31 11 92 9 135 l-3 78 -7 -55 c-8 -64
-35 -417 -45 -573 -6 -102 -7 -108 -27 -105 -20 3 -20 8 -18 153 1 83 4 160 6
173 6 30 17 332 11 312 -8 -25 -35 -459 -35 -552 l0 -88 -27 0 -26 0 7 198 c4
108 11 222 16 252 5 30 9 108 9 173 l1 117 30 0 c28 0 30 -3 31 -37z m-71 -75
c0 -57 -7 -147 -15 -201 -8 -54 -18 -172 -21 -262 -6 -127 -10 -165 -21 -166
-7 -1 -18 -2 -24 -3 -12 -1 -14 289 -2 322 4 13 3 14 -6 6 -9 -8 -22 -205 -21
-319 0 -6 -11 -12 -25 -13 l-25 -2 -3 293 -2 292 -3 -299 c-2 -290 -3 -298
-22 -293 -10 3 -21 0 -24 -7 -3 -7 -8 -6 -15 4 -9 13 -11 13 -11 -1 0 -19 -57
-46 -70 -33 -4 5 -5 171 -2 369 l7 360 50 16 c28 9 74 20 103 24 l52 7 2 -59
2 -58 3 50 c5 71 8 75 53 75 l40 0 0 -102z m303 -105 c-4 -115 -8 -283 -8
-376 0 -92 -3 -167 -7 -167 -5 0 -18 10 -29 21 -21 21 -22 28 -16 168 9 187
25 441 32 509 5 37 11 52 22 52 13 0 14 -25 6 -207z m68 143 c1 -15 4 -13 10
9 6 22 7 16 4 -25 -3 -30 -5 -194 -5 -363 0 -203 -3 -306 -10 -302 -5 3 -11
27 -11 53 -1 26 -5 61 -10 77 -6 20 -7 5 -4 -50 2 -51 0 -74 -5 -65 -7 10 -10
11 -10 3 0 -7 -4 -13 -8 -13 -4 0 -5 30 -1 68 4 37 3 69 -1 72 -15 10 -2 445
16 560 5 33 7 34 20 15 8 -10 15 -28 15 -39z"/>
<path d="M5800 9013 c0 -8 109 -64 123 -63 4 0 26 -12 48 -26 25 -15 40 -20
37 -12 -2 7 -46 34 -98 60 -97 49 -110 54 -110 41z"/>
<path d="M5695 8982 c9 -9 84 -62 162 -115 17 -12 37 -32 45 -45 l14 -23 19
21 c14 16 15 19 3 15 -9 -4 -27 6 -46 24 -17 17 -35 31 -41 31 -6 0 -11 4 -11
9 0 11 -99 76 -130 86 -17 5 -22 4 -15 -3z"/>
<path d="M5790 8980 c0 -5 5 -10 11 -10 5 0 7 5 4 10 -3 6 -8 10 -11 10 -2 0
-4 -4 -4 -10z"/>
<path d="M5820 8964 c0 -8 32 -33 43 -34 5 0 5 4 2 10 -8 13 -45 33 -45 24z"/>
<path d="M6026 8955 c4 -8 7 -15 9 -15 2 0 5 7 9 15 3 9 0 15 -9 15 -9 0 -12
-6 -9 -15z"/>
<path d="M5895 8919 c11 -5 28 -23 37 -39 18 -32 42 -41 31 -12 -9 23 -55 62
-73 61 -10 0 -9 -3 5 -10z"/>
<path d="M5163 8318 c-13 -6 -23 -17 -23 -24 0 -7 -3 -14 -7 -16 -5 -1 -42
-43 -83 -93 -72 -87 -86 -103 -148 -171 -15 -17 -26 -37 -24 -44 3 -7 0 -10
-6 -7 -5 4 -16 -1 -23 -10 -8 -9 -9 -14 -2 -10 7 5 9 0 6 -14 -4 -15 -8 -17
-14 -8 -5 9 -14 2 -29 -24 l-22 -37 -65 67 c-35 38 -55 54 -44 37 11 -17 17
-35 13 -39 -4 -5 -2 -5 4 -2 7 4 14 -2 17 -14 4 -14 10 -18 18 -13 9 5 11 2 6
-8 -3 -10 3 -24 15 -35 14 -12 19 -13 13 -3 -5 9 -4 12 1 7 5 -5 9 -16 9 -24
0 -41 28 -17 79 69 31 51 68 107 83 123 127 139 225 255 247 293 8 14 8 14
-21 0z m-323 -416 c0 -5 -6 -17 -14 -27 -13 -18 -14 -18 -9 8 5 24 23 39 23
19z"/>
<path d="M4441 8219 c24 -29 45 -47 47 -41 5 16 -58 92 -76 92 -8 0 3 -20 29
-51z"/>
<path d="M4500 8155 c0 -13 101 -119 134 -140 28 -18 27 -16 -9 20 -22 22 -49
51 -60 65 -27 32 -65 65 -65 55z"/>
<path d="M7320 7996 c-5 -15 -14 -25 -19 -22 -8 5 -62 -121 -75 -176 -3 -15
-11 -40 -17 -55 -8 -22 -12 -25 -20 -13 -8 11 -9 10 -4 -7 4 -15 2 -23 -5 -23
-7 0 -10 -7 -7 -15 4 -8 2 -17 -4 -21 -6 -3 -8 -12 -5 -20 3 -7 1 -16 -5 -20
-6 -3 -8 -12 -5 -20 3 -8 1 -14 -5 -14 -5 0 -9 -6 -7 -12 4 -25 -13 -119 -21
-113 -5 3 -7 -4 -4 -15 3 -13 0 -20 -8 -20 -10 0 -11 -2 -2 -8 8 -5 7 -35 -7
-117 -9 -60 -20 -137 -22 -170 l-5 -60 13 40 c7 22 13 49 13 60 1 12 5 25 11
31 5 5 16 52 25 104 28 168 45 231 124 470 43 129 77 237 75 239 -2 2 -8 -8
-14 -23z"/>
<path d="M4261 7747 c-10 -23 -22 -53 -26 -67 -4 -14 -36 -99 -70 -190 -35
-91 -68 -185 -75 -210 -15 -58 -36 -83 -60 -70 -10 5 -39 47 -66 92 -26 46
-58 97 -71 115 l-25 32 35 14 c62 26 103 112 88 181 -23 96 -116 136 -318 136
-131 0 -133 0 -123 -20 6 -11 17 -20 24 -20 19 0 29 -152 24 -365 -3 -155 -4
-160 -25 -170 -13 -5 -23 -15 -23 -22 0 -10 28 -13 110 -13 91 0 110 3 110 15
0 9 -9 15 -25 15 l-25 0 0 115 c0 108 1 115 20 115 22 0 52 -43 94 -135 15
-32 38 -74 51 -92 l25 -32 130 -3 c100 -2 130 0 130 10 0 7 -11 17 -25 22 -30
11 -28 29 11 119 21 46 27 53 46 47 13 -3 51 -6 84 -6 l62 0 20 -47 c31 -73
37 -113 18 -113 -9 0 -16 -7 -16 -15 0 -13 27 -15 185 -15 102 0 188 0 193 -1
4 0 8 6 10 14 2 9 -8 17 -26 20 l-30 6 -7 173 c-10 256 -14 249 72 137 40 -52
99 -130 132 -174 58 -79 161 -185 179 -185 16 0 20 82 14 309 -3 120 -2 229 1
242 3 13 16 29 29 34 21 9 33 35 16 35 -5 0 -44 0 -88 0 -61 0 -80 -3 -80 -14
0 -7 15 -17 32 -22 39 -12 45 -30 47 -154 1 -47 5 -115 10 -152 4 -38 4 -68 0
-68 -11 0 -85 91 -171 210 -42 58 -96 124 -120 146 -40 39 -47 42 -110 46 -60
3 -68 2 -68 -14 0 -10 7 -18 15 -18 9 0 19 -10 24 -23 11 -29 26 -445 18 -479
-4 -14 -19 -30 -33 -37 -50 -22 -64 5 -246 463 -33 82 -49 111 -66 117 -20 8
-25 4 -41 -34z m-450 -32 c36 -19 49 -50 49 -114 0 -33 -7 -58 -23 -82 -20
-30 -28 -34 -74 -37 l-52 -3 2 125 1 126 33 0 c19 0 47 -7 64 -15z m485 -210
l32 -95 -70 0 c-52 0 -68 3 -65 13 3 6 18 51 33 98 16 48 31 85 34 82 2 -2 19
-47 36 -98z"/>
<path d="M5897 7783 c-148 -3 -168 -5 -163 -19 3 -9 6 -18 6 -20 0 -2 9 -4 20
-4 20 0 21 -5 19 -256 -1 -238 -2 -257 -20 -275 -10 -10 -19 -23 -19 -29 0 -6
72 -10 195 -10 l194 0 10 38 c24 88 9 151 -19 82 -23 -55 -53 -70 -141 -70
l-79 0 0 114 0 115 44 6 c60 9 80 1 95 -41 21 -59 36 -36 39 64 3 87 2 92 -18
92 -13 0 -20 -7 -20 -18 0 -31 -22 -42 -84 -42 l-61 0 3 110 3 110 80 0 80 0
15 -35 c14 -34 38 -54 50 -42 3 3 3 35 -1 71 -7 64 -8 66 -34 64 -14 -1 -102
-4 -194 -5z"/>
<path d="M6174 7781 c-11 -12 -1 -33 21 -43 l25 -11 0 -257 c0 -249 -1 -258
-20 -263 -11 -3 -20 -13 -20 -22 0 -15 15 -16 158 -13 134 3 164 6 203 24 105
48 189 167 189 265 0 57 -23 136 -53 179 -32 48 -99 97 -160 116 -48 15 -332
36 -343 25z m319 -90 c96 -66 125 -238 61 -369 -40 -81 -136 -133 -193 -103
-21 11 -21 17 -21 263 l0 251 55 -6 c38 -4 68 -15 98 -36z"/>
<path d="M3060 7764 c0 -8 11 -19 24 -24 24 -9 24 -9 31 -228 8 -244 3 -302
-27 -310 -10 -2 -18 -11 -16 -19 2 -13 25 -15 133 -14 150 2 186 7 237 32 64
33 107 113 92 176 -8 33 -59 91 -93 104 l-23 9 27 22 c54 42 69 119 35 175
-20 33 -85 73 -118 73 -10 0 -22 3 -26 7 -4 4 -68 9 -142 10 -113 2 -134 0
-134 -13z m279 -69 c17 -16 25 -38 29 -73 4 -44 1 -53 -24 -80 -20 -22 -42
-34 -72 -38 l-43 -7 2 117 3 116 40 -6 c23 -4 52 -17 65 -29z m11 -248 c53
-41 68 -132 29 -181 -42 -53 -119 -74 -139 -37 -11 21 -14 214 -3 224 11 12
97 7 113 -6z"/>
<path d="M5184 7764 c3 -9 6 -18 6 -20 0 -2 7 -4 15 -4 13 0 15 -36 15 -265
l0 -265 -25 0 c-23 0 -24 -2 -15 -20 10 -18 21 -20 125 -20 63 0 138 5 167 11
144 30 250 153 249 289 0 98 -24 164 -80 220 -74 74 -128 90 -312 90 -134 0
-150 -2 -145 -16z m319 -71 c58 -40 80 -90 85 -189 3 -60 0 -96 -13 -135 -23
-69 -36 -87 -86 -121 -33 -22 -54 -28 -96 -28 l-53 0 0 256 0 257 62 -6 c45
-4 72 -13 101 -34z"/>
<path d="M7061 7044 c0 -11 3 -14 6 -6 3 7 2 16 -1 19 -3 4 -6 -2 -5 -13z"/>
<path d="M3090 6966 l0 -75 1800 0 1800 0 0 75 0 74 -1800 0 -1800 0 0 -74z"/>
<path d="M3107 6763 c-2 -5 -2 -43 1 -85 l4 -78 63 0 c73 0 75 2 75 95 0 57
-2 63 -22 69 -32 8 -116 7 -121 -1z m107 -42 c6 -10 -10 -25 -36 -34 -14 -5
-18 -1 -18 18 0 20 5 25 24 25 14 0 27 -4 30 -9z m-14 -65 c0 -2 3 -11 6 -20
5 -12 0 -16 -20 -16 -19 0 -26 5 -26 20 0 13 7 20 20 20 11 0 20 -2 20 -4z"/>
<path d="M3677 6752 c-28 -31 -22 -61 16 -77 19 -8 40 -22 48 -31 13 -16 10
-17 -41 -11 l-55 6 28 -24 c35 -31 57 -31 85 -2 35 37 29 62 -18 76 -23 7 -40
18 -40 27 0 21 24 28 50 14 19 -10 21 -9 18 12 -4 31 -66 38 -91 10z"/>
<path d="M3870 6686 c0 -77 2 -86 18 -86 15 0 18 6 14 30 -4 29 -3 30 32 30
35 0 44 -12 37 -52 0 -5 6 -8 14 -8 12 0 15 15 17 65 1 36 2 73 2 83 1 10 -7
18 -20 20 -18 3 -20 -1 -16 -33 4 -33 3 -35 -26 -35 -27 0 -31 4 -34 32 -2 22
-9 34 -20 36 -16 3 -18 -6 -18 -82z"/>
<path d="M4340 6744 c-6 -14 -10 -32 -10 -40 0 -25 -20 -15 -41 21 -14 24 -28
35 -43 35 -22 0 -23 -2 -18 -77 4 -81 16 -109 32 -83 5 8 10 24 10 35 0 18 5
20 35 17 32 -4 41 -14 36 -44 0 -5 8 -8 19 -8 18 0 20 7 20 85 0 70 -3 85 -15
85 -9 0 -20 -12 -25 -26z"/>
<path d="M4474 6738 c3 -18 8 -58 11 -88 l6 -55 54 -3 c44 -3 55 0 55 12 0 12
-10 16 -39 16 -34 0 -38 3 -34 20 3 13 14 20 28 20 18 0 35 16 35 34 0 1 -16
0 -35 -2 -31 -4 -35 -2 -35 18 0 21 4 22 40 17 37 -5 40 -3 40 19 0 23 -3 24
-65 24 l-66 0 5 -32z"/>
<path d="M4694 6739 c3 -17 6 -59 6 -92 l0 -60 45 5 c84 10 121 56 94 119 -14
36 -60 59 -115 59 -36 0 -36 -1 -30 -31z m94 -21 c27 -27 12 -66 -30 -81 -16
-6 -18 0 -18 43 0 41 3 50 18 50 10 0 23 -5 30 -12z"/>
<path d="M5074 6736 c-46 -46 -44 -74 6 -120 47 -42 52 -43 91 -15 43 30 37
42 -19 34 -45 -6 -49 -5 -60 21 -11 22 -10 31 3 50 17 26 53 32 73 12 17 -17
28 18 12 37 -22 27 -69 18 -106 -19z"/>
<path d="M5278 6680 c3 -86 4 -90 26 -90 54 0 86 12 86 33 0 17 -5 19 -35 14
l-35 -6 0 70 c0 65 -1 69 -22 69 -22 0 -23 -2 -20 -90z"/>
<path d="M5495 6758 c-52 -28 -61 -88 -19 -137 35 -42 80 -42 123 -2 41 39 42
82 2 122 -31 31 -70 37 -106 17z m63 -44 c43 -30 8 -106 -35 -78 -30 19 -38
40 -25 68 13 30 28 32 60 10z"/>
<path d="M5690 6750 c0 -16 7 -20 30 -20 l30 0 0 -70 c0 -55 3 -70 15 -70 11
0 15 16 17 68 3 65 4 67 31 70 19 2 27 9 27 23 0 17 -8 19 -75 19 -68 0 -75
-2 -75 -20z"/>
<path d="M5915 6759 c-13 -19 6 -169 20 -169 8 0 15 14 17 33 2 25 8 33 27 35
26 4 41 -12 41 -45 0 -15 6 -23 18 -23 15 0 17 10 15 87 -2 77 -4 88 -20 88
-13 0 -19 -9 -21 -32 -3 -29 -7 -33 -33 -33 -27 0 -29 3 -29 35 0 35 -20 49
-35 24z"/>
<path d="M6140 6718 c0 -78 11 -128 26 -128 11 0 14 20 14 90 0 83 -1 90 -20
90 -17 0 -20 -7 -20 -52z"/>
<path d="M6267 6693 c5 -89 8 -103 23 -103 5 0 10 21 10 47 l0 47 55 -54 55
-54 0 97 c0 92 -1 97 -21 97 -20 0 -21 -4 -17 -50 6 -57 0 -56 -42 6 -17 24
-39 44 -49 44 -16 0 -18 -8 -14 -77z"/>
<path d="M6542 6763 c-17 -7 -42 -57 -42 -86 0 -30 51 -87 78 -87 11 0 33 3
50 6 26 5 31 11 34 46 5 48 -3 61 -33 56 -19 -2 -25 -10 -27 -35 -4 -39 -14
-41 -42 -11 -26 28 -25 40 5 68 24 23 26 23 60 7 29 -14 35 -14 35 -2 0 32
-73 56 -118 38z"/>
<path d="M3334 6733 c3 -16 7 -52 8 -81 0 -29 4 -55 8 -57 18 -11 51 49 49 93
-1 25 -2 25 -9 -6 -4 -18 -10 -36 -14 -39 -10 -11 -6 30 8 69 16 43 13 48 -26
48 -27 0 -29 -2 -24 -27z"/>
<path d="M3477 6697 c-24 -54 -35 -107 -23 -107 3 0 18 14 35 30 24 25 29 37
26 63 -5 32 -5 32 6 -3 5 -19 23 -51 39 -70 25 -29 30 -32 30 -15 0 11 -10 53
-21 93 -18 60 -25 72 -43 72 -16 0 -28 -15 -49 -63z"/>
<path d="M4083 6724 c4 -22 7 -59 7 -83 0 -38 2 -42 15 -31 12 10 15 29 13 79
-3 55 -6 66 -22 69 -17 4 -18 0 -13 -34z"/>
<path d="M4753 6364 c-31 -7 -73 -53 -73 -81 0 -15 8 -27 23 -32 31 -12 47 -3
47 25 0 18 9 29 35 41 34 16 36 16 63 -4 32 -23 42 -81 19 -113 -7 -11 -49
-45 -93 -76 -106 -75 -114 -85 -114 -150 l0 -53 154 0 153 1 6 56 c3 31 4 58
1 61 -2 2 -15 -5 -27 -18 -13 -12 -39 -26 -58 -31 -41 -12 -159 -13 -159 -2 0
5 31 30 69 56 163 111 208 205 137 283 -31 34 -38 37 -97 39 -35 1 -74 0 -86
-2z"/>
<path d="M5185 6355 c-44 -24 -94 -75 -117 -119 -24 -48 -21 -141 7 -195 38
-74 117 -120 203 -121 78 0 117 22 139 78 18 47 24 134 11 147 -11 11 -161
-18 -165 -32 -3 -7 10 -13 34 -15 36 -3 38 -4 35 -36 -4 -53 -28 -92 -58 -92
-34 0 -78 24 -97 53 -25 38 -37 125 -25 180 20 96 110 149 166 97 19 -18 42
-76 42 -106 0 -6 7 -17 15 -24 12 -10 15 -9 15 4 0 10 5 14 10 11 6 -3 10 0
11 7 1 7 5 2 9 -12 7 -22 8 -20 9 15 1 49 -33 121 -71 149 -37 27 -132 33
-173 11z"/>
<path d="M7905 6315 c10 -96 15 -126 24 -121 4 3 5 26 1 52 -4 26 -5 55 -3 65
3 10 -3 28 -12 41 -16 22 -16 21 -10 -37z"/>
<path d="M4345 6345 c-16 -9 -37 -23 -45 -31 -13 -13 -12 -15 7 -20 29 -8 35
-52 31 -209 -3 -118 -3 -119 -28 -125 -16 -4 -25 -13 -25 -25 0 -18 10 -19
146 -23 l146 -4 6 23 c4 13 7 37 7 53 l0 29 -24 -22 c-19 -18 -33 -22 -77 -19
l-54 3 0 190 0 190 -30 3 c-16 1 -43 -5 -60 -13z"/>
<path d="M7941 6014 c0 -11 3 -14 6 -6 3 7 2 16 -1 19 -3 4 -6 -2 -5 -13z"/>
<path d="M7941 5940 c1 -29 6 -50 13 -50 7 0 7 -3 -1 -8 -10 -6 -10 -23 -1
-76 12 -72 24 -86 61 -68 16 8 18 11 6 11 -20 1 -36 40 -43 101 -13 115 -18
140 -26 140 -5 0 -9 -22 -9 -50z"/>
<path d="M7670 4899 c-14 -5 20 -6 80 -3 57 3 107 7 109 10 9 8 -162 1 -189
-7z"/>
<path d="M8065 4414 l-30 -14 35 5 c19 3 39 10 44 15 15 15 -14 12 -49 -6z"/>
<path d="M6935 3769 c-4 -6 -5 -12 -2 -15 2 -3 7 2 10 11 7 17 1 20 -8 4z"/>
<path d="M3909 9033 c-8 -10 -33 -31 -57 -47 -24 -16 -50 -42 -58 -57 -21 -41
-17 -49 5 -13 11 18 31 40 46 50 51 36 90 72 84 79 -4 3 -13 -2 -20 -12z"/>
<path d="M3892 8949 c-13 -23 -19 -39 -14 -35 14 8 53 76 44 76 -4 0 -18 -19
-30 -41z"/>
<path d="M3854 8952 c-12 -9 -29 -33 -38 -52 -16 -34 -16 -34 1 -10 10 14 30
37 45 53 30 30 25 36 -8 9z"/>
<path d="M3912 8930 c-7 -11 -8 -20 -3 -20 9 0 24 30 18 36 -1 2 -8 -6 -15
-16z"/>
<path d="M3938 8905 c-25 -34 -22 -43 3 -11 12 15 20 29 18 31 -2 1 -12 -7
-21 -20z"/>
<path d="M3835 8889 c-4 -6 -5 -12 -2 -15 2 -3 7 2 10 11 7 17 1 20 -8 4z"/>
<path d="M3890 8889 c0 -5 5 -7 10 -4 6 3 10 8 10 11 0 2 -4 4 -10 4 -5 0 -10
-5 -10 -11z"/>
<path d="M3832 8834 c-12 -18 -22 -37 -22 -41 0 -4 12 10 26 30 14 21 24 40
22 42 -2 2 -13 -12 -26 -31z"/>
<path d="M3786 8845 c-9 -26 -7 -32 5 -12 6 10 9 21 6 23 -2 3 -7 -2 -11 -11z"/>
<path d="M3851 8809 c-34 -56 -42 -81 -10 -34 25 37 51 85 46 85 -2 0 -18 -23
-36 -51z"/>
<path d="M3930 8841 c0 -6 -20 -31 -45 -55 -25 -25 -45 -50 -45 -58 1 -7 7 -1
15 13 8 14 25 34 39 43 27 17 51 54 42 64 -3 3 -6 0 -6 -7z"/>
<path d="M3941 8795 c-17 -20 -31 -39 -31 -42 0 -4 3 -3 8 3 4 5 20 24 36 42
17 17 27 32 24 32 -3 0 -20 -16 -37 -35z"/>
<path d="M3977 8792 c-19 -20 -23 -37 -7 -27 10 6 33 45 27 45 -2 0 -11 -8
-20 -18z"/>
<path d="M3982 8707 c-17 -34 -39 -73 -48 -87 -12 -17 -9 -16 9 5 14 17 35 51
48 77 15 33 26 45 38 41 10 -3 12 -1 6 4 -5 4 -12 11 -16 15 -3 4 -19 -21 -37
-55z"/>
<path d="M4067 8739 c-10 -11 -16 -24 -13 -27 6 -6 35 27 36 41 0 11 -4 9 -23
-14z"/>
<path d="M3936 8733 c-3 -10 -9 -25 -12 -33 -3 -8 4 -4 15 10 22 27 26 40 12
40 -5 0 -11 -8 -15 -17z"/>
<path d="M4096 8700 l-18 -35 22 21 c12 12 20 28 18 35 -3 9 -12 0 -22 -21z"/>
<path d="M4138 8693 c-23 -27 -30 -43 -20 -43 11 0 46 50 39 56 -2 2 -11 -4
-19 -13z"/>
<path d="M3890 8645 c-7 -9 -8 -15 -2 -15 5 0 12 7 16 15 3 8 4 15 2 15 -2 0
-9 -7 -16 -15z"/>
<path d="M4051 8627 c-11 -18 -29 -42 -41 -52 -24 -21 -26 -37 -5 -29 8 4 15
12 15 19 0 7 7 18 16 26 16 13 48 69 40 69 -2 0 -14 -15 -25 -33z"/>
<path d="M4244 8612 c-25 -30 -74 -115 -74 -129 0 -2 4 -3 9 -3 5 0 12 13 16
29 7 34 29 56 46 46 8 -5 9 -1 4 15 -6 18 -2 27 15 40 13 9 21 22 19 28 -2 6
-18 -6 -35 -26z"/>
<path d="M4302 8618 c-6 -6 -12 -19 -12 -27 0 -13 2 -13 16 1 9 9 15 21 13 27
-3 9 -8 8 -17 -1z"/>
<path d="M4325 8565 c-33 -52 -85 -144 -85 -151 0 -14 20 0 26 19 3 12 31 59
60 105 29 45 49 82 44 82 -6 0 -26 -25 -45 -55z"/>
<path d="M4266 8551 c-4 -7 -5 -15 -2 -18 9 -9 19 4 14 18 -4 11 -6 11 -12 0z"/>
<path d="M5180 8465 c0 -5 5 -17 10 -25 5 -8 10 -10 10 -5 0 6 -5 17 -10 25
-5 8 -10 11 -10 5z"/>
<path d="M4560 8569 c0 -2 -14 -37 -30 -78 -17 -41 -29 -76 -27 -78 2 -2 18
31 35 74 17 42 29 79 27 82 -3 2 -5 2 -5 0z"/>
<path d="M4484 8385 c-3 -8 -4 -20 -2 -27 3 -7 7 -1 10 15 6 29 1 36 -8 12z"/>
<path d="M6705 2220 c-36 -71 -63 -130 -61 -130 2 0 25 39 51 88 26 48 59 106
72 130 14 23 20 42 14 42 -6 0 -40 -58 -76 -130z"/>
<path d="M6784 2257 c-78 -160 -133 -277 -126 -273 11 6 156 305 151 310 -3 3
-14 -14 -25 -37z"/>
<path d="M7157 2223 c-44 -152 -56 -193 -61 -223 -3 -19 6 1 20 45 45 139 57
185 52 191 -3 2 -8 -3 -11 -13z"/>
<path d="M6620 2060 c-6 -11 -8 -20 -6 -20 3 0 10 9 16 20 6 11 8 20 6 20 -3
0 -10 -9 -16 -20z"/>
<path d="M7161 2045 c-1 -22 -26 -97 -41 -125 -5 -10 -6 -20 -3 -24 7 -7 43
68 43 90 0 8 4 14 9 14 5 0 14 14 20 30 6 18 6 30 0 30 -5 0 -9 -10 -10 -22
-1 -22 -1 -22 -9 2 -7 21 -8 22 -9 5z"/>
<path d="M7217 2028 c-17 -40 -31 -98 -24 -98 3 0 15 27 27 60 24 64 21 96 -3
38z"/>
<path d="M6926 2035 c-9 -26 -7 -32 5 -12 6 10 9 21 6 23 -2 3 -7 -2 -11 -11z"/>
<path d="M6971 1999 c-6 -18 -9 -34 -7 -36 2 -2 9 10 15 28 6 18 9 34 7 36 -2
2 -9 -10 -15 -28z"/>
<path d="M6697 1975 c-9 -20 -17 -41 -17 -48 0 -7 9 8 20 32 24 52 21 66 -3
16z"/>
<path d="M6906 1985 c-9 -26 -7 -32 5 -12 6 10 9 21 6 23 -2 3 -7 -2 -11 -11z"/>
<path d="M6986 1965 c-3 -9 -6 -22 -5 -28 0 -7 5 -1 10 12 5 13 8 26 5 28 -2
2 -6 -3 -10 -12z"/>
<path d="M6881 1919 c-6 -18 -9 -34 -7 -36 2 -2 9 10 15 28 6 18 9 34 7 36 -2
2 -9 -10 -15 -28z"/>
<path d="M6946 1924 c-4 -14 -5 -28 -3 -31 3 -2 8 8 11 23 4 14 5 28 3 31 -3
2 -8 -8 -11 -23z"/>
<path d="M6721 1924 c0 -11 3 -14 6 -6 3 7 2 16 -1 19 -3 4 -6 -2 -5 -13z"/>
<path d="M6671 1894 c0 -11 3 -14 6 -6 3 7 2 16 -1 19 -3 4 -6 -2 -5 -13z"/>
<path d="M6596 1885 c-9 -26 -7 -32 5 -12 6 10 9 21 6 23 -2 3 -7 -2 -11 -11z"/>
<path d="M7074 1833 c-9 -32 -28 -93 -40 -136 -26 -86 -31 -125 -8 -62 26 70
76 247 70 252 -2 3 -12 -22 -22 -54z"/>
<path d="M7132 1878 c-11 -14 -34 -90 -28 -95 2 -2 12 21 23 52 22 57 22 63 5
43z"/>
<path d="M6755 1869 c-4 -6 -5 -12 -2 -15 2 -3 7 2 10 11 7 17 1 20 -8 4z"/>
<path d="M6965 1798 c-4 -29 -14 -70 -21 -92 -18 -49 -17 -58 1 -26 15 27 40
158 32 166 -3 3 -8 -19 -12 -48z"/>
<path d="M6565 1819 c-4 -6 -5 -12 -2 -15 2 -3 7 2 10 11 7 17 1 20 -8 4z"/>
<path d="M6801 1784 c-12 -26 -19 -49 -17 -51 2 -3 14 17 25 43 12 26 19 49
17 51 -2 3 -14 -17 -25 -43z"/>
<path d="M6755 1694 c-9 -14 -14 -28 -12 -31 3 -3 13 9 22 26 19 38 14 41 -10
5z"/>
<path d="M7096 1585 c-9 -26 -7 -32 5 -12 6 10 9 21 6 23 -2 3 -7 -2 -11 -11z"/>
<path d="M2806 2163 c-6 -14 -5 -15 5 -6 7 7 10 15 7 18 -3 3 -9 -2 -12 -12z"/>
<path d="M2871 2164 c0 -11 3 -14 6 -6 3 7 2 16 -1 19 -3 4 -6 -2 -5 -13z"/>
<path d="M2962 2140 c0 -14 2 -19 5 -12 2 6 2 18 0 25 -3 6 -5 1 -5 -13z"/>
<path d="M2786 2123 c-6 -14 -5 -15 5 -6 7 7 10 15 7 18 -3 3 -9 -2 -12 -12z"/>
<path d="M2846 2123 c-6 -14 -5 -15 5 -6 7 7 10 15 7 18 -3 3 -9 -2 -12 -12z"/>
<path d="M2906 2123 c-6 -14 -5 -15 5 -6 7 7 10 15 7 18 -3 3 -9 -2 -12 -12z"/>
<path d="M3012 2120 c0 -14 2 -19 5 -12 2 6 2 18 0 25 -3 6 -5 1 -5 -13z"/>
<path d="M3051 2124 c0 -11 3 -14 6 -6 3 7 2 16 -1 19 -3 4 -6 -2 -5 -13z"/>
<path d="M2875 2099 c-4 -6 -5 -12 -2 -15 2 -3 7 2 10 11 7 17 1 20 -8 4z"/>
<path d="M2929 2062 c-15 -26 -29 -60 -32 -77 -6 -28 -6 -29 4 -5 6 14 22 47
35 74 33 62 26 69 -7 8z"/>
<path d="M3161 2095 c0 -11 4 -38 8 -60 l9 -40 1 45 c0 25 -4 52 -9 60 -8 12
-10 12 -9 -5z"/>
<path d="M2766 2085 c-9 -26 -7 -32 5 -12 6 10 9 21 6 23 -2 3 -7 -2 -11 -11z"/>
<path d="M3210 2050 c0 -30 -3 -86 -6 -125 -4 -38 -4 -67 -1 -64 11 9 25 223
15 234 -4 5 -8 -15 -8 -45z"/>
<path d="M3002 2065 c0 -16 2 -22 5 -12 2 9 2 23 0 30 -3 6 -5 -1 -5 -18z"/>
<path d="M3252 2048 c1 -35 2 -39 8 -18 11 35 12 60 1 60 -5 0 -9 -19 -9 -42z"/>
<path d="M3346 2059 c-3 -13 -16 -69 -29 -124 -14 -55 -26 -104 -27 -110 -1
-5 -1 -37 0 -70 l3 -60 7 75 c10 100 29 192 40 185 9 -6 25 113 17 122 -4 3
-8 -5 -11 -18z"/>
<path d="M3072 2033 c-15 -48 -8 -55 8 -8 7 20 10 38 8 41 -3 2 -10 -13 -16
-33z"/>
<path d="M3402 2021 c0 -27 -8 -66 -17 -87 -15 -35 -18 -37 -25 -19 -8 19 -9
19 -9 -2 -1 -16 5 -23 18 -23 15 0 22 14 35 65 18 70 21 115 8 115 -5 0 -9
-22 -10 -49z"/>
<path d="M3026 2045 c-3 -9 -6 -22 -5 -28 0 -7 5 -1 10 12 5 13 8 26 5 28 -2
2 -6 -3 -10 -12z"/>
<path d="M3292 2023 c-15 -48 -8 -55 8 -8 7 20 10 38 8 41 -3 2 -10 -13 -16
-33z"/>
<path d="M2742 2013 c-7 -22 -12 -49 -11 -59 0 -11 7 4 15 31 16 60 13 85 -4
28z"/>
<path d="M3002 1995 c0 -16 2 -22 5 -12 2 9 2 23 0 30 -3 6 -5 -1 -5 -18z"/>
<path d="M2835 1980 c-4 -17 -5 -34 -2 -36 2 -3 7 10 11 27 8 42 0 50 -9 9z"/>
<path d="M2792 1980 c0 -14 2 -19 5 -12 2 6 2 18 0 25 -3 6 -5 1 -5 -13z"/>
<path d="M3756 1838 c-4 -90 -3 -228 3 -308 l9 -145 -1 220 c-1 121 1 259 5
308 4 48 3 87 -1 87 -5 0 -12 -73 -15 -162z"/>
<path d="M2942 1970 c0 -14 2 -19 5 -12 2 6 2 18 0 25 -3 6 -5 1 -5 -13z"/>
<path d="M3040 1960 c-6 -11 -8 -20 -6 -20 3 0 10 9 16 20 6 11 8 20 6 20 -3
0 -10 -9 -16 -20z"/>
<path d="M3266 1944 c-4 -14 -5 -28 -3 -31 3 -2 8 8 11 23 4 14 5 28 3 31 -3
2 -8 -8 -11 -23z"/>
<path d="M2986 1951 c-4 -7 -5 -15 -2 -18 9 -9 19 4 14 18 -4 11 -6 11 -12 0z"/>
<path d="M2681 1924 c0 -11 3 -14 6 -6 3 7 2 16 -1 19 -3 4 -6 -2 -5 -13z"/>
<path d="M3502 1877 c-7 -34 -17 -102 -22 -152 -5 -49 -14 -112 -19 -140 -5
-27 -8 -52 -6 -54 7 -6 24 75 35 169 6 52 15 126 21 163 14 87 7 97 -9 14z"/>
<path d="M2821 1914 c0 -11 3 -14 6 -6 3 7 2 16 -1 19 -3 4 -6 -2 -5 -13z"/>
<path d="M2723 1885 c0 -22 2 -30 4 -17 2 12 2 30 0 40 -3 9 -5 -1 -4 -23z"/>
<path d="M3003 1901 c-7 -69 -22 -161 -28 -171 -5 -7 -9 -31 -11 -54 l-3 -41
15 35 c8 18 17 61 20 95 8 96 14 126 25 120 5 -4 9 2 9 13 0 23 -25 25 -27 3z"/>
<path d="M2952 1880 c0 -19 2 -27 5 -17 2 9 2 25 0 35 -3 9 -5 1 -5 -18z"/>
<path d="M2902 1883 c-15 -30 -45 -154 -39 -160 3 -3 9 8 12 23 4 16 15 57 25
92 18 62 18 78 2 45z"/>
<path d="M3055 1889 c-4 -6 -5 -12 -2 -15 2 -3 7 2 10 11 7 17 1 20 -8 4z"/>
<path d="M2671 1874 c0 -11 3 -14 6 -6 3 7 2 16 -1 19 -3 4 -6 -2 -5 -13z"/>
<path d="M2826 1868 c-3 -13 -5 -34 -5 -48 1 -15 5 -7 10 19 9 47 6 68 -5 29z"/>
<path d="M3360 1828 c1 -45 11 -38 24 15 5 20 3 27 -9 27 -11 0 -15 -11 -15
-42z"/>
<path d="M2662 1830 c0 -14 2 -19 5 -12 2 6 2 18 0 25 -3 6 -5 1 -5 -13z"/>
<path d="M3045 1840 c-4 -6 -6 -41 -5 -78 0 -37 -7 -96 -16 -132 -22 -87 -29
-160 -15 -160 6 0 11 17 11 38 0 69 26 196 39 188 4 -3 8 4 8 15 1 11 -2 17
-7 14 -6 -3 -7 21 -3 60 6 61 2 78 -12 55z"/>
<path d="M3192 1830 c0 -14 2 -19 5 -12 2 6 2 18 0 25 -3 6 -5 1 -5 -13z"/>
<path d="M2712 1815 c0 -16 2 -22 5 -12 2 9 2 23 0 30 -3 6 -5 -1 -5 -18z"/>
<path d="M3240 1754 c-12 -49 -25 -96 -27 -104 -2 -8 2 -4 10 10 8 14 18 44
22 68 4 23 13 49 21 56 9 10 11 22 6 36 -7 18 -13 5 -32 -66z"/>
<path d="M3834 1745 c0 -55 1 -76 3 -47 2 29 2 74 0 100 -2 26 -3 2 -3 -53z"/>
<path d="M2935 1780 c-4 -28 -5 -54 -2 -56 3 -3 8 18 12 46 4 28 5 54 2 56 -3
3 -8 -18 -12 -46z"/>
<path d="M3546 1803 c-3 -16 -8 -53 -11 -83 -11 -86 -33 -176 -60 -235 -30
-69 -24 -72 10 -5 25 50 58 193 69 298 5 55 1 70 -8 25z"/>
<path d="M3392 1793 c-14 -6 -56 -82 -48 -90 2 -3 12 10 21 29 10 18 24 41 33
51 16 18 15 19 -6 10z"/>
<path d="M2802 1721 c-7 -38 -15 -76 -18 -85 -3 -9 -2 -16 4 -16 5 0 13 15 17
33 8 38 17 137 12 137 -2 0 -9 -31 -15 -69z"/>
<path d="M2652 1760 c0 -14 2 -19 5 -12 2 6 2 18 0 25 -3 6 -5 1 -5 -13z"/>
<path d="M3167 1698 c-9 -46 -19 -94 -22 -108 -3 -14 3 -6 14 16 17 38 40 174
28 174 -2 0 -12 -37 -20 -82z"/>
<path d="M3431 1750 c-1 -19 -6 -53 -12 -75 -5 -22 -11 -87 -14 -145 l-4 -105
9 85 c5 47 14 121 21 166 6 44 9 87 6 95 -3 8 -6 -2 -6 -21z"/>
<path d="M3682 1653 c1 -138 6 -126 10 30 2 53 0 97 -4 97 -5 0 -7 -57 -6
-127z"/>
<path d="M2702 1750 c0 -14 2 -19 5 -12 2 6 2 18 0 25 -3 6 -5 1 -5 -13z"/>
<path d="M2642 1710 c0 -14 2 -19 5 -12 2 6 2 18 0 25 -3 6 -5 1 -5 -13z"/>
<path d="M2681 1670 c-13 -61 -14 -81 -2 -60 10 17 25 110 17 110 -2 0 -9 -23
-15 -50z"/>
<path d="M3377 1713 c-10 -17 -37 -117 -32 -121 5 -5 7 1 28 76 14 48 15 63 4
45z"/>
<path d="M2847 1649 c-4 -30 -9 -71 -12 -90 -6 -41 -2 -33 21 44 12 41 14 64
7 79 -8 19 -11 14 -16 -33z"/>
<path d="M3320 1675 c-7 -9 -8 -15 -2 -15 5 0 12 7 16 15 3 8 4 15 2 15 -2 0
-9 -7 -16 -15z"/>
<path d="M3280 1646 c0 -7 -3 -29 -6 -47 -5 -30 -4 -32 7 -14 15 23 20 75 7
75 -4 0 -8 -6 -8 -14z"/>
<path d="M3642 1620 c0 -14 2 -19 5 -12 2 6 2 18 0 25 -3 6 -5 1 -5 -13z"/>
<path d="M3943 1590 c0 -30 2 -43 4 -27 2 15 2 39 0 55 -2 15 -4 2 -4 -28z"/>
<path d="M3206 1593 c-3 -16 -8 -38 -12 -50 -9 -31 10 -29 24 2 14 30 16 75 3
75 -5 0 -11 -12 -15 -27z"/>
<path d="M3844 1535 c0 -49 1 -71 3 -48 2 23 2 64 0 90 -2 26 -3 8 -3 -42z"/>
<path d="M2661 1574 c0 -11 3 -14 6 -6 3 7 2 16 -1 19 -3 4 -6 -2 -5 -13z"/>
<path d="M3572 1516 c-12 -66 -16 -113 -7 -104 6 6 27 159 22 164 -2 2 -9 -25
-15 -60z"/>
<path d="M3127 1553 c-4 -3 -7 -11 -7 -17 0 -6 5 -5 12 2 6 6 9 14 7 17 -3 3
-9 2 -12 -2z"/>
<path d="M3200 1475 c0 -14 5 -25 11 -25 5 0 8 4 4 9 -3 5 -1 12 5 16 15 9 12
25 -5 25 -9 0 -15 -9 -15 -25z"/>
<path d="M3623 1440 c0 -30 2 -43 4 -27 2 15 2 39 0 55 -2 15 -4 2 -4 -28z"/>
<path d="M3491 1403 c0 -25 1 -26 9 -8 12 27 12 35 0 35 -5 0 -10 -12 -9 -27z"/>
<path d="M3552 1375 c0 -16 2 -22 5 -12 2 9 2 23 0 30 -3 6 -5 -1 -5 -18z"/>
<path d="M6125 1991 c-3 -6 -2 -11 3 -11 5 0 17 -18 27 -40 10 -23 22 -43 27
-46 8 -5 -37 92 -47 104 -2 2 -6 -1 -10 -7z"/>
<path d="M6032 1975 c0 -11 4 -31 8 -45 6 -20 8 -21 8 -5 0 11 -4 31 -8 45 -6
20 -8 21 -8 5z"/>
<path d="M6051 1859 c1 -24 5 -57 10 -74 5 -19 6 -4 2 40 -6 79 -14 101 -12
34z"/>
<path d="M6105 1885 c4 -11 14 -39 22 -63 8 -24 18 -41 21 -38 6 7 -27 97 -41
111 -7 7 -7 3 -2 -10z"/>
<path d="M6209 1832 c11 -28 27 -87 36 -130 14 -72 14 -73 10 -19 -6 60 -39
174 -57 192 -5 6 0 -14 11 -43z"/>
<path d="M6076 1754 c-4 -20 -5 -38 -3 -40 3 -3 8 11 11 32 4 20 5 38 3 40 -3
3 -8 -11 -11 -32z"/>
<path d="M6154 1766 c-5 -13 -3 -21 4 -24 7 -2 13 -16 13 -30 1 -15 3 -20 6
-10 2 9 0 31 -5 50 -8 29 -11 30 -18 14z"/>
<path d="M5772 1555 c0 -11 4 -31 8 -45 6 -20 8 -21 8 -5 0 11 -4 31 -8 45 -6
20 -8 21 -8 5z"/>
<path d="M5912 1560 c0 -14 2 -19 5 -12 2 6 2 18 0 25 -3 6 -5 1 -5 -13z"/>
<path d="M5882 1535 c0 -16 2 -22 5 -12 2 9 2 23 0 30 -3 6 -5 -1 -5 -18z"/>
<path d="M5511 1644 c0 -11 3 -14 6 -6 3 7 2 16 -1 19 -3 4 -6 -2 -5 -13z"/>
<path d="M5235 1865 c8 -100 35 -308 41 -314 15 -15 15 22 0 102 -9 50 -20
134 -25 185 -5 51 -11 96 -15 100 -4 3 -4 -29 -1 -73z"/>
<path d="M5053 1552 c-7 -4 -11 -38 -10 -87 0 -44 2 -64 4 -45 3 19 12 43 21
53 9 10 12 17 7 15 -14 -4 -16 8 -9 38 7 28 4 36 -13 26z"/>
<path d="M5280 1530 c-13 -9 -13 -11 0 -20 10 -6 16 -6 18 0 7 20 -3 30 -18
20z"/>
<path d="M5213 1503 c9 -21 9 -27 -1 -31 -6 -2 -12 -10 -12 -19 0 -34 25 -3
28 35 2 32 0 42 -12 42 -13 0 -14 -4 -3 -27z"/>
<path d="M5280 1461 c0 -10 7 -21 15 -25 11 -4 15 1 15 19 0 16 -6 25 -15 25
-8 0 -15 -9 -15 -19z"/>
<path d="M5210 1407 c0 -8 7 -14 15 -14 8 0 15 6 15 14 0 7 -7 13 -15 13 -8 0
-15 -6 -15 -13z"/>
<path d="M4364 1625 c0 -132 2 -185 3 -117 2 68 2 176 0 240 -1 64 -3 9 -3
-123z"/>
<path d="M4522 1795 c0 -16 2 -22 5 -12 2 9 2 23 0 30 -3 6 -5 -1 -5 -18z"/>
<path d="M4333 1435 c0 -27 2 -38 4 -22 2 15 2 37 0 50 -2 12 -4 0 -4 -28z"/>
<path d="M4871 1917 c0 -27 4 -101 10 -166 6 -64 14 -191 18 -281 6 -127 8
-144 9 -73 2 100 -15 412 -28 508 l-7 60 -2 -48z"/>
<path d="M4823 1370 c0 -30 2 -43 4 -27 2 15 2 39 0 55 -2 15 -4 2 -4 -28z"/>
<path d="M4922 1390 c0 -19 2 -27 5 -17 2 9 2 25 0 35 -3 9 -5 1 -5 -18z"/>
<path d="M1887 1258 c-3 -84 -8 -162 -12 -173 -6 -19 -6 -19 6 -1 11 18 28
326 17 326 -3 0 -8 -69 -11 -152z"/>
<path d="M1843 1245 c0 -27 2 -38 4 -22 2 15 2 37 0 50 -2 12 -4 0 -4 -28z"/>
<path d="M1733 1145 c0 -27 2 -38 4 -22 2 15 2 37 0 50 -2 12 -4 0 -4 -28z"/>
<path d="M1833 1140 c0 -30 2 -43 4 -27 2 15 2 39 0 55 -2 15 -4 2 -4 -28z"/>
<path d="M1822 1050 c0 -19 2 -27 5 -17 2 9 2 25 0 35 -3 9 -5 1 -5 -18z"/>
<path d="M1733 990 c0 -41 2 -58 4 -37 2 20 2 54 0 75 -2 20 -4 3 -4 -38z"/>
<path d="M1723 860 c0 -25 2 -35 4 -22 2 12 2 32 0 45 -2 12 -4 2 -4 -23z"/>
<path d="M2295 1148 c-4 -128 -5 -251 -3 -273 2 -22 7 81 11 228 5 148 7 271
4 273 -3 3 -8 -100 -12 -228z"/>
<path d="M3162 1105 c41 -64 85 -124 233 -314 143 -185 486 -582 619 -719 67
-68 73 -72 115 -72 l45 0 -80 83 c-99 103 -189 205 -330 372 -60 72 -147 171
-194 220 -94 99 -192 209 -317 355 -119 139 -146 162 -91 75z"/>
<path d="M3090 454 c0 -8 15 -49 34 -90 24 -51 42 -77 59 -83 13 -5 82 -61
153 -123 182 -161 178 -158 238 -158 l51 0 -40 32 c-22 18 -133 124 -247 235
-198 193 -248 231 -248 187z"/>
<path d="M3180 245 c0 -15 4 -44 9 -64 6 -20 15 -64 22 -97 12 -65 24 -93 35
-82 3 4 -6 48 -20 99 -15 50 -28 107 -31 127 -6 44 -15 55 -15 17z"/>
<path d="M2011 89 c-4 -13 -12 -39 -16 -57 l-7 -32 42 0 c36 0 41 3 35 17 -3
10 -9 30 -12 45 -3 15 -12 33 -19 39 -11 9 -16 6 -23 -12z"/>
</g>
</svg>
