<?xml version="1.0" standalone="no"?>
<!DOCTYPE svg PUBLIC "-//W3C//DTD SVG 20010904//EN"
 "http://www.w3.org/TR/2001/REC-SVG-20010904/DTD/svg10.dtd">
<svg version="1.0" xmlns="http://www.w3.org/2000/svg"
 width="1024.000000pt" height="1024.000000pt" viewBox="0 0 1024.000000 1024.000000"
 preserveAspectRatio="xMidYMid meet">

<g transform="translate(0.000000,1024.000000) scale(0.100000,-0.100000)"
fill="#000000" stroke="none">
<path d="M5349 9933 c-87 -127 -172 -223 -292 -327 -192 -168 -314 -223 -465
-213 -97 7 -165 34 -283 115 -153 103 -282 234 -376 379 -44 68 -58 83 -79 83
-22 0 -24 -3 -19 -22 22 -72 114 -206 215 -313 64 -68 67 -72 79 -145 6 -41
30 -150 51 -242 22 -92 40 -178 40 -190 0 -16 -12 -30 -38 -45 -20 -12 -73
-54 -116 -93 -160 -145 -288 -232 -651 -440 -252 -144 -413 -237 -472 -272
-91 -54 -171 -186 -332 -550 -60 -134 -126 -279 -148 -323 -22 -44 -46 -109
-52 -145 -7 -36 -30 -132 -52 -215 -46 -179 -126 -576 -168 -840 -17 -104 -40
-237 -50 -295 -21 -109 -28 -152 -82 -505 l-33 -209 28 -137 28 -138 -36 -88
c-20 -48 -61 -171 -91 -272 -67 -219 -67 -212 26 -420 l61 -136 3 -235 c1
-129 4 -243 6 -254 3 -13 -9 -28 -41 -50 -24 -18 -64 -61 -88 -96 -40 -59 -44
-69 -39 -110 3 -25 21 -81 40 -124 40 -90 39 -99 -19 -263 -42 -118 -79 -241
-94 -311 -14 -61 3 -131 52 -225 45 -83 79 -109 199 -147 57 -18 112 -42 122
-53 9 -11 24 -45 33 -76 61 -222 84 -278 135 -336 45 -51 50 -62 44 -89 -17
-79 -15 -98 13 -216 49 -202 95 -445 112 -597 5 -51 15 -105 21 -120 10 -26
12 -27 19 -8 8 19 9 19 9 -2 1 -12 6 -25 13 -29 8 -5 9 15 5 77 -3 46 -9 95
-12 109 l-6 25 14 -25 c9 -14 22 -51 30 -83 23 -86 41 -110 80 -103 36 6 177
8 475 7 141 -1 202 -4 202 -12 0 -8 -79 -10 -282 -6 -203 4 -276 3 -258 -5 14
-6 146 -13 313 -16 178 -3 287 -8 287 -15 0 -9 -323 -4 -540 9 -132 8 -108
-14 31 -28 139 -14 589 -16 589 -3 0 6 -16 13 -37 16 -33 5 -29 14 5 10 11 -2
13 4 11 27 0 4 -6 6 -14 4 -7 -1 -16 2 -20 8 -4 6 1 7 11 3 25 -10 12 20 -14
32 -16 7 -22 18 -22 44 0 25 3 31 13 24 6 -5 30 -24 52 -41 63 -49 118 -61
284 -60 82 0 158 -5 173 -11 37 -14 41 -4 33 90 -4 43 -5 79 -1 79 3 0 17 -38
31 -85 25 -81 45 -103 45 -50 0 36 17 39 31 6 15 -34 47 -47 63 -26 9 12 25
13 86 6 41 -5 533 -9 1094 -8 l1018 2 19 24 c10 13 19 35 19 50 1 25 1 26 16
6 9 -11 22 -35 30 -52 15 -34 44 -45 44 -18 0 23 17 18 24 -8 3 -12 10 -29 16
-37 9 -13 13 -11 29 10 l19 24 20 -23 19 -24 22 22 c20 20 23 20 51 6 16 -8
32 -19 35 -25 20 -32 42 11 55 105 l7 60 2 -50 c2 -64 11 -97 25 -92 7 2 10
33 9 88 l-3 84 15 -65 c18 -82 31 -110 49 -110 33 0 38 37 32 268 -4 125 -9
250 -12 277 -5 40 -2 55 14 75 11 14 32 50 47 80 77 152 224 378 279 429 25
23 28 24 95 13 170 -29 275 -8 351 68 50 50 181 217 250 318 38 57 45 75 48
127 4 67 -27 267 -64 415 -39 156 -44 145 101 258 68 53 162 124 207 157 45
33 90 72 101 86 10 14 55 127 99 250 44 123 91 254 104 291 62 173 77 254 82
436 2 97 -1 216 -7 270 -26 220 -208 1071 -311 1457 -17 66 -51 194 -75 285
-137 522 -320 1173 -362 1290 -52 143 -278 560 -432 795 -92 141 -189 246
-262 282 -24 12 -97 45 -161 73 -302 129 -365 157 -535 240 -167 81 -207 103
-348 195 -27 18 -79 47 -114 65 -35 17 -89 48 -119 68 l-55 37 -102 -3 -102
-3 -50 58 c-65 76 -75 97 -109 228 -24 96 -28 136 -33 315 -6 200 -6 205 -28
208 -16 2 -29 -9 -54 -45z m-1059 -599 c83 -85 247 -226 332 -287 136 -97 351
-208 566 -292 45 -17 84 -34 87 -37 13 -13 -119 -83 -232 -124 -378 -133 -706
-83 -794 122 -22 54 -24 89 -5 135 7 19 16 43 20 54 7 18 10 15 28 -20 20 -38
22 -39 31 -18 7 16 -3 73 -41 230 -60 246 -72 303 -63 303 4 0 36 -30 71 -66z
m1705 -354 c28 -12 45 -24 39 -26 -11 -5 -184 71 -184 80 0 6 60 -17 145 -54z
m-89 -1 c117 -54 120 -56 112 -64 -13 -14 -238 87 -238 108 0 13 16 8 126 -44z
m-96 -5 c25 -14 68 -35 95 -45 70 -27 95 -41 95 -52 0 -17 -65 0 -146 38 -97
44 -126 63 -119 75 10 15 27 12 75 -16z m-1620 -29 c-7 -9 -32 -30 -54 -46
-35 -27 -34 -25 9 15 51 47 67 58 45 31z m1663 -54 c43 -17 85 -31 94 -31 22
0 10 -24 -18 -34 -20 -7 -47 2 -137 45 -61 30 -112 59 -112 66 0 20 24 21 60
3 19 -10 70 -32 113 -49z m383 -38 c165 -92 342 -176 597 -284 120 -51 238
-105 262 -120 95 -60 181 -207 313 -529 81 -197 116 -299 107 -308 -7 -7 -5
-11 -65 133 -186 453 -263 591 -370 670 -57 42 -200 106 -490 221 -118 46
-245 98 -282 114 -38 15 -68 27 -68 25 0 -13 139 -80 395 -190 387 -165 409
-176 476 -245 44 -45 71 -88 127 -201 38 -79 86 -182 105 -229 137 -333 128
-295 71 -309 -67 -17 -110 -42 -184 -106 -100 -88 -287 -272 -353 -350 -61
-70 -199 -274 -219 -324 l-11 -26 -7 30 c-13 53 -10 118 9 210 11 50 22 126
26 170 3 44 11 114 16 155 5 41 16 165 24 275 8 110 22 258 31 328 9 70 13
131 10 135 -12 11 -59 -22 -79 -56 -38 -65 -109 -268 -127 -362 -43 -225 -86
-1107 -91 -1860 -2 -230 -10 -419 -30 -710 -6 -91 -15 -226 -20 -300 -17 -271
-38 -450 -57 -493 -10 -23 -77 -132 -149 -242 -71 -110 -143 -222 -158 -250
-85 -148 -269 -410 -394 -560 -241 -290 -255 -307 -288 -353 -18 -25 -33 -51
-33 -59 0 -11 69 57 189 187 32 34 32 34 -3 -14 -20 -27 -36 -53 -36 -58 0 -5
19 4 43 20 23 16 62 41 87 56 l45 27 -31 -28 c-18 -15 -86 -74 -152 -131 -113
-96 -152 -135 -152 -154 0 -5 30 17 67 48 36 31 98 77 137 102 39 25 108 73
152 106 140 104 295 218 409 300 61 44 137 101 169 127 33 27 61 47 63 46 1
-2 -15 -70 -37 -153 -62 -232 -91 -387 -100 -533 -5 -89 -13 -138 -22 -146 -7
-7 -53 -30 -103 -50 -509 -208 -993 -462 -1046 -549 -10 -17 -19 -34 -19 -39
0 -9 127 54 179 89 59 39 219 105 326 134 55 15 186 52 290 83 253 74 435 119
451 113 28 -11 12 -24 -48 -41 -190 -52 -708 -219 -883 -285 -55 -20 -117 -40
-137 -44 -21 -4 -38 -12 -38 -18 0 -16 71 -2 170 33 303 108 959 324 964 318
6 -9 36 -117 36 -130 0 -9 -16 -20 -37 -26 -21 -6 -89 -32 -151 -58 -115 -47
-240 -84 -532 -155 -91 -22 -221 -54 -290 -71 -310 -78 -330 -81 -515 -74
-184 6 -389 19 -555 36 -412 40 -961 189 -1265 342 -114 57 -354 217 -417 277
-26 26 -48 55 -48 66 0 22 41 90 87 143 l29 34 44 -23 c24 -12 86 -50 139 -85
163 -106 253 -161 321 -195 36 -18 77 -41 93 -52 15 -11 27 -15 27 -10 0 15
-62 66 -150 122 -44 29 -80 54 -80 56 0 13 148 -73 186 -108 24 -22 44 -36 44
-31 0 17 -45 70 -156 181 -132 132 -152 155 -109 125 77 -54 401 -365 410
-394 4 -10 10 -19 15 -19 14 0 -7 49 -38 90 -61 82 -311 308 -452 409 -41 30
-125 99 -187 154 -114 101 -143 143 -143 206 0 39 148 280 162 265 7 -7 1 -57
-22 -199 -15 -90 -16 -112 -6 -123 11 -11 15 -8 24 15 30 76 42 152 82 508 12
108 27 363 40 695 6 151 18 403 26 560 17 340 29 658 49 1310 22 675 34 999
40 1040 3 19 12 139 20 265 15 235 11 317 -17 367 -12 21 -13 18 -19 -42 -3
-39 -6 -50 -7 -28 -1 20 -6 39 -11 42 -4 3 -6 -45 -3 -109 4 -100 -7 -291 -24
-407 -12 -81 -39 -24 -49 102 -8 106 -23 180 -37 180 -11 0 -6 -652 5 -696 3
-12 9 -74 13 -138 5 -84 4 -116 -5 -116 -6 0 -11 4 -11 10 0 5 -28 47 -63 92
-61 81 -157 230 -157 245 0 5 -16 34 -35 66 -39 65 -42 90 -19 145 9 20 27 76
39 123 26 95 131 366 195 504 48 103 138 235 183 269 18 12 68 42 112 66 153
83 590 333 660 378 39 25 88 60 109 78 48 41 59 43 51 6 -8 -40 29 -221 58
-278 38 -75 139 -179 202 -209 54 -25 56 -27 106 -133 85 -179 184 -375 211
-417 14 -22 28 -50 32 -62 11 -35 31 -28 73 24 56 70 194 233 228 270 17 18
46 52 65 75 19 23 51 58 71 78 20 19 60 62 90 95 51 58 58 62 189 110 146 55
267 119 429 227 137 92 207 150 322 270 94 99 96 100 135 96 21 -3 48 -8 59
-12 11 -4 0 4 -25 18 -25 14 -48 25 -51 26 -3 0 -55 -48 -115 -106 -60 -59
-138 -130 -174 -159 -83 -67 -308 -209 -426 -268 -104 -52 -280 -127 -299
-127 -14 0 -91 -83 -273 -296 -15 -17 -83 -99 -151 -183 l-124 -151 -45 87
c-66 132 -142 284 -206 416 -33 67 -64 117 -72 117 -23 0 -133 89 -176 143
-70 89 -101 174 -114 312 -5 60 -4 73 12 93 19 23 19 23 16 -52 -4 -86 13
-157 59 -249 61 -119 167 -203 324 -253 85 -27 99 -28 270 -28 163 0 190 2
285 27 58 15 113 27 123 27 12 0 -36 -60 -140 -177 -87 -98 -176 -201 -198
-228 -22 -28 -60 -74 -84 -102 l-44 -51 -128 257 c-70 142 -135 264 -144 271
-13 11 -14 10 -8 -6 9 -24 135 -285 164 -339 12 -22 43 -81 69 -131 43 -80 49
-88 58 -70 5 12 34 48 63 82 66 75 258 297 318 367 87 104 124 139 160 154 20
8 109 48 197 89 270 124 469 261 691 476 68 65 126 118 131 118 5 0 62 -30
128 -67z m-505 27 c30 -16 75 -37 101 -45 50 -17 84 -45 54 -45 -10 0 -16 -7
-14 -17 5 -27 -49 -25 -101 3 -24 13 -46 24 -49 24 -15 0 34 -40 69 -55 22
-10 38 -23 36 -29 -8 -21 -52 -5 -108 38 -31 24 -67 50 -80 57 -22 11 -23 11
-10 -5 11 -12 107 -92 150 -123 2 -1 -8 -12 -23 -24 -14 -11 -32 -26 -39 -33
-6 -6 -28 -24 -48 -39 l-37 -28 -45 73 c-25 40 -59 86 -76 102 -35 34 -38 41
-14 50 11 5 30 -7 60 -36 52 -51 56 -42 8 16 -30 36 -33 45 -21 55 8 7 25 9
40 5 25 -6 26 -5 20 25 -9 41 16 42 62 1 19 -16 47 -33 62 -36 15 -4 44 -18
66 -31 23 -15 36 -19 34 -11 -2 7 -31 27 -64 43 -85 43 -114 63 -114 80 0 22
21 18 81 -15z m-1596 -19 c-3 -6 -11 -11 -17 -11 -6 0 -6 6 2 15 14 17 26 13
15 -4z m18 -48 c-3 -7 -9 -13 -13 -13 -4 0 -38 -18 -74 -40 -73 -45 -88 -49
-61 -20 10 11 22 20 27 20 13 0 92 60 102 77 6 12 10 13 16 3 5 -7 6 -19 3
-27z m-53 21 c0 -9 -28 -31 -65 -50 -26 -14 -25 -12 10 19 39 35 55 44 55 31z
m60 -51 c0 -10 -153 -113 -159 -107 -7 7 27 37 88 78 53 36 71 43 71 29z m1
-42 c-20 -36 -152 -137 -164 -124 -14 14 -5 24 62 68 38 25 74 52 81 60 18 22
33 19 21 -4z m1362 -49 c67 -80 102 -143 85 -154 -7 -4 -21 -6 -30 -4 -10 2
-18 -1 -18 -6 0 -19 -38 22 -51 55 -7 18 -27 53 -46 80 -33 46 -39 67 -26 80
16 17 41 2 86 -51z m-1343 14 c0 -8 -37 -49 -82 -91 -66 -61 -84 -73 -87 -58
-2 12 10 28 34 48 21 16 57 49 79 71 45 45 56 51 56 30z m1279 -59 c22 -35 41
-67 41 -71 0 -4 9 -20 19 -35 16 -23 17 -29 6 -45 -8 -10 -18 -15 -23 -12 -18
11 -124 205 -117 216 14 22 34 7 74 -53z m-1255 24 c8 -12 -161 -181 -181
-181 -1 0 -3 9 -3 19 0 11 19 33 48 53 26 19 63 53 82 75 37 43 45 49 54 34z
m1213 -84 c69 -122 69 -121 38 -135 -23 -11 -27 -9 -34 11 -29 75 -44 107 -47
104 -2 -2 5 -30 16 -62 25 -72 25 -69 -6 -84 -32 -14 -39 -10 -64 40 -11 21
-23 39 -25 39 -3 0 4 -18 15 -40 11 -21 20 -46 20 -55 0 -13 -36 -35 -59 -35
-13 0 -93 210 -87 226 11 29 43 15 59 -25 9 -22 21 -42 27 -46 6 -4 4 10 -4
30 -15 35 -21 75 -12 75 2 0 11 2 18 5 9 4 25 -17 48 -65 18 -38 35 -68 38
-66 2 2 -8 33 -22 68 -14 36 -26 70 -26 76 0 12 28 31 45 31 6 1 33 -41 62
-92z m-1182 43 c3 -11 11 -20 16 -20 18 0 9 -21 -31 -72 -52 -65 -43 -76 13
-15 40 44 67 59 67 38 0 -6 -8 -16 -18 -23 -33 -24 -92 -105 -92 -126 0 -12
-8 -25 -17 -31 -16 -8 -16 -12 -3 -37 l15 -28 3 30 c6 62 91 194 125 194 24 0
27 -12 7 -39 -45 -64 -80 -146 -80 -188 0 -45 -9 -53 -30 -28 -7 8 -19 15 -26
15 -7 0 -35 20 -61 44 l-48 45 38 37 c20 21 37 42 37 48 0 5 -17 -7 -38 -27
-43 -42 -52 -45 -52 -17 0 11 4 20 8 20 5 0 22 13 38 30 16 16 34 30 39 30 17
0 100 89 91 97 -4 4 -28 -14 -54 -40 -60 -60 -133 -119 -140 -113 -9 10 26 52
81 96 30 25 63 57 73 72 23 33 31 35 39 8z m928 -62 c3 -7 23 -57 46 -111 l40
-97 -28 -15 -28 -14 -11 50 c-7 28 -24 80 -38 115 -14 35 -22 68 -19 74 9 14
32 13 38 -2z m-35 -85 c38 -83 51 -151 31 -164 -27 -17 -36 -8 -49 49 -7 31
-21 80 -31 107 -24 62 -24 75 0 75 13 0 27 -20 49 -67z m-59 -40 c41 -130 42
-144 11 -160 l-25 -12 -12 67 c-6 38 -16 86 -22 108 -15 55 -14 94 3 94 9 0
25 -36 45 -97z m-723 -6 c-14 -35 -28 -83 -31 -108 -5 -40 -4 -39 14 18 21 68
60 145 76 150 6 1 16 -1 24 -6 12 -7 11 -15 -6 -42 -22 -37 -68 -157 -78 -201
-6 -32 -25 -38 -25 -9 0 15 -7 19 -32 17 -32 -1 -33 0 -31 41 3 71 98 253 111
214 2 -6 -8 -39 -22 -74z m662 -14 c23 -104 28 -163 13 -163 -5 0 -16 -2 -24
-6 -11 -4 -17 12 -26 69 -7 40 -18 97 -26 125 -12 47 -12 53 3 62 32 18 39 9
60 -87z m-76 15 c26 -99 34 -188 17 -199 -30 -19 -36 -7 -47 99 -15 137 -15
162 1 162 7 0 20 -27 29 -62z m-364 27 c1 -1 -4 -53 -13 -116 -8 -63 -15 -122
-15 -131 0 -13 -8 -18 -25 -18 -28 0 -28 2 -5 120 18 90 22 133 13 127 -5 -3
-18 -55 -28 -114 -17 -107 -32 -142 -54 -128 -6 3 -9 10 -7 14 3 4 12 50 20
103 9 52 18 104 21 114 4 11 -1 7 -10 -8 -8 -15 -20 -65 -26 -110 -6 -46 -13
-86 -17 -90 -4 -4 -19 -10 -34 -13 -23 -6 -28 -4 -28 12 0 46 59 199 93 241 8
10 25 12 61 7 28 -4 52 -8 54 -10z m246 -31 c9 -70 7 -224 -3 -224 -5 0 -16
-3 -25 -6 -14 -5 -16 10 -16 128 0 74 3 138 7 141 17 18 31 3 37 -39z m60 29
c2 -10 6 -67 8 -128 3 -105 2 -110 -18 -113 -18 -3 -22 4 -28 44 -3 26 -6 84
-6 130 0 76 2 84 19 84 11 0 22 -8 25 -17z m-254 -69 c0 -36 -5 -96 -11 -135
-10 -56 -15 -69 -30 -69 -15 0 -19 8 -19 38 1 51 25 215 34 230 15 25 26 -1
26 -64z m130 -46 c0 -68 -4 -128 -8 -135 -10 -16 -47 -21 -46 -5 1 6 2 68 3
137 l1 125 25 0 25 0 0 -122z m-72 -13 c-3 -126 -9 -144 -43 -145 -10 0 -9
229 0 258 3 6 14 12 26 12 20 0 21 -3 17 -125z m2033 -316 c-5 -13 -10 -19
-10 -12 -1 15 10 45 15 40 3 -2 0 -15 -5 -28z m777 -441 c17 -17 15 -28 -5
-28 -30 0 -135 -55 -193 -101 -48 -38 -234 -214 -338 -319 -100 -101 -218
-273 -268 -388 -15 -34 -29 -61 -31 -58 -9 9 40 153 70 206 89 160 175 261
402 472 129 120 187 167 239 193 72 37 104 43 124 23z m67 -8 c3 -5 -1 -10 -9
-10 -8 0 -18 5 -21 10 -3 6 1 10 9 10 8 0 18 -4 21 -10z m138 4 c46 -8 49 -24
5 -24 -42 0 -78 10 -78 21 0 10 20 11 73 3z m-179 -73 c8 -12 64 -222 166
-626 91 -357 165 -628 175 -645 4 -6 4 -10 1 -10 -3 0 -74 -14 -158 -31 -207
-41 -328 -77 -328 -98 0 -52 96 -489 110 -505 5 -5 54 3 112 17 156 39 287 66
342 69 48 3 50 2 58 -27 4 -16 26 -113 48 -215 23 -102 52 -225 65 -275 51
-192 129 -615 117 -626 -14 -12 -289 -108 -397 -137 -60 -17 -193 -46 -295
-66 -208 -41 -350 -75 -365 -88 -16 -15 16 -28 70 -28 87 0 369 -58 515 -105
41 -14 114 -33 162 -44 94 -22 383 -108 409 -122 21 -11 32 -102 21 -179 -7
-54 -7 -54 -52 -68 -35 -11 -94 -12 -277 -7 -228 6 -232 6 -243 -15 -10 -18 0
-33 102 -142 62 -66 147 -147 188 -179 41 -32 95 -75 119 -94 43 -35 68 -41
105 -26 20 8 16 12 -18 25 -17 6 -17 5 -5 -10 8 -10 -31 17 -86 60 -55 42
-137 102 -182 133 -150 104 -78 71 132 -61 39 -25 100 -55 138 -67 37 -13 67
-26 67 -30 0 -4 -6 -22 -14 -41 -21 -50 -85 -111 -160 -153 -74 -41 -166 -79
-173 -71 -3 3 13 38 35 79 74 139 71 152 -80 284 -204 179 -236 209 -254 241
-21 37 -34 41 -34 11 0 -15 46 -66 141 -158 78 -75 153 -143 168 -152 14 -9
41 -33 60 -52 40 -42 38 -63 -15 -143 -44 -66 -46 -68 -124 -93 -36 -11 -54
-19 -40 -16 102 18 115 18 100 2 -46 -49 -339 -86 -555 -70 l-140 10 215 0
c207 1 217 2 285 27 l70 27 -50 -8 c-64 -10 -199 -10 -400 0 -134 7 -163 6
-180 -6 -24 -19 -17 -33 61 -130 30 -38 47 -64 37 -58 -39 21 -133 114 -139
137 -7 27 -22 32 -30 9 -14 -36 74 -129 239 -249 43 -32 110 -85 150 -118 40
-33 79 -65 88 -72 19 -13 85 -100 100 -130 l10 -21 -18 21 c-10 11 -35 40 -55
64 -42 49 -59 48 -35 -2 9 -18 42 -96 74 -173 54 -133 58 -144 58 -225 0 -78
-3 -90 -33 -147 -19 -34 -45 -71 -58 -84 l-24 -22 -162 31 c-202 40 -270 71
-388 178 -181 163 -363 291 -540 379 -52 26 -107 59 -122 73 -27 25 -28 25
-28 5 0 -49 18 -72 68 -86 27 -8 68 -25 91 -37 116 -59 343 -222 460 -331 50
-46 119 -99 153 -117 61 -32 62 -33 23 -27 -64 11 -106 38 -216 142 -121 114
-304 240 -459 318 -122 61 -141 81 -148 156 -4 41 0 56 21 87 14 22 39 45 56
52 29 11 33 10 55 -11 27 -27 193 -94 329 -134 144 -41 199 -69 397 -203 105
-70 217 -142 250 -160 57 -32 62 -33 85 -18 37 24 39 49 9 108 -45 89 -108
169 -211 268 -102 98 -426 343 -510 384 -54 27 -136 56 -158 56 -27 0 -16 -16
23 -33 83 -37 236 -148 404 -294 165 -144 205 -188 251 -278 l16 -30 -6 45
c-6 50 -33 109 -58 130 -9 7 -21 23 -27 34 -19 38 50 -33 139 -144 99 -122
140 -198 123 -230 -6 -11 -15 -20 -20 -20 -5 0 -46 35 -92 78 -62 59 -129 106
-263 187 -161 97 -194 112 -310 147 -165 50 -366 128 -359 139 8 14 35 11 100
-10 50 -17 164 -50 227 -68 74 -20 -89 72 -206 116 -15 6 -31 21 -37 33 -73
178 -86 230 -76 300 12 78 3 75 275 98 214 18 265 20 400 10 113 -8 190 -8
280 -1 122 11 169 21 100 21 -43 0 -155 8 -389 25 -150 12 -216 12 -347 3 -90
-6 -165 -9 -168 -6 -7 7 52 127 89 181 42 61 61 105 95 217 59 195 78 234 132
285 27 25 74 58 104 71 53 25 55 25 117 9 35 -9 85 -30 112 -46 27 -16 50 -28
53 -26 2 3 -17 23 -42 45 -35 31 -64 45 -125 61 -74 20 -83 21 -142 7 -35 -8
-80 -22 -100 -30 -49 -21 -64 -20 -88 4 -39 39 -128 399 -115 462 4 15 31 67
62 115 30 48 59 98 64 110 4 12 32 61 62 110 80 130 85 141 96 244 6 51 19
130 30 174 11 44 26 130 35 190 62 424 80 542 96 630 11 55 35 183 54 285 19
102 51 264 70 360 64 321 79 414 84 510 4 99 -5 161 -26 168 -9 3 -12 -25 -13
-105 0 -59 -6 -130 -12 -158 -11 -43 -12 -28 -10 115 3 193 -10 183 -32 -25
-8 -71 -21 -162 -30 -202 -8 -40 -24 -146 -35 -235 -33 -263 -130 -780 -215
-1153 -57 -251 -115 -545 -115 -587 l0 -33 -21 30 c-39 59 -67 122 -117 270
-111 331 -172 532 -172 560 0 32 27 181 60 330 44 204 111 566 108 582 -6 29
-34 -33 -59 -131 -26 -105 -35 -108 -14 -5 42 202 98 313 240 477 69 79 387
387 436 421 66 46 141 72 153 52z m69 -24 c9 -38 86 -330 104 -394 10 -35 21
-63 26 -63 16 0 -6 148 -48 314 l-43 168 64 -4 c35 -2 69 -9 75 -15 6 -6 19
-44 29 -85 17 -71 71 -267 130 -473 26 -92 59 -210 154 -561 20 -72 36 -137
36 -143 0 -10 -27 -11 -112 -6 -62 4 -114 8 -115 9 -2 2 -55 204 -153 591 -95
374 -169 662 -176 679 -4 12 -2 15 9 10 8 -3 17 -15 20 -27z m-5060 -180 c-27
-66 -43 -84 -43 -50 0 17 61 125 67 119 2 -1 -9 -33 -24 -69z m0 -286 c19 -44
70 -134 113 -201 44 -66 93 -143 109 -170 17 -26 44 -70 60 -97 l30 -48 -2
-405 c-2 -443 -18 -948 -31 -995 -8 -29 -9 -29 -20 -9 -6 12 -27 79 -46 150
-19 71 -49 179 -66 239 -56 202 -138 665 -159 908 -40 452 -52 644 -44 724 7
78 7 78 14 31 4 -26 23 -83 42 -127z m53 47 c20 -40 60 -107 89 -148 113 -163
165 -253 165 -287 0 -42 -14 -42 -30 -2 -7 17 -60 101 -116 186 -98 147 -132
214 -149 291 -11 50 2 38 41 -40z m-131 -453 c19 -243 36 -365 64 -455 11 -36
38 -166 61 -290 54 -301 110 -563 147 -690 2 -8 -3 -4 -12 10 -9 14 -14 18
-12 10 3 -9 17 -60 31 -114 15 -54 35 -120 45 -145 20 -51 36 -141 25 -141
-17 0 -151 81 -302 182 -225 150 -260 171 -289 163 -12 -3 -23 -11 -23 -18 0
-7 32 -49 71 -92 78 -87 196 -231 300 -365 36 -47 103 -125 148 -174 45 -50
80 -97 79 -105 -3 -14 -20 -19 -258 -80 -157 -40 -160 -41 -160 -59 0 -11 42
-43 119 -90 65 -39 129 -81 142 -92 30 -26 -110 42 -215 104 -113 67 -148 74
-65 14 30 -22 317 -180 386 -212 13 -6 23 -19 23 -29 0 -15 -7 -14 -57 12 -32
16 -156 76 -276 135 -238 116 -298 159 -319 227 -10 36 -9 41 13 65 13 14 60
43 104 65 62 31 72 38 45 34 -54 -9 -157 -60 -175 -89 -26 -39 -3 -119 48
-166 61 -58 277 -176 495 -271 140 -61 131 -43 108 -206 -8 -62 -19 -100 -31
-113 -12 -13 -92 -44 -214 -84 -197 -64 -291 -100 -291 -111 0 -7 2 -7 170 45
69 21 164 50 213 65 48 14 94 28 102 31 24 10 18 -10 -20 -62 -81 -113 -145
-212 -145 -226 0 -12 -22 -16 -108 -21 -81 -4 -123 -11 -168 -29 -89 -36 -86
-51 28 -130 112 -78 159 -103 224 -118 85 -20 105 -31 102 -54 -3 -18 -9 -20
-43 -18 -22 2 -72 -4 -112 -12 -133 -28 -241 -84 -322 -165 -52 -53 -181 -248
-181 -275 0 -12 13 -40 30 -62 16 -21 30 -46 30 -54 0 -24 29 -60 48 -60 10 0
25 17 37 41 31 65 156 182 239 224 71 36 70 34 -8 -17 -61 -40 -170 -147 -191
-188 -9 -19 -29 -47 -43 -63 -22 -23 -31 -26 -59 -21 -26 5 -33 3 -33 -10 0
-10 15 -19 43 -27 23 -6 56 -22 72 -35 l30 -25 -45 6 c-116 17 -144 34 -184
113 -43 86 -58 151 -46 212 12 66 88 292 137 410 44 106 77 199 108 312 28 98
28 98 16 98 -5 0 -23 -37 -42 -82 -18 -46 -44 -105 -57 -133 l-25 -50 -23 50
c-38 81 -40 110 -11 148 47 59 71 83 161 156 103 84 133 100 267 147 55 19
134 52 177 74 43 21 92 45 108 51 l29 13 -27 4 c-18 2 -68 -16 -145 -52 -65
-30 -152 -67 -193 -82 -41 -14 -106 -42 -144 -61 -37 -19 -70 -32 -73 -29 -10
10 -25 352 -16 383 l8 31 85 -29 c47 -17 94 -28 104 -25 11 3 27 0 35 -7 12
-10 13 -9 4 8 -13 23 -111 118 -165 159 -21 16 -38 33 -38 38 0 15 110 -75
180 -147 l65 -68 0 -60 c-1 -57 0 -59 12 -31 16 38 16 77 0 117 -13 30 -160
173 -320 312 -38 32 -80 78 -94 102 l-25 43 30 98 c17 53 40 131 52 172 36
126 51 170 58 170 6 0 45 -62 77 -122 12 -22 30 -24 21 -2 -3 9 -2 12 4 9 6
-4 8 -22 4 -43 -5 -31 -4 -35 7 -24 10 9 14 40 14 105 0 79 -5 101 -29 157
-15 36 -46 117 -69 180 l-40 115 31 195 c17 107 39 247 47 310 9 62 25 155 35
205 10 49 24 137 30 195 10 93 34 233 101 580 29 150 70 342 77 360 6 17 12
-43 37 -355z m4852 263 c-3 -8 -6 -5 -6 6 -1 11 2 17 5 13 3 -3 4 -12 1 -19z
m-633 -452 c-3 -21 -8 -35 -11 -32 -2 2 -1 20 3 40 3 21 8 35 11 32 2 -2 1
-20 -3 -40z m1396 -376 c11 -11 20 -23 20 -27 0 -5 -46 -7 -102 -5 -126 4
-307 -25 -379 -61 l-49 -24 0 29 c0 33 12 39 137 69 111 27 183 36 276 38 65
1 80 -2 97 -19z m30 -70 c0 -5 -24 -11 -52 -11 l-53 -1 50 -9 c28 -4 55 -16
62 -25 18 -25 16 -36 -4 -30 -66 20 -126 27 -183 21 -97 -10 -206 -33 -284
-61 -72 -25 -91 -22 -84 12 5 26 266 91 403 99 55 4 102 9 104 11 9 8 41 4 41
-6z m18 -116 c6 -2 12 -10 12 -19 0 -12 -19 -15 -122 -14 -103 1 -145 -4 -263
-31 -77 -17 -148 -33 -157 -36 -30 -9 -22 31 10 46 15 7 88 25 162 41 115 23
151 27 240 22 58 -2 111 -6 118 -9z m-1531 -186 c-3 -8 -6 -5 -6 6 -1 11 2 17
5 13 3 -3 4 -12 1 -19z m1723 -158 c44 -212 69 -382 60 -399 -6 -10 -18 6 -43
55 -33 64 -50 70 -27 9 14 -38 -7 -22 -25 18 -12 29 -13 18 -10 -108 3 -77 14
-239 25 -360 18 -186 26 -228 47 -275 25 -54 25 -55 3 -35 -53 47 -61 71 -95
277 -30 179 -85 431 -185 838 -16 68 -30 128 -30 132 0 8 231 16 242 8 3 -3
21 -75 38 -160z m-1223 8 c-3 -8 -6 -5 -6 6 -1 11 2 17 5 13 3 -3 4 -12 1 -19z
m-10 -50 c-3 -7 -5 -2 -5 12 0 14 2 19 5 13 2 -7 2 -19 0 -25z m-10 -40 c-3
-8 -6 -5 -6 6 -1 11 2 17 5 13 3 -3 4 -12 1 -19z m-22 -125 c-43 -240 -94
-445 -95 -381 0 9 13 74 29 145 16 70 40 176 52 235 13 59 25 105 27 103 2 -2
-4 -48 -13 -102z m-563 -55 c-5 -108 -10 -115 -11 -15 0 48 3 87 7 87 4 0 6
-33 4 -72z m-4203 -181 c64 -71 66 -84 2 -22 -33 33 -61 63 -61 68 0 13 19 -2
59 -46z m6008 21 c-3 -7 -5 -2 -5 12 0 14 2 19 5 13 2 -7 2 -19 0 -25z m77
-34 c6 -29 6 -29 -6 3 -7 17 -16 35 -20 39 -5 4 -8 12 -8 18 0 19 29 -30 34
-60z m-5568 -84 c4 -42 3 -41 -14 20 -32 112 -33 116 -11 70 12 -25 23 -65 25
-90z m3675 -240 c-6 -124 -8 -241 -5 -261 5 -27 0 -48 -20 -87 -15 -29 -28
-52 -29 -52 -6 0 4 191 18 325 8 77 17 196 20 265 3 69 9 139 13 155 13 54 14
-107 3 -345z m1838 271 c1 -35 -5 -22 -12 24 -5 28 -4 34 3 20 5 -11 9 -31 9
-44z m0 -190 c2 -79 -5 -59 -12 34 -3 47 -2 68 3 50 4 -16 8 -54 9 -84z
m-6113 -43 c14 -39 24 -78 22 -87 -4 -18 -68 151 -68 178 1 25 17 -7 46 -91z
m-35 -34 c22 -47 38 -89 35 -92 -5 -5 -86 157 -86 172 0 19 14 -4 51 -80z
m6156 -21 c-3 -10 -5 -4 -5 12 0 17 2 24 5 18 2 -7 2 -21 0 -30z m10 -55 c-3
-7 -5 -2 -5 12 0 14 2 19 5 13 2 -7 2 -19 0 -25z m-5592 -128 c21 -22 37 -40
34 -40 -3 0 -23 18 -44 40 -21 22 -37 40 -34 40 3 0 23 -18 44 -40z m55 -200
c0 -15 -31 -28 -85 -34 l-50 -6 55 16 c30 8 59 20 65 25 12 11 15 11 15 -1z
m-147 -47 c-7 -2 -19 -2 -25 0 -7 3 -2 5 12 5 14 0 19 -2 13 -5z m5911 -290
c-35 -144 -104 -271 -177 -327 -42 -32 -63 -34 -23 -3 28 23 28 25 30 128 0
57 -3 113 -8 123 -8 17 -6 18 20 11 44 -12 77 -11 81 2 3 7 -10 15 -31 19 -48
8 -54 21 -14 29 17 4 50 16 72 26 55 24 57 23 50 -8z m-6368 -69 c104 -57 135
-76 130 -81 -6 -6 -172 83 -181 97 -9 15 -2 13 51 -16z m4668 -181 c-8 -27
-20 -66 -26 -88 -9 -34 -12 -37 -19 -20 -17 43 -10 84 22 120 17 19 32 35 34
35 2 0 -3 -21 -11 -47z m-223 -83 c-16 -82 -72 -247 -138 -404 -87 -208 -96
-237 -101 -318 -5 -92 0 -117 34 -158 15 -17 25 -32 23 -34 -5 -4 -222 -76
-230 -76 -19 0 28 349 70 518 83 331 73 304 127 354 67 62 218 186 223 182 2
-2 -2 -31 -8 -64z m-701 -394 c0 -2 -8 -10 -17 -17 -16 -13 -17 -12 -4 4 13
16 21 21 21 13z m-3420 -25 c0 -27 -63 -44 -212 -56 -46 -4 -78 -3 -78 3 0 8
80 27 215 51 69 12 75 12 75 2z m3380 -5 c0 -2 -8 -10 -17 -17 -16 -13 -17
-12 -4 4 13 16 21 21 21 13z m-40 -29 c0 -2 -10 -12 -22 -23 l-23 -19 19 23
c18 21 26 27 26 19z m-50 -41 c0 -4 -97 -78 -120 -91 -25 -14 -6 3 56 50 60
45 64 48 64 41z m-3254 -340 c-26 -36 -65 -86 -86 -111 -22 -26 -45 -55 -50
-66 -6 -10 -40 -34 -77 -51 -46 -23 -95 -61 -166 -129 -85 -82 -98 -99 -92
-118 6 -19 4 -22 -16 -19 -12 2 -24 9 -27 17 -3 8 0 11 7 7 6 -4 11 -3 11 2 0
6 -7 12 -15 16 -19 7 -55 66 -55 90 0 41 207 277 301 342 37 26 83 48 122 57
62 16 179 35 186 30 2 -1 -18 -31 -43 -67z m-97 -365 c12 -42 21 -91 21 -107
-1 -29 -1 -29 -22 11 -47 89 -74 248 -33 192 7 -10 23 -53 34 -96z m-81 27
c10 -24 25 -59 32 -78 7 -19 20 -53 30 -76 16 -35 17 -50 8 -120 -6 -43 -11
-93 -12 -111 -1 -36 -16 -34 -16 2 0 24 -10 52 -89 255 -38 97 -44 130 -23
130 10 0 65 -130 82 -195 7 -27 17 -54 21 -59 16 -18 -4 70 -38 171 -30 89
-35 123 -18 123 3 0 13 -19 23 -42z m5356 -35 c72 -65 209 -223 200 -232 -3
-3 -29 21 -57 54 -28 33 -90 99 -136 148 -47 48 -82 87 -78 87 3 0 35 -26 71
-57z m-5149 17 c4 -6 48 -38 98 -72 51 -34 115 -77 142 -96 87 -59 325 -168
480 -221 455 -154 992 -243 1480 -245 l210 -1 165 42 c253 63 399 95 413 90 6
-3 3 -6 -7 -6 -11 -1 -79 -19 -150 -40 -155 -47 -318 -85 -436 -102 -92 -13
-387 -8 -585 11 -428 40 -428 40 -860 151 -294 76 -521 177 -775 344 -144 95
-219 155 -192 155 6 0 14 -5 17 -10z m-290 -72 c10 -29 33 -90 51 -135 33 -80
65 -191 78 -263 l5 -35 -16 30 c-18 33 -141 385 -150 428 -9 48 15 29 32 -25z
m-41 -26 c19 -38 52 -131 102 -282 15 -47 35 -103 45 -124 16 -37 16 -66 -1
-66 -10 0 -62 131 -91 225 -11 39 -39 112 -61 162 -36 84 -43 123 -21 123 4 0
16 -17 27 -38z m366 -62 c0 -5 -16 -46 -102 -267 -22 -56 -43 -73 -32 -25 4
15 24 79 44 142 21 63 41 135 45 159 l7 44 19 -24 c10 -13 19 -26 19 -29z m30
-54 c0 -19 -14 -72 -31 -118 -17 -46 -42 -114 -55 -151 -14 -38 -23 -74 -21
-80 5 -13 12 4 46 103 64 187 88 245 102 245 28 0 19 -46 -30 -153 -28 -60
-51 -112 -51 -116 0 -17 -43 -106 -51 -106 -15 0 -45 35 -52 59 -3 14 5 46 22
84 23 50 79 198 96 255 9 25 25 11 25 -22z m3850 22 c0 -7 -23 -44 -50 -83
-65 -91 -96 -144 -105 -175 -3 -14 9 0 27 31 54 90 142 209 156 209 9 0 8 -7
-4 -25 -9 -14 -14 -28 -12 -31 3 -2 13 7 22 21 17 26 46 34 46 13 0 -7 -9 -28
-20 -46 -12 -19 -16 -31 -10 -27 5 3 10 3 10 -1 0 -7 -52 -90 -92 -147 -11
-16 -18 -30 -16 -32 5 -5 98 123 126 174 14 25 26 47 28 49 1 2 12 -2 24 -8
20 -11 20 -13 6 -33 -8 -12 -34 -53 -57 -91 -23 -37 -72 -101 -110 -141 -38
-40 -69 -76 -69 -81 0 -19 111 103 166 183 82 119 99 138 113 129 10 -6 9 -12
-2 -24 -8 -10 -26 -40 -40 -68 -14 -27 -47 -76 -72 -108 -26 -31 -45 -59 -42
-62 3 -3 18 12 33 33 16 21 41 53 56 71 16 18 39 55 53 82 14 28 32 50 40 50
17 0 20 -21 5 -36 -12 -12 -51 -114 -44 -114 3 0 13 19 23 43 28 62 47 85 61
71 19 -19 -50 -141 -159 -279 -63 -79 -91 -130 -90 -160 0 -12 6 -5 15 20 8
22 46 81 85 130 39 50 91 125 116 167 54 92 66 104 82 84 10 -12 10 -20 -1
-39 -18 -34 -83 -128 -105 -152 -10 -11 -24 -29 -32 -40 -22 -33 57 55 116
128 47 58 57 66 73 57 24 -13 25 -23 5 -40 -8 -7 -15 -16 -15 -21 0 -20 -74
-130 -128 -191 -33 -37 -64 -77 -67 -90 -9 -29 -113 -239 -127 -255 -14 -17
-22 -16 -49 6 l-23 19 55 63 c62 71 74 89 62 89 -5 0 -33 -31 -63 -70 -30 -38
-56 -70 -58 -70 -1 0 -14 7 -27 16 l-24 16 23 36 c26 43 56 106 56 119 0 4
-14 -17 -31 -47 -40 -71 -58 -90 -75 -83 -19 7 -18 27 2 43 21 18 68 100 61
106 -3 3 -14 -11 -25 -33 -25 -47 -67 -87 -82 -78 -7 4 -1 18 17 39 30 36 49
66 99 164 18 35 26 58 18 51 -9 -7 -31 -44 -50 -82 -39 -80 -89 -147 -110
-147 -18 0 -18 26 0 33 14 5 129 207 122 214 -2 3 -32 -43 -67 -101 -36 -60
-69 -106 -78 -106 -12 0 -12 3 -3 12 18 18 15 33 -4 18 -12 -11 -18 -10 -31 3
-16 16 -15 21 15 77 18 33 29 60 24 60 -5 0 -15 -13 -22 -29 -6 -16 -20 -37
-31 -47 -17 -15 -19 -15 -25 0 -4 10 5 31 22 54 20 27 22 32 6 18 -15 -13 -29
-16 -47 -12 -24 6 -26 10 -19 39 3 17 17 47 29 67 22 33 42 60 194 261 35 46
71 99 79 117 15 31 42 44 42 20z m-4199 -188 c23 -69 51 -145 63 -170 23 -46
23 -71 1 -103 -11 -15 -15 -9 -34 49 -12 37 -19 69 -16 72 3 3 5 -1 5 -8 0 -7
2 -11 5 -8 3 3 -1 23 -9 44 -9 22 -25 75 -36 119 -12 44 -30 104 -41 133 -10
29 -19 56 -19 60 2 21 45 -79 81 -188z m5520 173 c13 -16 12 -17 -3 -4 -10 7
-18 15 -18 17 0 8 8 3 21 -13z m79 -105 c0 -5 -10 3 -23 19 -42 52 -49 68 -13
29 20 -22 36 -43 36 -48z m-5151 16 c-5 -14 -14 -35 -20 -47 -9 -19 -7 -18 10
3 11 14 21 31 21 38 0 16 25 15 39 -2 14 -16 0 -85 -44 -221 -14 -44 -31 -110
-37 -147 -6 -38 -14 -68 -19 -68 -4 0 -15 14 -23 31 -18 37 -10 86 28 173 14
31 31 82 40 113 8 32 18 67 22 78 5 13 4 17 -3 10 -6 -5 -19 -39 -31 -75 -30
-97 -97 -253 -110 -258 -21 -7 -13 46 14 101 33 67 65 147 59 147 -2 0 -27
-48 -55 -107 -38 -82 -53 -104 -62 -95 -9 9 -7 21 9 49 11 21 34 72 51 113 66
163 92 212 107 200 10 -8 11 -18 4 -36z m107 -48 c3 -8 -2 -38 -11 -67 -20
-69 -39 -160 -56 -271 -13 -88 -24 -103 -49 -73 -16 20 -8 113 15 175 9 25 29
91 43 147 25 97 44 125 58 89z m60 -31 c4 -8 10 -12 16 -9 5 3 16 3 24 0 12
-5 12 -10 0 -43 -17 -45 -33 -141 -40 -238 -7 -93 -1 -76 24 80 21 122 40 185
58 185 5 0 16 -6 26 -13 17 -13 17 -15 -2 -58 -11 -24 -24 -57 -30 -74 -14
-41 -51 -231 -54 -279 -4 -50 -22 -57 -38 -14 -11 32 -12 33 -21 10 l-9 -24
-38 31 -39 30 13 113 c12 105 38 226 63 291 11 29 38 36 47 12z m3084 -14
c-24 -14 -170 -53 -182 -49 -7 3 31 16 83 30 101 28 123 32 99 19z m130 -89
c0 -23 -7 -59 -15 -79 -8 -19 -15 -50 -16 -67 0 -28 -1 -27 -14 14 -7 25 -16
59 -20 75 -4 17 -9 25 -11 20 -7 -17 33 -223 61 -314 29 -97 30 -114 10 -131
-12 -10 -16 -10 -19 1 -2 8 -14 52 -26 99 -13 47 -27 90 -32 95 -10 10 -7 -4
18 -106 20 -81 18 -112 -9 -137 -13 -12 -27 -19 -30 -15 -4 3 -7 1 -7 -5 0 -7
-4 -12 -9 -12 -4 0 -11 44 -14 98 -3 53 -11 111 -17 127 -8 26 -9 22 -5 -25
18 -188 18 -217 1 -223 -20 -8 -18 -15 -46 148 -13 72 -27 146 -31 165 -17 68
0 -81 22 -197 12 -62 19 -120 15 -128 -12 -32 -26 -13 -28 38 l-2 52 -3 -52
c-4 -54 -17 -69 -28 -33 -4 11 -12 66 -20 123 -12 93 -13 97 -14 42 0 -33 6
-91 14 -129 16 -74 14 -86 -14 -86 -12 0 -21 13 -29 38 l-11 37 5 -47 5 -48
-34 0 c-33 0 -35 2 -50 53 -9 28 -23 104 -32 167 -16 112 -25 148 -25 99 0
-21 28 -204 46 -301 6 -33 4 -38 -12 -38 -16 0 -25 18 -47 90 -16 49 -32 118
-37 152 -41 280 -42 300 -29 309 29 18 39 9 40 -33 1 -24 5 -54 9 -68 6 -16 7
2 3 47 l-5 71 31 17 c17 8 35 13 40 10 5 -2 11 2 15 10 9 24 45 18 50 -7 8
-39 36 -260 39 -313 3 -43 4 -41 5 15 1 36 -3 97 -8 135 -6 39 -13 102 -17
141 -5 66 -4 73 15 83 11 6 23 8 25 4 3 -5 8 -44 12 -89 4 -44 10 -96 15 -115
7 -32 8 -32 9 -6 1 16 -4 71 -11 123 -6 52 -9 97 -5 100 3 3 22 6 41 7 22 1
36 6 36 14 0 7 7 13 15 13 8 0 18 0 23 0 4 1 10 -14 13 -32 6 -32 6 -32 8 8 1
36 5 43 27 48 31 8 27 12 48 -44 l16 -45 -5 53 c-4 32 -2 52 5 52 5 0 10 -7
10 -15 0 -8 5 -15 11 -15 6 0 8 9 4 23 -7 22 -7 22 9 2 8 -11 16 -39 16 -63z
m27 1 c-3 -10 -5 -2 -5 17 0 19 2 27 5 18 2 -10 2 -26 0 -35z m-3128 -159
c-17 -98 -33 -198 -36 -222 -4 -33 -10 -42 -22 -40 -13 3 -15 15 -13 58 3 55
30 202 59 315 14 59 34 96 40 78 2 -5 -11 -90 -28 -189z m84 161 c0 -16 -11
-88 -22 -160 -12 -71 -27 -167 -33 -212 -12 -82 -23 -99 -47 -69 -9 10 -6 44
13 142 14 71 30 175 37 232 11 96 13 103 33 100 16 -2 21 -9 19 -33z m67 -34
c0 -36 -16 -126 -40 -226 -11 -44 -23 -111 -27 -150 -6 -52 -12 -70 -23 -70
-23 0 -16 140 15 288 14 67 25 134 25 149 0 14 3 33 6 42 10 26 44 1 44 -33z
m62 -26 c-2 -22 -9 -65 -17 -95 -13 -52 -39 -215 -48 -308 -5 -51 -11 -59 -32
-42 -21 17 -19 85 6 216 12 60 27 145 35 189 7 44 13 81 13 83 1 2 11 2 24 0
19 -3 22 -8 19 -43z m3658 27 c0 -5 -15 -38 -34 -73 -18 -35 -37 -75 -41 -89
-4 -14 -30 -59 -59 -100 -28 -41 -82 -136 -121 -210 -73 -140 -95 -163 -116
-117 -10 21 -8 30 9 54 12 16 45 83 75 148 30 65 70 136 90 159 40 45 106 132
149 196 26 37 48 52 48 32z m-3599 -14 c2 -19 3 -10 -25 -183 -14 -88 -29
-194 -33 -235 -6 -57 -12 -75 -23 -75 -25 0 -15 223 15 360 14 60 25 118 25
127 0 21 39 25 41 6z m56 -23 c3 -9 -2 -66 -10 -128 -15 -102 -34 -267 -40
-341 -3 -36 -22 -44 -37 -17 -15 28 10 299 41 449 10 52 33 70 46 37z m3583
-10 c10 -12 3 -30 -35 -97 -26 -46 -62 -103 -79 -128 -17 -25 -40 -58 -50 -75
l-19 -30 23 20 c12 11 58 71 102 132 78 110 98 134 98 114 0 -32 -86 -158
-230 -339 -28 -34 -66 -86 -84 -115 -43 -67 -63 -84 -79 -68 -9 9 -8 17 3 34
7 12 45 78 83 147 38 69 85 147 105 175 19 27 48 76 65 110 73 149 73 149 97
120z m-3521 -4 c13 -8 10 -44 -20 -255 -21 -156 -38 -246 -45 -246 -6 0 -17 7
-24 15 -11 13 -11 35 0 118 8 56 13 106 12 110 -2 5 4 45 13 89 8 44 15 102
15 129 0 51 14 62 49 40z m62 -27 c11 -13 10 -34 -4 -122 -18 -119 -31 -296
-17 -227 8 36 37 245 43 305 1 18 8 25 22 25 18 0 20 -6 17 -75 -2 -41 -10
-102 -18 -135 -8 -33 -17 -107 -20 -165 -8 -149 -17 -166 -40 -72 l-12 47 -1
-38 c-1 -42 -21 -57 -47 -36 -19 16 -13 116 17 309 11 69 22 142 25 163 6 40
14 46 35 21z m113 -37 c17 -12 17 -20 -5 -183 -12 -93 -24 -202 -26 -242 -4
-68 -6 -73 -26 -70 -21 3 -22 7 -19 98 2 52 10 131 17 175 18 106 24 152 25
198 0 40 6 44 34 24z m104 -32 c37 -15 42 -21 42 -50 0 -18 -9 -77 -20 -130
-10 -54 -22 -147 -26 -207 -7 -103 -8 -109 -28 -106 -15 2 -21 10 -21 28 0 14
-4 31 -8 38 -5 6 -5 12 0 12 4 0 9 24 10 54 1 30 8 87 17 127 22 111 31 219
17 219 -7 0 -11 -23 -11 -65 0 -36 -11 -117 -25 -181 -14 -64 -25 -138 -25
-165 0 -42 -3 -49 -19 -49 -29 0 -38 87 -17 160 16 58 22 99 31 220 8 94 14
122 29 117 6 -3 30 -13 54 -22z m1874 -11 c4 -16 15 -92 24 -169 8 -79 26
-175 40 -222 30 -96 29 -117 -8 -121 -22 -3 -28 2 -32 20 -3 13 -13 55 -22 93
-9 39 -22 108 -29 155 -11 71 -13 77 -14 38 -1 -25 10 -98 24 -162 31 -143 32
-166 5 -166 -15 0 -24 16 -44 79 -22 70 -47 179 -60 266 -3 17 -3 -4 0 -45 3
-62 27 -178 60 -287 5 -20 3 -23 -20 -23 -31 0 -35 8 -62 135 -10 50 -20 79
-21 65 -2 -14 5 -65 16 -115 10 -49 17 -93 14 -97 -7 -13 -60 -9 -71 5 -12 14
-42 156 -42 197 0 16 -4 32 -10 35 -14 9 -13 -6 10 -130 24 -132 24 -125 1
-125 -26 0 -28 4 -51 115 -11 54 -26 116 -34 139 -7 22 -17 68 -20 101 -4 33
-9 67 -12 76 -3 11 6 20 28 29 18 6 45 18 60 26 14 8 33 14 41 14 8 0 20 6 26
14 21 25 51 27 61 3 8 -20 9 -18 9 10 1 23 7 33 22 38 14 5 25 2 30 -6 7 -11
9 -11 9 2 0 18 39 50 54 45 6 -1 14 -16 18 -32z m-3132 -41 c0 -42 -3 -54 -11
-46 -11 11 -5 103 7 103 2 0 4 -26 4 -57z m1355 17 c4 -6 10 -8 15 -5 5 3 19
1 31 -6 21 -11 21 -15 15 -128 -3 -64 -9 -171 -13 -239 -6 -119 -7 -123 -27
-118 -12 3 -25 6 -30 6 -8 0 -5 111 10 340 4 52 4 92 0 89 -3 -3 -13 -93 -21
-200 -9 -107 -18 -200 -20 -206 -2 -7 -14 -13 -26 -13 -22 0 -22 1 -15 138 4
75 13 173 21 217 8 44 15 92 15 108 0 20 5 27 19 27 11 0 23 -5 26 -10z m3161
-79 c-20 -39 -36 -76 -36 -83 0 -7 -15 -38 -34 -69 -19 -31 -37 -66 -40 -77
-8 -25 -93 -169 -114 -195 -10 -11 -19 -14 -25 -8 -6 6 8 33 36 73 25 34 56
89 70 120 14 32 39 77 55 100 16 24 35 54 42 68 12 23 12 24 -3 11 -23 -19
-103 -140 -117 -177 -6 -16 -34 -64 -62 -106 -47 -72 -68 -93 -68 -68 0 6 -7
10 -15 10 -8 0 -15 4 -15 9 0 11 66 109 95 141 22 24 163 208 228 298 44 60
45 37 3 -47z m-3031 49 c3 -5 0 -115 -6 -245 -12 -213 -14 -235 -30 -235 -27
0 -33 53 -26 234 4 89 7 182 7 209 0 43 2 47 24 47 14 0 28 -4 31 -10z m2255
0 c0 -5 -5 -10 -11 -10 -5 0 -7 5 -4 10 3 6 8 10 11 10 2 0 4 -4 4 -10z
m-2206 -6 c19 -7 20 -53 9 -317 l-6 -167 -25 0 -25 0 6 229 c6 203 11 261 22
261 2 0 10 -3 19 -6z m3037 -36 c-16 -24 -38 -59 -50 -78 -11 -19 -21 -29 -21
-22 0 15 22 51 63 105 39 50 43 47 8 -5z m-2953 -221 c2 -206 0 -238 -13 -243
-8 -4 -22 -1 -31 6 -12 11 -14 41 -13 184 2 94 4 199 7 234 3 58 6 63 25 60
22 -3 22 -6 25 -241z m62 223 c12 -7 16 -44 21 -182 l5 -173 2 173 c2 158 3
172 20 172 10 0 24 -6 30 -12 11 -11 41 -17 92 -19 27 -1 80 -20 80 -29 0 -4
8 -6 18 -4 9 2 40 1 67 -4 49 -7 50 -8 56 -47 l6 -40 2 38 c1 40 14 47 47 23
14 -11 22 -12 33 -3 11 9 15 9 18 -1 3 -6 10 -9 16 -5 7 4 45 8 85 9 68 3 72
1 72 -19 1 -70 30 -326 39 -350 6 -16 11 -30 11 -32 0 -1 -15 -3 -34 -3 -34 0
-35 1 -41 52 -3 28 -10 80 -15 116 -8 58 -9 54 -5 -37 3 -56 8 -108 11 -117 5
-13 -1 -16 -29 -16 -43 0 -48 7 -58 79 l-8 56 3 -67 c2 -68 2 -68 -25 -68 -15
0 -39 4 -53 10 -17 6 -26 6 -26 0 0 -14 -33 -12 -53 3 -12 9 -20 45 -31 137
l-15 125 5 -108 c2 -59 7 -121 11 -137 5 -25 2 -30 -15 -30 -39 0 -52 42 -72
235 l-9 90 4 -110 c2 -60 7 -134 11 -162 6 -45 4 -53 -9 -53 -21 0 -29 15 -44
80 l-12 55 2 -63 c2 -52 -1 -62 -15 -62 -26 0 -32 18 -39 110 l-6 85 -1 -96
-2 -96 -25 5 c-22 4 -25 9 -25 48 0 24 -4 44 -10 44 -5 0 -10 -18 -10 -40 0
-27 -4 -40 -14 -40 -9 0 -16 20 -22 63 l-9 62 -3 -62 c-2 -35 -7 -63 -11 -63
-5 0 -23 3 -41 7 l-33 6 6 191 c4 105 7 212 7 239 0 48 9 57 40 37z m2049 -88
c27 -54 29 -60 13 -75 -15 -15 -17 -11 -33 51 -28 105 -23 110 20 24z m-964
11 c10 -64 33 -175 49 -238 8 -33 15 -77 16 -97 0 -21 5 -38 10 -38 6 0 10 -7
10 -15 0 -17 -47 -32 -60 -19 -5 5 -18 65 -29 134 -12 69 -28 157 -36 195 -22
103 -21 106 27 114 4 0 10 -16 13 -36z m-56 -60 c35 -183 60 -347 55 -354 -7
-12 -51 -11 -59 1 -12 20 -55 313 -55 377 0 38 2 43 23 43 21 0 25 -7 36 -67z
m-65 -55 c4 -62 14 -147 22 -188 20 -107 19 -122 -8 -118 -18 2 -26 14 -36 53
-16 63 -45 333 -38 351 3 8 16 14 29 14 24 0 24 -3 31 -112z m-64 -58 c10
-136 16 -182 34 -237 6 -20 4 -23 -19 -23 -19 0 -28 7 -36 27 -17 46 -49 252
-49 318 0 58 2 64 23 67 12 2 25 2 29 -1 4 -4 12 -71 18 -151z m-166 133 c3
-10 12 -88 21 -173 9 -85 23 -168 31 -184 18 -37 18 -36 -8 -36 -53 1 -63 28
-83 225 -19 190 -20 185 9 185 15 0 27 -7 30 -17z m85 -104 c7 -67 18 -156 26
-198 13 -77 9 -98 -19 -88 -23 9 -44 95 -61 247 -19 172 -20 160 14 160 l28 0
12 -121z m1427 -92 c100 -88 296 -243 319 -250 14 -5 -16 -89 -73 -211 l-47
-98 -97 193 c-78 156 -178 389 -178 414 0 14 22 0 76 -48z m458 -59 c-34 -58
-56 -89 -60 -85 -5 5 54 97 62 97 3 0 2 -6 -2 -12z m-4247 -630 c-3 -8 -6 -5
-6 6 -1 11 2 17 5 13 3 -3 4 -12 1 -19z"/>
<path d="M6190 8806 c0 -3 9 -10 20 -16 11 -6 20 -8 20 -6 0 3 -9 10 -20 16
-11 6 -20 8 -20 6z"/>
<path d="M7016 7786 c-9 -14 -59 -114 -112 -223 -160 -330 -188 -393 -174
-393 11 0 211 395 270 533 41 97 48 131 16 83z"/>
<path d="M4448 7380 c-156 -25 -335 -100 -444 -188 -136 -109 -263 -309 -318
-499 -85 -297 -67 -697 41 -923 28 -60 55 -94 132 -171 107 -107 191 -162 322
-211 76 -28 95 -31 199 -32 134 -1 168 8 334 90 230 115 385 239 484 386 128
192 179 351 189 598 11 269 -61 488 -226 688 -80 96 -253 203 -389 241 -86 24
-243 34 -324 21z m261 -75 c104 -25 258 -107 340 -182 172 -157 256 -344 268
-598 11 -246 -44 -464 -160 -635 -17 -25 -71 -86 -120 -137 -181 -187 -463
-333 -641 -333 -166 1 -354 90 -519 247 -91 87 -135 176 -173 353 -26 116 -26
395 -1 531 41 221 112 378 230 506 144 157 387 260 617 262 53 0 123 -6 159
-14z"/>
<path d="M4425 7266 c-108 -17 -250 -76 -367 -152 -79 -52 -107 -78 -158 -145
-66 -86 -104 -159 -98 -187 3 -13 11 -9 40 22 24 26 41 37 52 33 26 -10 18
-32 -19 -50 -23 -11 -35 -24 -35 -37 0 -31 26 -24 57 15 31 39 59 44 98 19 33
-22 32 -51 -6 -107 -38 -58 -46 -63 -54 -36 -5 13 -30 32 -70 50 -47 21 -64
34 -69 54 -11 43 -21 28 -39 -57 -53 -253 -57 -491 -12 -693 27 -118 57 -179
133 -265 84 -96 294 -216 420 -241 158 -30 342 29 556 179 199 140 304 277
366 475 45 148 53 213 48 376 -4 130 -8 156 -36 234 -59 171 -172 322 -303
407 -110 71 -275 121 -389 119 -19 -1 -71 -7 -115 -13z m203 -87 c4 -38 -22
-172 -34 -176 -6 -2 -26 19 -43 46 -52 80 -61 83 -61 18 0 -36 -5 -59 -15 -67
-13 -11 -15 0 -15 94 0 85 3 106 14 106 14 0 69 -53 99 -94 13 -17 15 -13 21
43 5 41 11 61 19 58 7 -2 13 -14 15 -28z m208 -49 c12 -8 26 -26 33 -39 26
-47 -45 -161 -100 -161 -22 0 -94 34 -103 49 -3 5 0 14 8 20 11 10 64 117 79
164 6 16 8 16 35 0 15 -10 37 -25 48 -33z m-547 4 c12 -9 38 -41 57 -70 19
-30 39 -54 44 -54 13 0 13 -27 -1 -35 -5 -4 -19 1 -29 10 -12 11 -31 15 -57
13 -35 -3 -39 -6 -47 -40 -5 -21 -14 -38 -20 -38 -8 0 -9 27 -4 88 3 48 7 99
7 115 1 31 16 34 50 11z m-189 -125 c6 -11 10 -32 8 -47 -3 -25 1 -27 45 -36
37 -6 47 -12 44 -25 -2 -9 -7 -15 -13 -14 -14 2 -87 5 -106 4 -25 -1 -22 -24
7 -51 24 -23 25 -40 2 -40 -13 0 -62 46 -101 96 -23 29 -24 32 -10 60 33 65
102 95 124 53z m960 -88 c0 -12 -3 -11 -17 1 -54 47 -103 45 -58 -2 32 -33 29
-72 -6 -91 -19 -9 -20 -9 -11 7 8 14 3 22 -25 41 -27 19 -38 21 -49 12 -20
-17 -17 -32 11 -59 23 -21 24 -25 9 -33 -12 -7 -25 -1 -53 28 l-36 36 84 79
85 78 33 -42 c18 -22 33 -47 33 -55z m-401 -28 c75 -37 177 -142 219 -225 54
-109 67 -183 54 -298 -13 -114 -37 -184 -91 -267 -119 -185 -325 -292 -508
-263 -167 26 -286 139 -348 330 -45 136 -6 370 82 503 142 211 409 310 592
220z m483 -127 c28 -59 14 -96 -46 -126 -62 -29 -99 -26 -130 11 -24 28 -44
76 -35 83 15 10 167 75 177 76 7 0 22 -20 34 -44z m-12 -398 c0 -42 -13 -63
-34 -55 -23 9 -25 65 -3 79 25 16 37 8 37 -24z m-1264 7 c10 -24 -5 -85 -21
-85 -21 0 -28 38 -15 71 14 32 27 37 36 14z m1104 -256 c0 -7 -7 -17 -15 -23
-8 -6 -18 -27 -22 -46 l-6 -35 41 38 c23 20 45 37 48 37 15 0 73 -42 78 -57
10 -25 -53 -113 -81 -113 -20 0 -16 20 13 62 15 21 24 44 20 53 -5 13 -14 10
-53 -20 -63 -48 -97 -46 -101 8 -3 29 3 47 23 73 25 33 55 45 55 23z m-1042
-45 c28 -8 59 -61 43 -77 -7 -7 -18 -3 -35 16 -16 18 -35 27 -54 27 -45 0 -47
-29 -7 -122 5 -14 2 -18 -14 -18 -24 0 -36 20 -46 77 -8 52 6 80 48 92 41 12
38 12 65 5z m904 -207 c36 -36 35 -49 -3 -109 -61 -94 -116 -111 -168 -53 -36
41 -37 54 -14 102 12 27 30 41 68 58 28 13 57 31 65 40 11 13 15 14 19 4 2 -8
17 -27 33 -42z m-747 8 c34 -33 33 -84 -1 -124 -29 -35 -59 -39 -105 -15 -55
28 -68 99 -28 143 29 31 102 29 134 -4z m167 -173 c14 -42 27 -69 27 -59 1 26
42 117 52 117 18 0 4 -107 -22 -172 -18 -45 -38 -33 -72 42 -17 39 -34 70 -39
70 -4 0 -13 -20 -19 -45 -12 -47 -18 -52 -36 -34 -12 12 -5 38 36 133 27 61
36 55 73 -52z m318 59 c0 -24 -20 -38 -30 -21 -4 7 -16 9 -28 6 -18 -6 -19
-11 -11 -39 14 -51 12 -147 -5 -147 -14 0 -26 60 -26 131 0 35 -2 38 -32 41
-49 4 -37 21 24 35 83 18 108 16 108 -6z"/>
<path d="M4746 7064 c-14 -31 -26 -62 -26 -69 0 -20 27 -37 49 -30 22 7 61 63
61 87 0 18 -37 68 -50 68 -5 0 -20 -25 -34 -56z"/>
<path d="M4267 7084 c-17 -17 -6 -42 21 -47 37 -7 40 -1 11 29 -14 13 -28 21
-32 18z"/>
<path d="M4038 6983 c-48 -55 -40 -90 12 -53 34 24 35 29 17 54 -12 16 -13 16
-29 -1z"/>
<path d="M4135 6637 c-4 -24 -5 -76 -3 -115 2 -57 0 -72 -14 -81 -15 -9 -20
-35 -31 -145 -2 -19 8 -20 355 -20 l358 -1 0 72 c0 39 -5 75 -10 78 -6 4 -137
6 -291 6 -169 -1 -288 3 -299 9 -18 10 -18 12 6 54 22 39 30 46 67 51 64 10
416 -1 471 -14 27 -6 50 -10 51 -9 2 2 6 38 10 81 l7 77 -336 0 -335 0 -6 -43z"/>
<path d="M4124 6176 c-15 -12 -19 -26 -18 -76 1 -33 3 -62 5 -64 2 -2 103 -7
224 -10 121 -4 252 -9 291 -12 69 -6 72 -5 93 21 23 31 48 102 38 111 -4 4
-130 10 -280 14 -167 5 -282 12 -295 19 -27 14 -34 14 -58 -3z"/>
<path d="M5020 6742 c-44 -22 -52 -57 -16 -73 49 -23 106 10 106 62 0 25 -4
29 -27 29 -16 0 -44 -8 -63 -18z"/>
<path d="M4779 5853 c16 -27 38 -53 44 -53 9 0 -4 32 -21 53 -8 9 -19 17 -24
17 -5 0 -4 -8 1 -17z"/>
<path d="M4697 5828 c-9 -7 -20 -25 -26 -39 -24 -65 55 -108 98 -53 25 32 26
52 5 82 -17 24 -51 29 -77 10z"/>
<path d="M3982 5858 c-32 -32 1 -98 49 -98 35 0 59 68 33 94 -18 19 -65 21
-82 4z"/>
<path d="M3924 6734 c-15 -23 -16 -27 -2 -41 19 -18 53 -4 61 26 11 43 -34 54
-59 15z"/>
<path d="M5109 5561 c-42 -43 -41 -99 3 -136 25 -21 38 -25 62 -21 78 16 110
113 53 162 -39 33 -81 31 -118 -5z m91 -31 c11 -11 20 -26 20 -33 0 -24 -31
-57 -54 -57 -45 0 -60 45 -30 88 19 27 38 28 64 2z"/>
<path d="M5147 5523 c-10 -10 -8 -61 2 -67 15 -9 39 4 44 23 8 34 -25 66 -46
44z"/>
<path d="M5611 8765 c12 -22 31 -50 42 -62 10 -12 16 -26 13 -31 -3 -5 4 -18
16 -28 20 -19 21 -19 13 6 -8 28 -41 80 -81 125 l-26 30 23 -40z"/>
<path d="M5636 8627 c3 -10 9 -15 12 -12 3 3 0 11 -7 18 -10 9 -11 8 -5 -6z"/>
<path d="M4131 8416 c-11 -13 -11 -20 -3 -28 8 -8 13 -7 18 5 10 27 0 41 -15
23z"/>
<path d="M7555 4639 c-204 -34 -280 -51 -398 -91 -135 -45 -296 -117 -316
-142 -19 -23 -7 -21 104 23 171 68 292 111 337 120 24 5 95 20 158 34 63 14
160 33 215 42 55 10 104 21 110 26 15 14 -90 8 -210 -12z"/>
<path d="M7806 4634 c15 -22 15 -27 3 -40 -17 -16 -208 -85 -290 -104 -56 -13
-283 -81 -355 -106 -37 -13 -110 -72 -100 -81 2 -2 21 7 41 21 21 15 56 31 79
37 296 75 594 176 637 215 25 22 24 60 0 74 -30 15 -33 12 -15 -16z"/>
<path d="M7460 4545 c-191 -42 -335 -83 -451 -130 -245 -100 -115 -80 173 26
43 16 84 29 91 29 18 0 328 87 335 94 10 11 -44 4 -148 -19z"/>
<path d="M7830 4057 c0 -8 371 -130 377 -124 10 10 -53 35 -197 77 -184 53
-180 52 -180 47z"/>
<path d="M7455 3862 c-40 -10 84 -22 239 -23 61 0 161 -4 221 -9 61 -4 114 -5
118 0 22 20 -507 49 -578 32z"/>
<path d="M7695 3660 c-10 -11 -15 -21 -12 -21 4 -1 11 -2 15 -3 4 0 26 -16 49
-33 22 -18 43 -30 47 -26 3 3 6 1 6 -5 0 -7 5 -12 11 -12 8 0 7 5 -1 15 -7 9
-15 13 -18 10 -11 -10 -62 49 -62 72 0 28 -11 29 -35 3z"/>
<path d="M6600 2872 c0 -13 184 -188 278 -264 95 -78 109 -76 25 3 -31 30
-102 97 -158 150 -95 92 -145 130 -145 111z"/>
<path d="M2630 5345 c0 -5 5 -17 10 -25 5 -8 10 -10 10 -5 0 6 -5 17 -10 25
-5 8 -10 11 -10 5z"/>
<path d="M2361 3804 c0 -11 3 -14 6 -6 3 7 2 16 -1 19 -3 4 -6 -2 -5 -13z"/>
<path d="M1956 2377 c3 -10 9 -15 12 -12 3 3 0 11 -7 18 -10 9 -11 8 -5 -6z"/>
<path d="M2180 2689 c-12 -16 -20 -32 -17 -35 2 -3 14 11 25 31 26 43 21 46
-8 4z"/>
<path d="M6414 2063 c-53 -72 -114 -172 -114 -188 0 -5 17 18 38 52 20 33 59
91 86 128 26 36 46 68 44 70 -2 3 -27 -25 -54 -62z"/>
<path d="M6238 1948 c-31 -41 -53 -82 -40 -74 11 6 75 106 68 106 -2 0 -15
-15 -28 -32z"/>
<path d="M6380 1928 c-53 -68 -58 -75 -40 -61 17 13 84 103 77 103 -2 0 -19
-19 -37 -42z"/>
<path d="M6260 1885 c-17 -37 -29 -70 -26 -73 3 -3 20 25 37 63 16 37 28 70
25 73 -3 3 -20 -25 -36 -63z"/>
<path d="M6705 1863 c-85 -101 -146 -185 -142 -196 2 -8 151 180 181 231 15
25 -1 11 -39 -35z"/>
<path d="M6450 1875 c-13 -14 -21 -27 -18 -30 2 -3 14 9 27 25 26 37 23 39 -9
5z"/>
<path d="M6286 1835 c-9 -26 -7 -32 5 -12 6 10 9 21 6 23 -2 3 -7 -2 -11 -11z"/>
<path d="M6327 1808 c-42 -52 -71 -108 -57 -108 5 0 10 4 10 8 0 4 20 38 44
75 24 37 43 67 41 67 -2 0 -19 -19 -38 -42z"/>
<path d="M6476 1780 c-39 -55 -46 -70 -18 -42 18 18 64 92 58 92 -2 0 -20 -23
-40 -50z"/>
<path d="M6579 1763 c-13 -16 -12 -17 4 -4 16 13 21 21 13 21 -2 0 -10 -8 -17
-17z"/>
<path d="M6454 1568 c-40 -65 -41 -66 -16 -38 25 27 56 80 47 80 -2 0 -17 -19
-31 -42z"/>
<path d="M2884 2034 c-3 -16 -20 -78 -35 -138 -16 -59 -32 -136 -34 -170 l-5
-61 20 80 c33 135 70 309 65 313 -2 2 -7 -9 -11 -24z"/>
<path d="M5906 1878 c4 -88 25 -220 32 -200 2 8 -3 59 -12 115 -9 56 -18 116
-20 132 -2 17 -2 -5 0 -47z"/>
<path d="M5976 1860 c4 -95 32 -223 33 -154 1 18 -6 67 -13 110 -8 44 -17 93
-20 109 -2 17 -3 -13 0 -65z"/>
<path d="M5700 1857 c0 -9 6 -63 14 -119 8 -57 20 -149 27 -206 7 -57 16 -105
20 -108 4 -2 6 10 3 28 -3 18 -16 118 -29 222 -13 103 -27 191 -30 194 -3 3
-5 -2 -5 -11z"/>
<path d="M5662 1780 c0 -14 2 -19 5 -12 2 6 2 18 0 25 -3 6 -5 1 -5 -13z"/>
<path d="M5631 1714 c0 -11 3 -14 6 -6 3 7 2 16 -1 19 -3 4 -6 -2 -5 -13z"/>
<path d="M5871 1504 c0 -11 3 -14 6 -6 3 7 2 16 -1 19 -3 4 -6 -2 -5 -13z"/>
<path d="M6713 1728 c-28 -30 -100 -158 -88 -158 2 0 16 23 30 51 15 28 45 71
67 95 22 24 36 44 31 44 -5 0 -23 -15 -40 -32z"/>
<path d="M5347 1632 c3 -41 9 -86 13 -100 13 -43 10 2 -5 93 l-14 80 6 -73z"/>
<path d="M5273 1635 c0 -33 2 -45 4 -27 2 18 2 45 0 60 -2 15 -4 0 -4 -33z"/>
<path d="M5421 1674 c0 -11 3 -14 6 -6 3 7 2 16 -1 19 -3 4 -6 -2 -5 -13z"/>
<path d="M5272 1530 c0 -19 2 -27 5 -17 2 9 2 25 0 35 -3 9 -5 1 -5 -18z"/>
<path d="M6733 1448 c-23 -30 -24 -41 -2 -21 12 12 20 25 17 28 -3 3 -10 0
-15 -7z"/>
<path d="M4192 1540 c0 -69 2 -133 6 -142 4 -10 6 35 4 100 -4 167 -9 188 -10
42z"/>
<path d="M4352 1595 c0 -16 2 -22 5 -12 2 9 2 23 0 30 -3 6 -5 -1 -5 -18z"/>
<path d="M4421 1574 c0 -11 3 -14 6 -6 3 7 2 16 -1 19 -3 4 -6 -2 -5 -13z"/>
<path d="M4432 1515 c0 -16 2 -22 5 -12 2 9 2 23 0 30 -3 6 -5 -1 -5 -18z"/>
<path d="M4492 1495 c0 -16 2 -22 5 -12 2 9 2 23 0 30 -3 6 -5 -1 -5 -18z"/>
<path d="M4271 1484 c0 -11 3 -14 6 -6 3 7 2 16 -1 19 -3 4 -6 -2 -5 -13z"/>
<path d="M4643 1395 c0 -33 2 -45 4 -27 2 18 2 45 0 60 -2 15 -4 0 -4 -33z"/>
<path d="M4572 1410 c0 -19 2 -27 5 -17 2 9 2 25 0 35 -3 9 -5 1 -5 -18z"/>
<path d="M6297 584 c-10 -11 3 -24 22 -24 10 0 24 7 31 15 11 13 8 15 -17 15
-16 0 -33 -3 -36 -6z"/>
</g>
</svg>
