<?xml version="1.0" standalone="no"?>
<!DOCTYPE svg PUBLIC "-//W3C//DTD SVG 20010904//EN"
 "http://www.w3.org/TR/2001/REC-SVG-20010904/DTD/svg10.dtd">
<svg version="1.0" xmlns="http://www.w3.org/2000/svg"
 width="1024.000000pt" height="1024.000000pt" viewBox="0 0 1024.000000 1024.000000"
 preserveAspectRatio="xMidYMid meet">

<g transform="translate(0.000000,1024.000000) scale(0.100000,-0.100000)"
fill="#000000" stroke="none">
<path d="M4901 8710 c-258 -54 -453 -219 -527 -447 -20 -59 -30 -331 -16 -416
9 -58 9 -58 -20 -73 -38 -19 -58 -68 -58 -138 0 -155 78 -316 160 -332 23 -5
32 -17 55 -72 15 -37 43 -89 63 -116 l35 -48 18 -237 c10 -130 15 -239 11
-242 -4 -3 -27 -13 -52 -22 -25 -9 -76 -41 -115 -70 -66 -51 -146 -96 -501
-285 -200 -106 -285 -162 -362 -236 -74 -71 -114 -136 -207 -336 -37 -80 -80
-173 -96 -207 -16 -34 -36 -81 -44 -104 -32 -90 -96 -389 -145 -674 -92 -533
-102 -581 -157 -745 -54 -158 -55 -215 -5 -425 22 -93 46 -206 52 -250 11 -79
11 -81 -26 -185 -58 -168 -56 -259 12 -393 l25 -49 -38 -44 c-64 -76 -92 -124
-103 -181 -18 -87 4 -151 85 -240 l46 -52 -12 -46 c-27 -106 11 -204 95 -243
39 -19 47 -28 56 -64 17 -66 67 -221 81 -250 6 -15 25 -32 40 -39 27 -11 29
-15 29 -66 0 -38 15 -100 50 -206 52 -159 72 -239 89 -348 15 -91 91 -690 98
-766 l6 -63 747 0 748 0 12 120 c17 162 25 161 70 -15 l26 -100 728 -3 728 -2
-7 67 c-4 38 -9 84 -11 103 -2 19 -8 85 -14 145 -25 296 -51 579 -60 656 -5
47 -10 148 -10 225 0 134 1 140 22 149 12 6 28 21 34 35 7 14 28 57 47 95 19
39 37 84 41 100 11 48 88 154 116 161 99 23 149 42 195 72 101 67 131 149 123
345 l-5 119 43 81 c128 242 161 320 197 472 64 266 79 373 78 550 0 157 -3
200 -36 480 -54 466 -217 1420 -272 1590 -23 73 -224 479 -273 552 -73 111
-200 208 -360 279 -118 52 -418 203 -494 249 -139 84 -234 125 -292 125 -43 0
-56 4 -69 23 -30 42 -45 122 -54 287 l-9 165 36 81 c27 63 41 83 63 91 15 6
38 26 51 46 12 19 35 50 50 68 56 72 86 247 54 323 -8 19 -28 42 -46 52 -24
15 -30 24 -25 39 13 41 17 235 6 316 -16 117 -45 198 -102 284 -82 122 -234
227 -394 271 -71 19 -242 27 -304 14z m319 -391 c124 -33 232 -105 270 -180
41 -80 80 -291 80 -436 0 -161 -52 -367 -125 -499 -127 -227 -430 -300 -668
-161 -66 39 -164 148 -197 219 -16 35 -40 105 -54 156 -61 227 -57 436 10 662
30 99 68 142 167 189 60 28 180 65 242 75 58 9 196 -3 275 -25z m533 -1829
c14 -11 30 -20 35 -20 5 0 15 -7 22 -15 17 -20 7 -19 -39 5 -43 22 -91 73 -91
98 0 10 8 5 23 -16 13 -17 35 -41 50 -52z m-3 -61 c38 -25 47 -35 39 -45 -8
-10 -27 0 -85 48 -41 33 -74 66 -74 73 0 27 15 23 42 -9 16 -19 51 -49 78 -67z
m26 73 c-4 -3 -14 2 -24 12 -16 18 -16 18 6 6 13 -6 21 -14 18 -18z m54 -23
c0 -14 -16 -11 -29 5 -10 12 -8 13 8 9 12 -3 21 -9 21 -14z m-1280 -3 c0 -3
-6 -11 -12 -18 -76 -79 -117 -132 -112 -140 4 -5 36 19 72 53 36 35 56 51 44
34 -33 -48 -99 -108 -111 -101 -6 4 -11 2 -11 -4 0 -6 -4 -8 -10 -5 -20 13 -8
36 58 109 59 66 82 86 82 72z m1065 -23 c14 -15 25 -31 25 -35 0 -3 12 -20 26
-37 23 -28 25 -51 5 -51 -9 0 -101 127 -101 140 0 18 19 11 45 -17z m-60 -39
c9 -15 37 -47 61 -71 37 -38 41 -48 31 -63 -6 -10 -15 -17 -19 -14 -9 6 -98
141 -105 161 -9 23 14 14 32 -13z m679 -143 c444 -221 430 -206 622 -629 43
-95 48 -84 -66 -148 -147 -82 -267 -170 -359 -264 -69 -69 -92 -88 -88 -70 4
14 15 66 26 115 102 468 105 485 86 531 -12 29 -19 34 -48 34 -53 0 -93 -54
-122 -167 -24 -92 -90 -519 -115 -738 -30 -274 -121 -736 -198 -1007 -17 -57
-36 -128 -43 -158 -34 -148 -174 -504 -314 -794 -99 -205 -106 -234 -64 -272
17 -15 25 -16 49 -7 51 19 169 99 375 253 110 82 203 150 208 150 22 0 -10
-211 -45 -292 -19 -45 -22 -47 -101 -73 -187 -61 -297 -128 -386 -235 l-30
-35 -129 3 c-136 3 -180 -6 -244 -50 -35 -24 -38 -76 -7 -104 18 -16 35 -19
113 -17 50 1 143 9 206 18 63 8 179 22 257 30 79 7 147 16 153 20 12 7 13 45
2 63 -5 7 -33 15 -62 19 l-54 6 74 18 c41 10 99 18 128 19 50 0 52 -1 52 -27
0 -46 -32 -196 -47 -219 -8 -12 -42 -36 -76 -54 -34 -19 -117 -67 -184 -107
-167 -101 -283 -154 -443 -201 -261 -78 -443 -102 -771 -102 -268 0 -403 15
-637 70 -200 48 -358 115 -411 175 -74 85 -108 213 -90 339 14 104 18 106 70
39 94 -121 192 -186 554 -366 196 -98 253 -122 320 -134 105 -20 253 -13 529
28 321 46 523 105 561 163 16 24 16 28 1 51 -18 27 -34 30 -136 26 -275 -11
-975 114 -1355 241 -167 56 -400 167 -451 214 -32 29 -34 36 -34 96 0 48 10
93 40 183 47 138 58 221 90 660 40 558 81 1873 64 2064 -7 79 -26 111 -64 111
-58 0 -75 -112 -67 -440 4 -140 3 -270 -1 -288 l-7 -32 -68 61 c-58 53 -155
163 -181 206 -10 17 32 126 98 258 31 61 70 145 86 188 51 132 115 214 220
284 55 37 225 133 420 238 80 43 153 85 163 93 9 8 19 13 20 11 2 -2 19 -25
37 -51 63 -90 142 -136 308 -179 40 -10 95 -21 122 -25 l48 -6 7 98 c8 118 12
134 31 134 13 0 14 -12 8 -72 -3 -40 -10 -92 -14 -115 -4 -23 -5 -45 -2 -48 3
-3 20 -5 38 -5 l33 0 3 118 c2 74 7 115 13 112 6 -3 9 -50 8 -117 l-2 -113 48
0 c77 0 113 10 105 29 -3 9 -9 60 -13 114 -5 86 -4 97 11 97 20 0 31 -56 30
-158 l-1 -74 37 8 c20 4 57 10 82 13 25 3 44 11 43 16 -1 6 -7 40 -14 77 -7
37 -16 65 -21 62 -4 -3 -8 13 -8 35 0 99 45 12 66 -127 5 -39 9 -43 28 -39 60
15 169 58 231 92 90 48 248 167 282 211 14 19 29 33 32 32 3 -2 154 -77 335
-167z m-514 99 c12 -16 18 -34 15 -40 -10 -17 -23 -11 -31 13 -3 12 -16 35
-27 51 l-20 28 21 -11 c11 -6 30 -24 42 -41z m-1120 27 c0 -2 -24 -40 -54 -84
-29 -44 -55 -86 -57 -92 -6 -18 -39 -2 -39 19 0 10 19 33 43 53 23 19 51 51
62 71 11 20 25 36 32 36 7 0 13 -2 13 -3z m890 -48 c0 -10 2 -26 5 -36 3 -10
-3 0 -14 22 -24 49 -27 79 -6 51 8 -11 15 -28 15 -37z m-40 -29 c11 -21 26
-58 34 -82 14 -38 14 -45 1 -58 -13 -13 -15 -12 -15 3 0 10 -13 50 -30 89 -31
72 -38 104 -20 93 6 -4 19 -24 30 -45z m-810 -32 c0 -69 -19 -148 -36 -148
-18 0 -18 6 7 96 12 43 18 87 15 102 -5 20 -4 23 4 12 5 -8 10 -36 10 -62z
m913 5 c34 -54 38 -73 17 -73 -9 0 -42 57 -60 105 -17 45 7 26 43 -32z m-859
-30 c9 -117 8 -155 -6 -151 -15 5 -24 228 -10 228 5 0 12 -34 16 -77z m-113
-6 c-28 -59 -61 -102 -61 -80 0 5 15 34 33 65 19 30 37 63 41 73 3 10 9 15 12
12 3 -3 -8 -34 -25 -70z m825 -62 c13 -49 6 -78 -13 -53 -13 16 -43 139 -42
170 1 29 35 -44 55 -117z m-675 30 c-9 -40 -9 -40 -10 21 -1 33 2 64 7 68 11
12 14 -45 3 -89z m74 18 c-4 -32 -10 -78 -14 -102 -9 -65 -35 -69 -28 -5 9 78
30 164 40 164 6 0 7 -22 2 -57z m410 15 c24 -61 32 -158 13 -158 -23 0 -39 47
-45 128 -7 83 6 95 32 30z m-171 10 c3 -13 8 -60 11 -105 6 -74 5 -83 -13 -92
-18 -10 -20 -7 -24 32 -9 111 11 238 26 165z m1953 -943 c13 -77 39 -232 59
-345 136 -779 204 -1272 204 -1489 l0 -114 -35 71 c-40 78 -93 132 -131 132
-14 0 -51 -18 -83 -39 -58 -40 -82 -52 -283 -150 -115 -57 -188 -111 -188
-142 0 -27 37 -47 116 -64 145 -31 348 -10 508 51 49 19 91 32 94 29 12 -12 0
-110 -17 -144 -26 -50 -92 -108 -155 -135 -55 -25 -257 -81 -426 -120 -145
-34 -214 -61 -230 -91 -12 -23 -11 -28 10 -50 13 -14 44 -37 69 -52 110 -63
331 -216 360 -248 40 -46 69 -103 77 -153 5 -34 3 -41 -21 -60 -48 -38 -94
-29 -348 67 -155 58 -207 52 -207 -24 0 -29 7 -37 70 -80 130 -88 263 -226
245 -255 -11 -18 -24 -11 -90 43 -78 65 -219 144 -334 188 l-84 32 7 71 c3 39
11 89 17 110 l11 39 107 -6 c72 -4 158 -17 260 -42 84 -20 161 -33 172 -30 10
4 24 16 30 27 15 27 -12 63 -72 99 -36 21 -222 103 -389 172 -53 22 -75 52
-74 102 1 65 30 104 119 162 143 93 160 107 163 135 4 33 -25 54 -105 75 -32
8 -64 19 -70 25 -19 15 -16 74 6 116 42 80 112 139 320 268 167 104 268 185
296 237 l20 37 -21 37 c-36 63 -77 77 -244 83 -158 5 -190 15 -190 58 0 35 29
140 50 181 10 20 25 65 35 101 9 36 30 97 46 135 78 193 179 607 179 739 0 58
-3 70 -25 91 -30 31 -56 32 -92 1 -41 -35 -86 -136 -224 -511 -66 -179 -174
-435 -184 -435 -2 0 -2 162 -1 359 l3 360 45 63 c94 131 232 245 441 365 72
41 121 63 137 61 24 -3 26 -8 47 -143z m-3622 -266 c44 -49 107 -119 140 -155
l60 -66 3 -105 c4 -101 -12 -306 -27 -346 -8 -22 -4 -30 -60 118 -56 148 -112
211 -165 187 -46 -21 -61 -66 -60 -182 2 -126 21 -216 104 -481 78 -248 80
-260 47 -293 -31 -31 -72 -33 -181 -10 -93 21 -123 14 -142 -32 -22 -53 7 -89
123 -154 233 -131 283 -163 283 -185 0 -32 -17 -42 -85 -50 -117 -14 -138 -58
-58 -122 75 -61 133 -115 133 -124 0 -18 -55 -71 -89 -85 -20 -9 -72 -24 -116
-35 -132 -33 -175 -54 -175 -89 0 -28 30 -47 145 -91 124 -47 156 -71 158
-119 2 -28 -3 -35 -36 -52 -21 -11 -75 -29 -120 -39 -140 -31 -237 -84 -237
-130 0 -10 12 -27 28 -39 26 -21 33 -22 162 -15 l135 7 -3 -76 -4 -77 -64 -29
c-68 -31 -82 -48 -154 -183 -19 -37 -38 -67 -42 -67 -16 0 -19 50 -5 97 8 27
29 77 46 111 35 69 38 97 15 123 -14 16 -19 16 -56 3 -22 -8 -56 -14 -74 -14
-90 0 -71 163 31 260 42 40 65 79 65 111 0 13 -19 54 -42 93 -39 64 -43 77
-43 136 0 53 6 79 35 140 33 72 35 80 34 180 -2 90 -9 131 -49 285 -43 165
-46 187 -42 265 4 64 15 110 42 185 50 137 79 262 119 520 20 121 47 281 61
355 14 74 36 186 48 248 11 61 24 112 27 111 3 0 41 -41 85 -90z m9 -2991 c14
-52 -2 -180 -17 -138 -3 8 -10 38 -16 65 -6 28 -13 60 -17 73 -5 19 -2 22 19
22 17 0 26 -7 31 -22z m2791 -5 c-6 -26 -53 -113 -61 -113 -1 0 8 29 21 65 14
36 25 68 25 70 0 3 5 5 11 5 7 0 9 -10 4 -27z m75 -4 c0 -6 -33 -74 -72 -152
-53 -102 -74 -136 -76 -119 -3 20 94 236 120 270 13 15 28 16 28 1z m-2950
-27 c0 -10 9 -52 20 -93 11 -41 19 -87 19 -104 -1 -57 -48 61 -50 125 -2 54
-2 54 -9 15 l-7 -40 -2 51 c0 28 2 54 6 57 12 13 23 7 23 -11z m3018 0 c9 -6
1 -28 -32 -86 -24 -42 -61 -115 -82 -162 -27 -59 -43 -84 -54 -81 -8 2 -14 10
-12 18 7 32 148 319 157 319 6 0 16 -4 23 -8z m-3074 -109 c10 -43 30 -113 44
-156 18 -56 22 -81 14 -89 -8 -8 -15 6 -27 48 -9 33 -28 92 -41 133 -24 72
-32 141 -16 141 4 0 16 -35 26 -77z m3143 61 c3 -9 -20 -67 -55 -138 -34 -67
-65 -136 -68 -154 -7 -33 -18 -39 -43 -23 -19 12 12 99 82 234 50 94 71 114
84 81z m-374 -40 c10 -19 17 -45 17 -57 0 -17 -8 -10 -30 28 -16 28 -30 55
-30 62 0 23 27 2 43 -33z m442 6 c8 -13 -9 -66 -50 -155 -18 -38 -45 -97 -59
-129 -24 -53 -28 -58 -41 -45 -14 13 -11 28 24 128 22 62 43 116 47 120 6 5
-1 -41 -12 -81 -3 -9 -1 -19 4 -22 10 -6 21 31 42 137 11 54 29 73 45 47z
m-476 -118 c42 -122 47 -142 33 -142 -8 0 -102 228 -102 248 0 7 6 12 14 12 8
0 29 -45 55 -118z m-2513 11 c-14 -33 -28 -83 -32 -111 -3 -29 -11 -52 -16
-52 -19 0 10 124 53 225 9 22 13 25 16 13 2 -9 -7 -43 -21 -75z m-196 -242 c0
-39 -24 15 -56 124 -54 185 -50 216 6 46 27 -85 50 -161 50 -170z m3249 306
c13 -16 -6 -69 -86 -236 -38 -78 -58 -110 -65 -103 -12 12 10 73 76 213 25 53
46 106 46 118 0 24 12 27 29 8z m-615 -112 c51 -127 53 -137 32 -155 -12 -9
-17 -5 -26 29 -6 23 -26 82 -46 131 -32 84 -36 110 -15 110 5 0 29 -52 55
-115z m-2354 74 c0 -22 -5 -32 -20 -36 -15 -4 -20 -14 -20 -43 0 -87 -13 -160
-28 -160 -12 0 -14 11 -8 63 9 84 31 163 45 160 6 -2 11 8 11 22 0 14 5 25 10
25 6 0 10 -14 10 -31z m2269 -85 c11 -45 29 -101 40 -125 20 -45 19 -64 -5
-55 -9 3 -14 -1 -15 -12 0 -9 -15 41 -33 111 -18 70 -38 133 -44 139 -8 8 -7
15 6 24 9 7 20 10 24 6 3 -4 16 -43 27 -88z m-2199 67 c0 -11 -5 -23 -11 -27
-8 -5 -10 -32 -7 -83 3 -42 2 -65 -2 -51 -5 14 -8 60 -9 103 -1 62 2 77 14 77
8 0 15 -9 15 -19z m2960 -51 c-7 -23 -17 -43 -22 -46 -4 -3 -5 3 -1 13 3 10 3
15 -1 11 -4 -3 -29 -63 -55 -132 -51 -135 -57 -147 -66 -124 -3 8 13 59 36
114 22 54 53 129 67 166 23 58 29 65 41 53 12 -12 12 -20 1 -55z m-850 -45
c13 -44 32 -97 42 -118 22 -43 20 -82 -2 -82 -8 0 -18 11 -22 25 -4 14 -18 63
-32 110 -35 116 -39 137 -31 150 11 18 19 2 45 -85z m-2076 -67 c-1 -12 -3
-49 -3 -80 -1 -32 -5 -58 -11 -58 -12 0 -13 127 -3 221 l7 64 7 -62 c3 -33 5
-72 3 -85z m76 38 c0 -106 -10 -206 -21 -206 -5 0 -9 33 -9 73 0 108 12 227
21 221 5 -3 9 -43 9 -88z m1912 58 c4 -16 14 -60 23 -99 8 -38 22 -87 30 -108
17 -42 13 -57 -14 -57 -13 0 -19 15 -29 71 -7 40 -19 86 -27 103 -26 58 -36
109 -22 118 19 12 31 4 39 -28z m-2074 -116 c-2 -46 -7 -73 -15 -76 -10 -3
-13 19 -13 86 0 50 3 98 7 108 12 31 24 -39 21 -118z m241 -19 c0 -48 -2 -101
-5 -118 -14 -66 -25 -21 -28 109 -2 76 0 115 4 90 l7 -45 3 55 c2 47 3 51 10
25 4 -16 8 -69 9 -116z m1772 4 c18 -76 35 -144 37 -150 2 -7 -5 -13 -16 -13
-16 0 -22 11 -32 68 -7 37 -19 84 -26 106 -15 43 -19 126 -6 126 5 0 24 -62
43 -137z m1022 60 c-28 -74 -43 -98 -43 -69 0 22 51 136 61 136 4 0 -4 -30
-18 -67z m-2741 -3 c0 -28 -3 -54 -6 -57 -3 -4 -6 22 -6 57 0 35 3 61 6 58 3
-3 5 -29 6 -58z m1616 5 c24 -87 46 -221 39 -240 -11 -28 -17 -14 -37 87 -10
51 -25 113 -34 138 -20 58 -20 72 1 68 10 -2 22 -22 31 -53z m-1571 23 c-3 -8
-6 -5 -6 6 -1 11 2 17 5 13 3 -3 4 -12 1 -19z m1485 -14 c4 -16 14 -72 22
-124 8 -52 18 -110 22 -129 11 -55 -18 -33 -32 25 -6 27 -23 94 -37 149 -20
75 -23 101 -14 107 19 12 31 4 39 -28z m-1416 -55 c9 -94 -3 -219 -22 -219 -9
0 -13 4 -10 8 3 5 6 73 7 151 1 148 13 176 25 60z m1352 -77 c37 -172 37 -172
17 -172 -8 0 -15 2 -15 5 0 2 -13 65 -30 138 -33 150 -36 177 -17 177 9 0 24
-49 45 -148z m-1280 80 c-4 -2 -6 -8 -3 -13 3 -5 9 -59 12 -120 5 -105 4 -111
-13 -107 -17 3 -19 15 -22 103 -2 55 0 120 3 144 6 42 7 43 19 20 7 -13 8 -26
4 -27z m1170 35 c11 -13 52 -278 45 -289 -11 -20 -23 -3 -33 50 -12 58 -46
204 -55 232 -6 19 29 24 43 7z m-1328 -118 c0 -92 -3 -120 -12 -116 -19 6 -11
237 8 237 2 0 4 -54 4 -121z m247 -38 c5 -126 4 -141 -11 -141 -14 0 -16 18
-16 152 0 111 3 149 11 141 7 -7 13 -69 16 -152z m996 152 c3 -5 15 -64 26
-133 12 -69 23 -135 26 -147 4 -18 1 -23 -15 -23 -14 0 -20 7 -20 24 0 13 -11
73 -25 134 -14 61 -25 120 -25 131 0 20 24 29 33 14z m-168 -40 c22 -51 32
-103 40 -200 6 -69 5 -83 -7 -83 -14 0 -48 139 -64 268 -8 63 8 70 31 15z m90
-10 c21 -58 46 -245 35 -257 -12 -13 -30 2 -30 26 0 11 -9 57 -19 102 -30 128
-35 176 -18 176 9 0 22 -20 32 -47z m-838 6 c-3 -11 -2 -19 1 -19 4 0 8 -54
10 -120 4 -118 3 -120 -19 -120 -21 0 -22 2 -15 77 3 42 6 107 6 145 0 47 3
67 11 62 6 -3 9 -15 6 -25z m69 -24 c2 -28 0 -44 -6 -40 -6 3 -10 27 -10 52 0
58 11 49 16 -12z m437 0 c5 -28 15 -80 23 -117 18 -87 19 -158 0 -158 -26 0
-35 27 -46 140 -5 63 -12 132 -15 153 -5 33 -3 38 12 35 13 -2 20 -17 26 -53z
m78 28 c6 -16 20 -86 31 -157 16 -105 18 -130 7 -137 -21 -13 -38 41 -55 179
-8 69 -17 129 -20 134 -3 4 2 8 11 8 8 0 20 -12 26 -27z m91 -26 c18 -55 44
-254 34 -264 -13 -13 -36 8 -36 34 0 15 -9 70 -20 122 -23 109 -26 161 -7 161
6 0 20 -24 29 -53z m-575 -106 c5 -122 4 -141 -9 -141 -19 0 -24 23 -26 110 0
47 1 58 8 40 6 -18 8 -1 9 59 2 128 12 90 18 -68z m61 86 c2 -31 6 -57 11 -57
4 0 8 -34 10 -76 1 -43 3 -81 4 -87 1 -5 -3 -12 -10 -14 -16 -6 -21 20 -28
147 -3 57 -8 115 -12 128 -4 18 -2 23 8 20 9 -3 15 -24 17 -61z m100 -53 c1
-73 7 -124 17 -148 18 -42 14 -56 -14 -49 -20 5 -19 0 -37 228 -5 74 -4 81 13
81 17 0 19 -11 21 -112z m82 58 c0 -47 9 -147 23 -242 1 -9 -7 -16 -19 -18
-20 -3 -21 3 -28 128 -4 73 -9 145 -13 161 -5 25 -2 29 16 29 19 0 21 -6 21
-58z m83 -9 c2 -38 9 -86 15 -108 6 -22 12 -62 13 -90 3 -45 1 -50 -18 -53
-24 -4 -26 7 -37 153 -3 39 -9 91 -12 118 -6 43 -5 47 14 47 18 0 21 -8 25
-67z m-1026 0 c-3 -10 -5 -2 -5 17 0 19 2 27 5 18 2 -10 2 -26 0 -35z m780
-15 c-3 -8 -6 -5 -6 6 -1 11 2 17 5 13 3 -3 4 -12 1 -19z m2131 -51 c-18 -61
-38 -88 -38 -53 0 17 50 130 55 124 2 -2 -5 -34 -17 -71z m-201 -61 c81 -74
87 -90 62 -170 -11 -36 -24 -66 -29 -66 -6 0 -10 5 -10 11 0 5 -31 58 -69 117
-37 59 -76 121 -85 137 -9 17 -23 40 -32 52 -16 22 -14 22 47 -5 34 -15 87
-49 116 -76z m-2333 -1251 c-4 -8 -8 -15 -10 -15 -2 0 -4 7 -4 15 0 8 4 15 10
15 5 0 7 -7 4 -15z"/>
<path d="M4282 5111 c2 -163 6 -295 11 -293 4 1 306 2 672 2 l665 0 0 296 0
295 -675 -2 -675 -2 2 -296z m1128 164 c9 -11 10 -40 6 -107 -9 -127 -34 -210
-48 -166 -3 9 -12 8 -31 -5 -68 -45 -157 1 -157 82 0 31 7 49 31 76 27 31 37
35 78 35 26 0 52 -5 59 -12 9 -9 12 2 12 50 0 54 2 62 19 62 10 0 24 -7 31
-15z m-835 -35 c25 -23 34 -60 15 -60 -17 0 -11 -39 10 -60 26 -26 25 -60 -1
-94 -30 -38 -64 -49 -129 -41 l-55 6 2 137 c1 75 2 139 3 141 0 2 29 1 65 -1
50 -3 70 -9 90 -28z m354 -75 c21 -21 26 -35 26 -81 0 -49 -3 -59 -26 -76 -14
-11 -45 -22 -68 -25 -36 -5 -46 -2 -71 22 -41 40 -55 86 -37 122 16 30 43 57
67 66 29 12 84 -2 109 -28z m-189 1 c0 -15 -11 -32 -27 -44 -24 -18 -29 -29
-33 -83 -3 -34 -10 -64 -17 -66 -21 -7 -34 61 -27 141 l7 76 48 0 c45 0 49 -2
49 -24z m406 3 c15 -17 19 -36 19 -100 0 -77 -1 -79 -24 -79 -23 0 -24 2 -18
54 7 71 -8 96 -48 78 -26 -12 -27 -15 -23 -72 4 -60 4 -60 -23 -60 -36 0 -42
21 -34 118 l7 77 62 3 c53 2 66 -1 82 -19z m364 -144 c0 -30 -3 -35 -24 -35
-34 0 -56 10 -56 25 0 21 29 45 56 45 21 0 24 -5 24 -35z"/>
<path d="M5246 5115 c-20 -31 -20 -38 2 -58 24 -22 65 -21 85 1 22 24 21 45
-1 65 -27 25 -67 21 -86 -8z"/>
<path d="M4483 5223 c-15 -6 -17 -59 -3 -68 16 -10 49 4 60 25 20 37 -12 62
-57 43z"/>
<path d="M4484 5115 c-3 -8 -7 -29 -8 -47 -1 -32 0 -33 39 -33 34 0 40 3 43
23 7 49 -58 99 -74 57z"/>
<path d="M4810 5121 c-25 -47 -6 -91 40 -91 33 0 50 17 50 50 0 51 -68 82 -90
41z"/>
<path d="M6985 6785 c-30 -30 -31 -54 -4 -89 15 -19 30 -26 55 -26 30 0 37 5
48 32 22 52 -8 108 -59 108 -9 0 -27 -11 -40 -25z"/>
<path d="M1815 1330 c3 -5 8 -10 11 -10 2 0 4 5 4 10 0 6 -5 10 -11 10 -5 0
-7 -4 -4 -10z"/>
</g>
</svg>
