<?xml version="1.0" standalone="no"?>
<!DOCTYPE svg PUBLIC "-//W3C//DTD SVG 20010904//EN"
 "http://www.w3.org/TR/2001/REC-SVG-20010904/DTD/svg10.dtd">
<svg version="1.0" xmlns="http://www.w3.org/2000/svg"
 width="1024.000000pt" height="1024.000000pt" viewBox="0 0 1024.000000 1024.000000"
 preserveAspectRatio="xMidYMid meet">

<g transform="translate(0.000000,1024.000000) scale(0.100000,-0.100000)"
fill="#000000" stroke="none">
<path d="M4858 10231 c-30 -4 -45 -10 -40 -17 4 -5 43 -37 87 -70 106 -79 349
-315 334 -324 -16 -10 7 -24 24 -14 12 8 -21 -36 -37 -47 -5 -4 1 -17 13 -30
11 -12 24 -19 28 -15 5 4 0 13 -10 20 -21 16 -22 30 -1 22 11 -4 15 -2 11 8
-3 8 0 17 7 19 8 3 13 -1 12 -10 0 -9 5 -18 13 -21 10 -3 11 0 5 9 -7 12 -5
12 9 0 16 -13 15 -16 -15 -38 -36 -26 -58 -51 -58 -67 0 -6 18 7 39 28 38 37
41 38 57 21 10 -9 18 -24 19 -34 0 -9 9 -31 18 -50 13 -26 13 -31 2 -21 -8 7
-15 19 -15 26 0 8 -5 14 -11 14 -6 0 -8 9 -4 20 7 23 -1 26 -19 7 -19 -18 -30
-57 -17 -57 6 0 11 5 11 10 0 6 5 10 10 10 6 0 8 -10 5 -23 -4 -15 -1 -28 9
-36 10 -8 16 -9 16 -3 0 6 -5 12 -11 14 -7 2 -10 11 -7 18 3 11 8 9 17 -8 8
-15 9 -28 3 -35 -5 -7 -6 -21 -2 -32 8 -23 2 -47 -10 -40 -5 3 5 -19 21 -47
30 -56 36 -78 18 -78 -17 0 -41 -28 -27 -32 6 -2 19 -31 29 -64 10 -32 31 -99
48 -147 17 -49 31 -93 31 -98 0 -5 -10 -9 -23 -9 -21 0 -27 13 -65 143 -23 78
-42 150 -42 160 0 14 -5 17 -22 11 -13 -3 -24 -8 -26 -9 -4 -3 26 -144 49
-227 23 -83 21 -108 -10 -108 -15 0 -22 9 -27 38 -3 20 -15 79 -25 131 -11 51
-19 108 -19 127 0 30 -3 34 -26 34 l-26 0 6 -87 c4 -49 11 -115 17 -148 13
-89 12 -105 -10 -105 -24 0 -30 30 -38 193 -3 70 -9 130 -13 132 -4 2 -16 1
-28 -2 -21 -5 -22 -11 -21 -107 0 -55 4 -126 8 -156 10 -67 6 -80 -25 -80
l-24 0 0 170 0 170 -25 0 -25 0 -2 -117 c-5 -253 -2 -235 -30 -231 -13 2 -22
8 -22 13 1 6 5 82 8 170 l7 160 -24 0 c-23 0 -24 -2 -36 -140 -6 -77 -11 -155
-11 -172 0 -29 -3 -33 -25 -33 -31 0 -31 11 -6 203 9 75 15 139 13 142 -3 3
-15 5 -28 5 -19 0 -23 -7 -26 -42 -3 -24 -13 -100 -23 -170 -17 -123 -19 -128
-42 -128 -28 0 -29 13 -8 102 8 35 20 102 28 151 13 83 13 87 -5 87 -10 0 -21
1 -25 3 -5 1 -11 -18 -14 -43 -3 -25 -17 -98 -30 -162 -24 -116 -24 -118 -51
-118 -33 0 -36 21 -12 78 9 20 28 85 43 145 21 79 25 107 15 107 -7 0 -19 3
-28 6 -12 5 -16 0 -16 -17 0 -13 -19 -88 -42 -166 -34 -118 -45 -143 -60 -143
-32 0 -31 27 2 118 17 48 41 114 53 147 11 33 25 63 30 66 5 4 -5 8 -21 11
-30 4 -31 3 -62 -81 -17 -47 -41 -119 -53 -158 -19 -63 -25 -73 -44 -73 -33 0
-30 29 13 130 20 47 46 109 57 137 13 30 29 53 37 53 8 1 -7 9 -33 20 -58 22
-146 87 -181 133 -29 38 -72 129 -80 172 -5 24 3 46 44 115 27 47 50 89 50 94
0 5 -23 6 -52 3 -37 -5 -60 -14 -82 -35 -17 -15 -42 -33 -56 -39 -42 -17 -131
-93 -124 -105 4 -6 1 -9 -7 -6 -24 9 -88 -30 -86 -52 2 -25 0 -25 45 4 40 25
178 96 187 96 3 0 5 -4 5 -9 0 -10 -69 -55 -150 -97 -65 -34 -110 -65 -110
-76 0 -10 36 6 158 75 112 62 112 62 112 47 0 -5 -52 -44 -116 -86 -63 -42
-125 -90 -137 -106 -12 -16 -25 -24 -30 -19 -5 5 -12 42 -16 82 l-7 74 -12
-53 c-7 -29 -12 -79 -12 -111 0 -62 -19 -91 -70 -106 -14 -4 -81 -31 -150 -60
-69 -28 -170 -69 -225 -90 -135 -51 -368 -170 -403 -204 -39 -39 -49 -83 -61
-251 -14 -197 -29 -1472 -36 -3065 -5 -1187 -14 -1692 -31 -1810 -3 -22 -15
-70 -26 -107 -12 -41 -17 -76 -12 -90 4 -13 39 -70 78 -128 119 -175 157 -300
137 -461 -15 -115 -14 -189 2 -189 6 0 44 21 82 48 400 270 513 333 725 407
159 56 161 57 400 193 204 117 415 271 562 411 247 234 598 662 816 996 61 94
122 186 136 206 13 20 43 47 67 60 54 30 79 74 137 239 106 300 266 799 305
950 8 30 29 105 46 165 78 271 91 319 126 470 20 88 51 214 67 280 17 66 41
170 53 230 13 61 37 164 53 230 17 66 34 143 37 170 4 28 22 111 40 185 19 74
52 232 75 350 23 118 55 279 71 357 16 78 33 183 39 234 6 51 13 95 16 98 9 9
44 -39 79 -110 18 -36 40 -71 49 -78 19 -16 39 -6 107 54 48 44 106 75 137 75
9 0 -10 -26 -45 -63 -83 -86 -118 -160 -158 -335 -31 -139 -92 -457 -136 -712
-11 -63 -30 -169 -44 -235 -13 -66 -33 -192 -45 -280 -53 -390 -184 -1103
-279 -1525 -22 -96 -50 -219 -61 -272 -12 -53 -39 -155 -61 -225 -21 -70 -51
-171 -65 -223 -104 -384 -214 -622 -412 -887 -257 -344 -467 -560 -802 -824
-70 -55 -296 -212 -385 -267 -260 -160 -648 -335 -1045 -470 -157 -53 -170
-56 -265 -55 -181 0 -340 39 -600 148 -82 35 -167 66 -188 70 -48 9 -67 28
-67 68 0 38 49 127 85 155 25 20 26 20 98 1 79 -20 177 -25 177 -9 0 36 -69
128 -200 265 -105 111 -147 165 -154 201 -8 37 10 1105 24 1409 5 116 16 332
24 480 8 149 20 392 26 540 5 149 15 369 20 490 5 121 15 344 20 495 20 548
42 1030 69 1505 5 83 6 167 4 188 -5 35 -7 37 -43 37 -31 0 -44 -7 -72 -38
-43 -47 -91 -132 -112 -197 -8 -27 -24 -106 -35 -175 -36 -227 -44 -423 -38
-907 4 -274 3 -455 -3 -458 -25 -15 -140 76 -194 155 l-18 25 7 -35 c4 -19 17
-58 30 -86 21 -47 37 -64 150 -157 l30 -25 5 -169 c3 -92 2 -202 -2 -243 -12
-138 -8 -314 11 -462 18 -139 18 -228 0 -228 -23 0 -49 53 -96 197 -29 87 -68
226 -87 308 -66 283 -115 715 -101 900 3 50 2 111 -3 138 -11 53 -1 68 22 35
23 -32 20 -1 -3 36 l-20 31 49 250 c27 138 63 311 79 385 17 74 40 194 51 265
34 206 34 208 21 204 -11 -4 -128 -242 -186 -379 -145 -343 -226 -524 -242
-542 -8 -9 -12 -21 -9 -26 6 -10 140 -113 174 -133 22 -14 29 -34 14 -43 -4
-2 -41 9 -81 25 -111 45 -127 33 -160 -122 -53 -250 -53 -855 1 -1564 7 -93
13 -255 13 -360 0 -188 0 -191 -28 -247 -22 -45 -58 -85 -175 -194 -81 -75
-167 -157 -191 -183 -46 -48 -96 -142 -88 -164 10 -25 196 -71 307 -75 92 -3
122 0 239 28 149 35 174 34 254 -6 145 -74 237 -182 241 -282 1 -41 -2 -47
-31 -64 -17 -10 -104 -35 -194 -54 -90 -19 -169 -40 -176 -46 -7 -6 -13 -24
-13 -40 0 -36 15 -43 205 -93 201 -52 205 -54 205 -76 0 -42 -93 -49 -295 -24
-218 27 -251 20 -315 -72 -82 -115 -164 -249 -196 -318 -80 -173 -140 -456
-100 -471 22 -8 48 10 179 128 151 136 330 279 416 332 81 49 263 121 286 112
25 -9 17 -44 -17 -69 -18 -13 -87 -55 -153 -92 -208 -118 -340 -219 -328 -251
17 -45 233 -23 465 47 90 28 104 24 78 -18 -31 -51 -106 -86 -328 -152 -114
-35 -228 -71 -254 -81 -63 -25 -163 -97 -221 -159 -52 -56 -52 -61 -2 -146 56
-96 131 -142 275 -170 47 -10 90 -21 96 -26 6 -5 19 -35 29 -67 9 -31 35 -112
56 -179 21 -67 39 -139 39 -161 0 -42 39 -129 70 -157 20 -18 20 -17 19 68 -1
108 13 135 100 196 68 48 79 46 83 -14 3 -56 0 -72 -50 -206 -91 -243 -97
-310 -48 -514 55 -227 132 -707 146 -912 4 -68 19 -206 31 -308 l23 -185 1191
0 c726 0 1196 4 1205 10 13 8 13 13 -3 40 -18 30 -64 230 -93 405 -9 50 -29
158 -45 240 -34 172 -66 406 -75 549 -8 117 -2 126 81 126 84 0 81 9 105 -289
11 -145 25 -372 31 -505 5 -133 11 -248 14 -256 5 -20 17 -148 20 -230 2 -36
4 -71 4 -77 1 -10 51 -13 217 -13 200 0 215 1 210 18 -2 9 -7 37 -11 62 -3 25
-17 106 -31 180 -80 445 -138 847 -150 1052 -8 123 -9 122 81 123 l50 0 7 -80
c18 -194 49 -536 53 -595 9 -112 35 -401 46 -500 6 -52 14 -131 17 -175 l7
-80 928 -3 c895 -2 927 -1 927 16 0 10 -6 88 -14 173 -8 85 -18 195 -21 244
-8 116 -32 323 -50 447 -8 54 -15 134 -15 178 0 56 -6 96 -20 132 -24 63 -25
84 -6 146 8 26 29 114 46 195 50 232 44 218 92 215 41 -3 42 -2 60 42 9 25 49
124 87 220 85 217 152 359 178 383 14 12 62 25 144 38 240 39 363 137 448 358
50 130 50 126 -6 155 -52 27 -99 64 -91 71 2 2 21 -7 41 -20 20 -14 41 -25 46
-25 17 0 13 51 -19 222 -20 104 -28 174 -24 197 14 70 93 240 179 381 127 208
190 334 215 425 62 224 24 719 -130 1726 -41 262 -124 773 -160 979 -89 510
-150 907 -150 978 0 38 -6 66 -17 82 -24 34 -65 122 -123 260 -112 270 -336
730 -421 865 -80 128 -232 243 -439 332 -52 23 -219 83 -370 134 -345 115
-425 144 -476 174 -22 13 -75 38 -118 54 -42 17 -102 44 -134 60 -86 43 -125
52 -188 40 -49 -9 -59 -8 -92 12 -53 31 -140 118 -162 160 -11 20 -24 66 -30
103 l-12 66 -392 -2 c-215 0 -412 -4 -438 -7z m-643 -470 c-19 -17 -127 -73
-132 -68 -4 5 29 26 102 65 25 14 43 16 30 3z m1175 -116 c0 -8 -2 -15 -4 -15
-2 0 -6 7 -10 15 -3 8 -1 15 4 15 6 0 10 -7 10 -15z m724 -44 c96 -45 135 -71
104 -71 -7 0 -60 27 -118 60 -58 33 -101 60 -97 60 4 0 54 -22 111 -49z
m-1854 17 c0 -12 -142 -113 -180 -129 -8 -4 -36 -25 -61 -48 -46 -40 -59 -43
-59 -10 0 19 54 69 74 69 7 0 23 10 36 23 28 26 159 105 178 106 6 1 12 -5 12
-11z m1901 -156 c-13 -4 -85 36 -156 88 -100 74 -76 70 44 -6 68 -43 118 -80
112 -82z m-166 23 c106 -79 110 -83 102 -91 -13 -13 -56 18 -140 99 -84 80
-80 80 38 -8z m-1742 51 c-15 -13 -63 -47 -106 -76 -72 -48 -110 -91 -94 -106
4 -4 32 15 63 42 91 79 175 137 184 128 5 -5 -42 -56 -110 -118 -108 -97 -134
-126 -113 -126 10 0 143 118 185 164 20 23 37 37 38 33 0 -12 -74 -117 -116
-162 -83 -90 -86 -127 -4 -41 29 31 75 86 102 123 54 74 65 83 74 59 6 -17
-34 -80 -109 -171 -27 -33 -54 -70 -60 -82 -6 -13 -16 -23 -23 -23 -19 0 -136
121 -161 167 l-23 40 42 34 c46 37 225 138 246 139 8 0 1 -11 -15 -24z m1632
-67 c33 -33 81 -76 108 -96 51 -38 59 -53 27 -53 -20 0 -192 156 -211 192 -21
38 18 17 76 -43z m-36 -90 c55 -61 101 -117 101 -125 0 -33 -34 -7 -130 101
-89 101 -110 135 -81 135 5 0 54 -50 110 -111z m-149 52 c0 -5 36 -58 80 -117
63 -84 78 -110 69 -120 -6 -8 -15 -14 -18 -14 -4 0 -34 39 -67 87 -32 47 -71
102 -86 121 -34 43 -35 52 -3 52 14 0 25 -4 25 -9z m-1285 -21 c4 -6 -3 -23
-15 -38 -12 -15 -48 -65 -80 -112 -33 -47 -66 -95 -75 -107 -16 -23 -39 -22
-49 3 -3 7 8 28 25 46 17 18 62 75 101 126 71 92 81 101 93 82z m1274 -130
c72 -116 86 -154 54 -148 -13 2 -137 192 -160 247 -6 14 18 35 28 23 4 -4 39
-59 78 -122z m-1215 92 c3 -5 -13 -35 -36 -68 -22 -32 -57 -94 -79 -136 -21
-42 -42 -79 -47 -82 -5 -3 -18 1 -28 8 -18 14 -18 15 5 58 13 23 50 78 83 120
32 43 61 84 64 93 7 16 30 20 38 7z m1131 -133 c36 -72 65 -137 65 -144 0 -18
-34 -29 -39 -14 -2 7 -34 73 -71 146 -64 126 -67 140 -32 142 7 1 42 -58 77
-130z m-1065 101 c0 -6 -24 -59 -54 -118 -29 -59 -59 -124 -65 -144 -13 -39
-36 -49 -59 -26 -12 12 14 65 111 231 35 59 67 87 67 57z m966 -120 c65 -154
72 -180 50 -180 -9 0 -19 0 -22 0 -4 -1 -17 30 -30 67 -13 37 -38 100 -55 139
-30 68 -33 110 -8 102 6 -2 35 -60 65 -128z m2115 -526 c13 -136 -11 -377 -71
-724 -47 -269 -64 -320 -135 -409 -25 -31 -68 -87 -96 -126 -28 -38 -52 -71
-54 -73 -1 -1 1 14 6 35 5 21 20 101 35 178 14 77 53 246 86 375 33 129 72
280 85 335 14 55 38 148 54 206 24 87 59 273 59 314 0 5 5 4 11 -2 5 -5 15
-55 20 -109z m330 -259 c7 -27 36 -115 64 -195 59 -161 72 -210 57 -210 -21 0
-133 337 -147 440 -9 59 9 35 26 -35z m-2890 -221 c167 -29 311 -91 469 -204
222 -158 361 -368 431 -650 19 -79 23 -121 23 -250 0 -161 -7 -215 -51 -360
-76 -256 -270 -499 -515 -647 -89 -54 -268 -119 -375 -138 -289 -50 -586 23
-833 205 -255 189 -408 442 -459 760 -18 110 -13 300 10 413 66 328 287 611
596 766 220 110 463 146 704 105z m3059 -224 c0 -12 -16 -29 -47 -46 -63 -36
-95 -61 -303 -235 -161 -134 -250 -223 -324 -322 -19 -25 -23 -35 -12 -31 13
5 16 -1 16 -32 0 -50 -40 -197 -80 -299 -18 -44 -56 -143 -85 -220 -29 -77
-63 -160 -75 -185 l-21 -45 5 135 c9 220 31 356 72 445 34 74 40 113 16 108
-7 -2 -12 9 -12 28 0 54 153 208 430 433 47 38 119 99 160 136 146 129 260
186 260 130z m-14 -287 c3 -54 -3 -166 -16 -288 -12 -110 -28 -263 -35 -340
-25 -239 -107 -748 -148 -915 -15 -58 -40 -166 -57 -240 -50 -218 -138 -517
-187 -633 -65 -157 -274 -537 -385 -700 -56 -82 -110 -200 -116 -252 -4 -39
-1 -48 25 -74 16 -16 50 -35 74 -41 51 -14 213 -14 438 0 252 15 393 47 585
132 50 22 132 55 181 73 50 18 102 38 118 44 22 8 27 8 27 -4 0 -28 -100 -134
-173 -183 -121 -80 -211 -110 -606 -196 -102 -23 -138 -38 -358 -147 -242
-122 -293 -156 -293 -199 0 -22 108 -91 321 -205 168 -90 200 -113 240 -168
39 -53 53 -105 45 -160 -9 -60 -40 -89 -132 -123 -63 -23 -92 -27 -192 -29
-64 -1 -157 -5 -207 -9 -63 -5 -111 -3 -160 7 -38 7 -76 12 -82 10 -19 -7 -16
-48 5 -66 38 -34 142 -67 240 -77 53 -5 124 -18 156 -30 127 -44 320 -164 359
-224 26 -38 21 -40 -20 -9 -82 64 -277 167 -379 202 -33 10 -97 23 -144 27
-89 7 -243 47 -325 83 l-48 21 6 61 c6 67 43 152 82 189 l26 24 47 -18 c94
-36 148 -46 247 -46 111 0 170 12 296 62 66 26 84 37 84 53 0 36 -92 82 -353
175 -155 56 -204 86 -226 141 -23 57 -20 97 14 156 32 55 74 94 188 168 67 45
88 74 63 89 -5 3 -41 10 -81 16 -41 6 -88 19 -106 31 -46 28 -78 98 -82 183
-7 120 14 188 143 451 99 201 169 380 211 539 20 72 46 172 59 221 14 50 35
133 48 185 13 52 36 145 52 205 15 61 60 218 101 350 115 378 132 434 153 525
11 47 29 112 41 145 12 33 30 103 41 155 23 114 78 324 124 477 19 61 39 148
46 192 7 45 14 79 17 77 2 -3 6 -44 8 -93z m-2236 -2072 l0 -58 -172 -8 c-95
-4 -554 -5 -1020 -4 l-848 3 0 63 0 63 1020 0 1020 0 0 -59z m0 -271 l0 -60
-1009 0 c-555 0 -1016 -3 -1025 -6 -14 -5 -16 4 -16 60 l0 66 1025 0 1025 0 0
-60z m944 -1682 c-75 -99 -169 -212 -294 -353 -64 -71 -151 -172 -195 -224
-202 -240 -376 -397 -463 -420 -127 -34 -526 -104 -737 -131 -88 -11 -185 -24
-215 -29 -115 -20 -179 -21 -302 -7 -70 8 -134 19 -143 24 -26 14 102 66 314
127 321 92 672 251 1111 503 91 52 197 113 235 135 181 103 371 217 480 287
222 143 249 159 253 155 2 -2 -17 -32 -44 -67z m-4255 -998 c34 -74 70 -152
81 -172 11 -20 20 -50 20 -65 0 -20 -27 25 -90 150 -57 112 -90 189 -90 209 0
46 10 31 79 -122z m70 24 c28 -61 51 -121 51 -135 0 -23 0 -23 -13 -4 -24 36
-95 199 -102 235 -11 55 7 27 64 -96z m-205 46 c9 -68 38 -161 97 -308 53
-134 55 -142 36 -142 -19 0 -78 126 -120 256 -41 128 -52 182 -43 219 10 40
23 29 30 -25z m69 -76 c23 -54 67 -141 96 -193 35 -62 49 -97 43 -103 -17 -17
-31 0 -87 113 -54 107 -105 241 -105 275 0 26 6 16 53 -92z m-138 53 c4 -17
38 -126 76 -241 54 -162 67 -211 57 -218 -23 -14 -26 -9 -38 47 -6 30 -34 124
-61 208 -51 152 -71 232 -61 241 10 10 21 -5 27 -37z m4650 -59 c-20 -51 -41
-104 -46 -117 -5 -13 -12 -22 -14 -19 -3 2 9 40 25 84 42 110 62 155 68 150 2
-3 -12 -47 -33 -98z m25 -125 c-83 -207 -130 -306 -147 -311 -24 -7 -13 59 22
133 19 41 46 102 59 137 31 82 103 237 119 256 10 13 12 12 15 -11 2 -15 -26
-100 -68 -204z m146 183 c3 -7 -6 -40 -19 -72 -32 -76 -57 -173 -56 -215 l1
-34 13 30 c8 17 14 38 15 48 0 21 68 197 82 215 6 6 19 12 29 12 14 0 19 -7
19 -29 0 -16 -6 -34 -14 -40 -8 -6 -33 -70 -57 -142 -27 -83 -45 -125 -51
-117 -5 9 -8 5 -8 -12 0 -14 -12 -52 -26 -85 -15 -33 -33 -79 -41 -103 -14
-37 -19 -43 -42 -40 -32 4 -32 8 14 127 21 53 39 120 41 150 4 51 -1 41 -48
-98 -29 -85 -59 -156 -66 -159 -7 -2 -24 4 -38 13 -23 15 -24 18 -11 33 23 27
62 110 95 203 17 47 54 140 83 207 49 114 72 143 85 108z m-4867 -44 c10 -21
27 -64 36 -97 9 -33 30 -98 46 -145 50 -148 56 -220 18 -220 -12 0 -70 116
-114 231 -48 121 -65 177 -65 214 0 51 23 11 65 -110 70 -203 97 -276 102
-272 10 10 -58 240 -103 349 -13 32 -24 64 -24 73 0 27 19 16 39 -23z m515 13
c10 -41 -9 -93 -110 -300 -53 -107 -94 -202 -92 -212 2 -10 15 12 33 52 16 39
64 143 107 233 43 90 78 171 78 182 0 10 5 22 11 26 8 4 9 -1 5 -17 -3 -13 -3
-18 0 -11 3 6 13 12 21 12 12 0 14 -7 9 -27 -3 -16 -8 -53 -11 -83 -4 -55 -4
-55 5 -11 10 48 35 91 51 91 13 0 13 1 -30 -159 -17 -62 -31 -116 -31 -120 1
-18 24 40 45 112 31 114 42 137 61 137 11 0 15 -6 11 -17 -32 -99 -72 -206
-92 -243 -13 -25 -31 -68 -40 -95 -9 -28 -23 -70 -31 -95 -23 -70 2 -33 36 55
17 44 42 103 54 130 13 28 36 87 51 132 29 85 47 101 39 35 -3 -27 0 -23 10
16 15 61 23 72 32 47 9 -23 -26 -127 -41 -122 -6 3 -23 -30 -40 -74 -16 -44
-32 -79 -36 -79 -4 0 -17 -26 -29 -57 -12 -32 -25 -62 -29 -68 -4 -5 -18 -39
-31 -75 -13 -36 -24 -67 -26 -68 -5 -8 -94 51 -94 61 0 7 14 57 30 112 30 102
38 145 21 115 -5 -8 -21 -58 -36 -110 -15 -52 -31 -99 -35 -103 -11 -12 -50
14 -50 33 0 8 12 28 26 43 14 15 39 58 56 95 17 37 34 69 38 72 12 8 26 41 55
123 36 106 25 110 -14 5 -17 -46 -36 -91 -41 -100 -5 -10 -27 -51 -49 -93 -59
-112 -80 -138 -98 -124 -41 34 -34 79 31 208 14 26 41 104 60 172 20 68 43
139 52 157 21 39 49 42 58 7z m4501 -25 c8 -13 -32 -135 -49 -153 -7 -7 -15
-28 -18 -47 -10 -61 -39 -150 -47 -145 -5 2 -23 -45 -42 -105 -29 -98 -35
-110 -55 -110 -31 0 -37 14 -21 47 8 15 28 66 45 113 17 47 40 108 51 135 11
28 27 75 35 105 36 136 34 132 36 70 l2 -55 9 40 c27 113 37 133 54 105z
m-5000 -345 c32 -61 45 -97 43 -118 -5 -51 -25 -42 -43 20 -9 31 -27 78 -40
103 -38 76 -85 225 -85 271 0 40 4 33 39 -72 22 -64 60 -156 86 -204z m5071
302 c9 -23 -183 -537 -204 -544 -32 -13 -31 16 4 97 20 47 53 132 73 190 52
148 103 270 113 270 5 0 11 -6 14 -13z m68 -54 c-8 -35 -148 -410 -180 -480
-12 -29 -28 -53 -33 -53 -17 0 -14 14 38 138 26 64 74 186 106 270 32 83 62
152 67 152 4 0 5 -12 2 -27z m-5234 -153 c21 -63 50 -146 64 -184 22 -59 37
-160 20 -144 -24 25 -135 407 -133 458 1 21 2 21 6 5 3 -11 22 -72 43 -135z
m880 115 c0 -2 -21 -55 -46 -117 -53 -128 -84 -231 -83 -268 l1 -25 9 25 c9
26 3 -104 -7 -166 -5 -26 -9 -30 -30 -26 -34 6 -37 15 -20 74 8 29 17 101 20
160 7 109 23 165 64 225 11 16 31 49 46 76 15 26 31 47 36 47 6 0 10 -2 10 -5z
m50 -27 c0 -25 -28 -106 -55 -157 -14 -29 -37 -105 -51 -169 -36 -173 -42
-184 -43 -73 -1 80 4 107 30 185 47 138 119 268 119 214z m3753 -43 c-15 -30
-29 -53 -31 -51 -4 5 46 106 53 106 3 0 -7 -25 -22 -55z m-3720 -44 c-9 -25
-24 -82 -35 -126 -31 -128 -96 -360 -104 -373 -1 -2 -12 2 -24 8 -18 9 -20 17
-14 43 3 18 10 37 14 42 8 10 52 164 65 225 4 19 22 67 40 106 18 39 38 88 45
109 8 25 15 33 20 25 5 -7 1 -34 -7 -59z m80 -126 c-1 -107 -7 -153 -32 -261
-17 -72 -31 -139 -31 -148 0 -19 -33 -22 -48 -3 -10 12 8 93 42 185 18 49 36
193 36 299 0 39 3 79 7 89 15 40 27 -35 26 -161z m63 -93 c1 -125 3 -243 4
-262 2 -34 3 -34 11 10 4 25 8 142 8 260 1 189 3 212 15 194 12 -17 14 -62 12
-240 -4 -253 -18 -347 -51 -342 -19 3 -20 12 -25 153 -5 160 -13 148 -26 -42
-3 -51 -9 -93 -13 -93 -4 0 -15 6 -24 13 -16 11 -16 18 5 119 12 59 25 105 29
103 12 -8 19 66 19 200 0 143 6 183 24 165 7 -7 11 -86 12 -238z m-115 83 c-6
-22 -13 -60 -16 -85 -4 -25 -16 -76 -28 -115 -11 -38 -26 -97 -32 -130 -10
-54 -14 -60 -35 -57 -13 1 -26 5 -29 8 -4 4 44 166 70 231 4 12 13 62 19 110
15 110 21 128 30 88 6 -24 8 -20 9 26 0 31 4 59 9 63 12 12 14 -95 3 -139z
m239 76 c0 -50 -55 -356 -59 -326 -4 31 19 345 26 357 9 16 33 -6 33 -31z m67
-48 c-3 -38 -18 -120 -33 -183 -16 -71 -28 -158 -31 -228 -5 -110 -6 -113 -27
-108 -11 3 -29 6 -38 6 -15 0 -18 9 -18 50 0 39 3 48 14 44 11 -4 16 5 21 33
3 21 7 47 9 58 7 40 76 370 81 383 2 6 10 12 16 12 9 0 10 -19 6 -67z m3170
-71 c58 -161 103 -295 103 -309 0 -7 -6 -13 -14 -13 -16 0 -34 42 -65 150 -12
41 -35 116 -51 165 -15 50 -31 104 -35 120 l-6 30 16 -23 c9 -12 32 -66 52
-120z m102 -60 c61 -155 83 -232 63 -232 -5 0 -13 8 -17 18 -13 31 -135 394
-135 400 0 21 36 -53 89 -186z m-3200 66 c-11 -57 -28 -139 -38 -183 -28 -114
-41 -192 -41 -242 0 -39 -2 -43 -25 -43 -38 0 -38 0 38 365 14 66 28 137 32
157 5 34 30 62 46 52 4 -2 -2 -50 -12 -106z m2987 75 c13 -60 36 -139 44 -148
4 -5 26 -70 49 -144 37 -119 40 -137 27 -150 -13 -13 -16 -11 -26 15 -7 16
-25 81 -42 144 -16 63 -38 140 -48 170 -23 72 -33 140 -20 140 5 0 12 -12 16
-27z m-2913 -35 c-5 -39 -51 -271 -73 -373 -5 -22 -9 -66 -10 -98 0 -55 -1
-58 -22 -55 -33 4 -33 29 2 195 17 81 40 190 50 241 25 120 29 132 45 132 10
0 12 -11 8 -42z m62 -65 c-4 -64 -15 -128 -27 -162 -15 -42 -22 -91 -25 -193
-3 -76 -9 -138 -14 -138 -5 0 -9 5 -9 11 0 5 -4 8 -9 5 -5 -4 -17 -3 -26 0
-14 6 -16 17 -10 83 4 42 13 94 20 116 7 22 28 118 46 212 24 123 38 173 48
173 11 0 12 -19 6 -107z m2880 -264 c29 -88 31 -109 10 -109 -21 0 -29 21 -69
179 -20 79 -43 164 -51 188 -8 24 -15 60 -15 81 1 28 13 0 50 -113 27 -82 61
-184 75 -226z m-2805 309 c0 -29 -9 -102 -21 -163 -11 -60 -25 -172 -31 -247
-10 -122 -14 -138 -30 -138 -16 0 -18 10 -18 99 0 89 6 133 40 276 5 22 16 82
26 133 9 50 20 92 25 92 5 0 9 -24 9 -52z m2620 -3 c9 -11 67 -213 101 -348
16 -66 19 -91 10 -100 -21 -21 -33 9 -72 194 -21 101 -43 197 -49 213 -5 16
-9 43 -9 60 1 21 3 25 6 11 3 -11 9 -24 13 -30z m-2555 -62 c-3 -54 -12 -145
-20 -203 -7 -58 -17 -149 -20 -203 -6 -83 -10 -98 -24 -95 -13 3 -17 20 -19
93 -4 92 14 282 28 300 4 6 13 44 20 85 25 149 45 162 35 23z m2354 -128 c44
-162 71 -285 71 -316 0 -12 -7 -19 -19 -19 -16 0 -22 17 -40 118 -12 64 -33
161 -47 214 -13 54 -27 126 -30 160 l-5 63 15 -35 c8 -19 33 -103 55 -185z
m156 70 c61 -235 85 -329 85 -342 0 -7 -9 -13 -20 -13 -11 0 -20 2 -20 5 0 3
-18 85 -41 183 -48 212 -60 278 -52 298 3 8 7 14 8 12 2 -2 20 -66 40 -143z
m-3439 113 c-3 -13 -9 -59 -13 -103 -5 -57 -9 -73 -14 -55 -6 20 -7 17 -7 -15
1 -40 -10 -105 -17 -105 -16 0 -55 26 -55 36 0 14 38 125 72 206 22 56 46 81
34 36z m3324 -20 c13 -50 71 -262 100 -363 25 -88 25 -102 -1 -110 -11 -4 -22
-5 -24 -3 -1 1 -15 68 -29 148 -15 80 -35 172 -45 205 -25 80 -36 165 -22 165
5 0 15 -19 21 -42z m-2310 -85 c-5 -56 -16 -139 -25 -184 -8 -45 -15 -128 -15
-186 0 -92 -2 -104 -16 -99 -9 3 -23 6 -31 6 -14 0 -15 14 -10 108 3 59 15
150 26 202 12 52 28 126 36 164 12 59 32 103 41 94 1 -2 -1 -49 -6 -105z m80
77 c0 -17 -9 -119 -20 -228 -11 -108 -21 -226 -22 -262 -2 -52 -6 -65 -20 -68
-46 -9 -29 239 38 561 8 36 24 35 24 -3z m-123 -22 c-3 -7 -5 -2 -5 12 0 14 2
19 5 13 2 -7 2 -19 0 -25z m189 -65 c-3 -54 -10 -183 -15 -286 -5 -104 -11
-191 -14 -194 -3 -2 -15 -2 -26 2 -18 5 -21 14 -21 58 1 91 45 490 56 509 3 4
10 8 16 8 8 0 9 -30 4 -97z m2029 -35 c47 -161 88 -369 76 -381 -25 -25 -37 7
-78 214 -23 118 -44 234 -48 259 -10 77 14 32 50 -92z m-1951 104 c3 -9 1 -73
-4 -142 -5 -69 -10 -170 -10 -226 0 -145 -8 -194 -31 -194 -17 0 -19 9 -19
113 0 97 22 377 36 445 5 26 20 29 28 4z m80 -52 c-1 -30 -5 -160 -9 -287 l-8
-233 -24 0 c-22 0 -23 3 -23 86 0 47 4 138 10 202 5 64 12 157 16 205 5 75 8
88 22 85 14 -3 17 -15 16 -58z m72 -222 c-4 -150 -6 -280 -6 -289 0 -12 -7
-15 -25 -11 -31 5 -31 10 -10 332 8 124 15 228 15 233 0 4 7 7 16 7 14 0 15
-28 10 -272z m83 -19 c-1 -154 -5 -281 -9 -284 -5 -3 -16 -2 -26 2 -16 6 -17
25 -10 267 7 280 10 308 32 299 12 -4 14 -51 13 -284z m1461 165 c42 -177 81
-386 76 -400 -3 -8 -14 -14 -24 -14 -16 0 -23 30 -60 253 -23 138 -42 261 -42
272 0 43 30 -23 50 -111z m-190 94 c9 -21 90 -485 90 -516 0 -8 -9 -12 -22
-10 -20 3 -25 12 -36 78 -12 71 -62 444 -62 462 0 17 21 7 30 -14z m84 0 c29
-103 99 -495 91 -508 -4 -6 -14 -10 -24 -10 -15 0 -20 15 -30 88 -7 48 -24
157 -37 242 -13 85 -24 167 -24 183 0 33 15 36 24 5z m181 -43 c8 -30 24 -96
35 -147 10 -51 25 -122 33 -158 29 -128 30 -137 7 -143 -11 -3 -22 -1 -25 3
-3 5 -17 71 -30 147 -13 76 -33 182 -45 237 -24 117 -24 127 -5 120 8 -3 21
-30 30 -59z m118 -137 c57 -248 63 -283 47 -293 -21 -13 -30 9 -55 136 -13 68
-31 156 -39 194 -26 121 -29 165 -13 165 10 0 27 -58 60 -202z m-2177 146 c-4
-20 -10 -34 -13 -30 -3 3 -2 21 1 42 4 20 10 34 13 30 3 -3 2 -21 -1 -42z
m604 -239 c0 -169 -4 -285 -9 -285 -5 0 -17 7 -26 16 -14 15 -16 39 -10 203 9
288 14 351 31 351 12 0 14 -46 14 -285z m82 -61 c-5 -225 -5 -231 -25 -226
-19 5 -19 12 -15 279 3 226 6 276 18 283 22 14 27 -64 22 -336z m1027 296 c11
-32 81 -452 81 -485 0 -9 -10 -15 -24 -15 -23 0 -24 4 -45 173 -12 94 -26 202
-31 239 -19 129 -9 172 19 88z m-954 23 c4 -10 9 -138 12 -285 5 -245 4 -268
-11 -274 -9 -4 -20 -3 -24 1 -8 7 -12 428 -5 518 5 57 15 72 28 40z m79 -6
c10 -41 15 -128 21 -340 5 -184 4 -208 -10 -213 -9 -4 -18 -4 -21 -1 -19 19
-24 108 -18 330 6 228 13 283 28 224z m90 -61 c10 -96 24 -468 19 -487 -7 -27
-35 -20 -44 11 -4 14 -7 147 -8 295 0 234 1 268 14 251 7 -10 16 -41 19 -70z
m163 20 c12 -50 37 -502 28 -516 -3 -5 -14 -6 -25 -3 -27 7 -29 28 -32 321 -3
255 3 300 29 198z m285 18 c5 -16 19 -117 33 -224 26 -201 33 -252 42 -282 3
-13 -1 -18 -16 -18 -12 0 -21 6 -21 13 0 8 -3 8 -9 -2 -10 -16 -12 -7 -31 129
-9 67 -29 339 -30 398 0 32 22 23 32 -14z m97 -42 c5 -37 15 -114 21 -172 11
-104 26 -220 36 -272 5 -25 2 -28 -19 -28 -20 0 -27 6 -31 28 -20 100 -52 483
-42 508 11 28 24 4 35 -64z m80 33 c6 -24 18 -109 26 -187 8 -78 20 -169 25
-202 16 -99 14 -118 -12 -114 -28 4 -31 19 -52 273 -18 207 -20 275 -7 275 5
0 14 -20 20 -45z m79 13 c6 -18 17 -71 23 -118 6 -47 19 -147 30 -223 24 -174
24 -167 -6 -167 -14 0 -25 5 -25 12 0 6 -7 70 -15 142 -38 344 -41 386 -27
386 4 0 13 -14 20 -32z m-624 -5 c3 -16 11 -140 17 -277 10 -210 10 -249 -2
-257 -24 -15 -34 -4 -41 47 -8 65 -10 499 -1 507 12 13 21 7 27 -20z m162 -19
c14 -33 33 -292 34 -461 0 -49 -2 -53 -24 -53 -23 0 -24 4 -30 83 -11 163 -14
467 -4 467 5 0 16 -16 24 -36z m122 -16 c6 -29 14 -80 17 -113 4 -33 11 -67
15 -75 7 -13 14 -64 34 -262 4 -34 2 -38 -18 -38 -20 0 -24 7 -34 78 -29 204
-54 431 -49 446 12 29 24 17 35 -36z m2176 -9 c-15 -52 -34 -86 -34 -62 0 16
42 124 46 120 2 -2 -3 -28 -12 -58z m-2211 -189 c9 -69 19 -164 23 -212 l6
-88 -24 0 c-23 0 -26 4 -32 63 -4 34 -9 141 -11 237 -5 153 -3 172 9 150 7
-14 21 -81 29 -150z m1889 149 c137 -53 198 -122 198 -222 0 -54 -38 -186 -72
-251 l-15 -29 -72 120 c-83 138 -118 229 -127 331 -7 69 -6 72 14 72 12 0 45
-9 74 -21z m-4352 -55 c22 -15 40 -28 40 -29 0 -13 -39 -107 -77 -182 -43 -88
-113 -183 -134 -183 -16 0 -10 29 37 163 25 73 55 160 67 195 12 34 23 62 24
62 2 0 21 -12 43 -26z m253 -136 c26 -18 28 -24 22 -61 -4 -22 -47 -162 -96
-311 -82 -249 -132 -376 -149 -376 -16 0 53 374 117 633 40 163 39 162 106
115z m834 -120 c-2 -13 -4 -3 -4 22 0 25 2 35 4 23 2 -13 2 -33 0 -45z m-597
13 c21 -16 25 -26 23 -68 -1 -27 -14 -98 -28 -158 -14 -61 -37 -173 -51 -250
-13 -77 -38 -207 -54 -290 -55 -280 -70 -363 -70 -384 0 -12 -3 -21 -8 -21 -4
0 -6 19 -5 43 28 520 44 712 79 922 13 82 24 166 24 185 0 20 3 40 7 44 11 10
54 -2 83 -23z m355 -122 c32 -6 78 -20 102 -31 l43 -20 0 -89 c0 -49 -9 -196
-19 -327 -19 -224 -33 -466 -47 -792 -4 -80 -9 -183 -13 -230 l-7 -85 -7 75
c-5 41 -14 136 -22 210 -38 359 -105 1175 -105 1273 0 31 -2 30 75 16z m2793
-214 c52 -179 59 -238 42 -311 -20 -82 -11 -92 -120 151 -40 88 -83 179 -96
202 -47 81 -25 114 76 110 l55 -2 43 -150z m-484 83 c14 -71 57 -599 55 -677
l-1 -46 -14 60 c-20 84 -110 402 -145 513 -16 51 -29 108 -29 126 0 38 8 42
87 45 37 1 43 -2 47 -21z m-1681 4 c3 -4 1 -113 -4 -242 -5 -129 -13 -368 -19
-530 -8 -260 -20 -401 -38 -450 -3 -8 -11 62 -19 155 -10 122 -13 293 -10 609
4 412 5 440 22 453 20 14 61 18 68 5z m526 -412 c6 -47 11 -105 10 -130 -1
-29 -8 -1 -20 80 -10 69 -21 134 -23 144 -4 16 -3 17 8 5 7 -8 18 -52 25 -99z
m2219 -115 c65 -30 171 -129 200 -188 12 -23 23 -58 24 -77 3 -33 1 -35 -29
-38 -31 -3 -34 0 -57 50 -70 157 -219 223 -361 159 -92 -41 -143 -107 -169
-220 -14 -59 -13 -61 14 -118 32 -68 85 -125 142 -154 35 -18 51 -20 101 -14
128 14 209 66 262 166 20 38 47 77 61 86 94 61 17 -174 -86 -260 -72 -61 -106
-72 -220 -72 -120 0 -163 15 -244 86 -67 59 -94 112 -106 203 -11 88 0 160 33
216 27 47 115 138 152 157 92 49 201 56 283 18z m-9 -188 c18 -11 46 -41 62
-66 40 -62 39 -111 -3 -173 -46 -67 -95 -92 -184 -92 -62 -1 -75 2 -107 27
-81 62 -101 176 -43 251 60 80 189 104 275 53z"/>
<path d="M4735 7980 c-335 -53 -618 -313 -711 -655 -25 -94 -31 -324 -9 -421
46 -211 209 -443 397 -565 176 -113 453 -160 650 -110 161 41 327 148 439 281
126 150 194 307 218 500 12 91 1 244 -24 343 -39 151 -152 324 -282 432 -79
65 -235 145 -343 175 -87 24 -247 33 -335 20z m263 -215 c45 -9 115 -34 169
-60 290 -142 426 -481 327 -816 -51 -170 -203 -352 -368 -441 -58 -31 -67 -32
-195 -36 l-134 -4 8 28 c5 16 9 45 9 64 1 33 -1 35 -29 32 -16 -2 -82 -4 -145
-5 -151 -2 -165 5 -269 129 -91 109 -119 156 -149 254 -30 100 -35 182 -18
297 20 131 44 199 100 277 160 224 430 333 694 281z"/>
<path d="M4736 7494 c-63 -20 -144 -71 -179 -114 -75 -88 -109 -215 -88 -327
25 -142 100 -238 236 -305 79 -39 81 -40 170 -34 50 3 107 11 127 18 92 32
200 144 239 248 30 79 24 222 -12 300 -38 81 -108 154 -186 192 -59 29 -77 33
-162 35 -66 2 -111 -2 -145 -13z"/>
<path d="M2792 2660 c0 -14 2 -19 5 -12 2 6 2 18 0 25 -3 6 -5 1 -5 -13z"/>
<path d="M2756 2553 c-6 -14 -5 -15 5 -6 7 7 10 15 7 18 -3 3 -9 -2 -12 -12z"/>
<path d="M2840 2423 c-12 -39 -20 -77 -17 -85 2 -7 14 20 27 59 12 40 20 78
17 85 -2 7 -14 -19 -27 -59z"/>
<path d="M2807 2268 c-29 -112 -49 -200 -45 -204 7 -6 36 103 63 229 10 48 -3
29 -18 -25z"/>
<path d="M6730 705 c-32 -17 -49 -53 -50 -102 0 -53 25 -73 93 -73 109 0 164
80 108 159 -21 29 -27 31 -76 30 -29 -1 -63 -7 -75 -14z"/>
<path d="M4860 10156 c0 -2 8 -10 18 -17 15 -13 16 -12 3 4 -13 16 -21 21 -21
13z"/>
<path d="M4964 10065 c14 -14 28 -25 32 -25 4 0 -3 11 -16 25 -13 14 -27 25
-32 25 -5 0 2 -11 16 -25z"/>
<path d="M4925 10050 c3 -5 11 -10 16 -10 6 0 7 5 4 10 -3 6 -11 10 -16 10 -6
0 -7 -4 -4 -10z"/>
<path d="M4906 10023 c-6 -14 -5 -15 5 -6 7 7 10 15 7 18 -3 3 -9 -2 -12 -12z"/>
<path d="M4951 10021 c-7 -5 -9 -11 -5 -14 5 -3 15 1 22 9 14 16 5 18 -17 5z"/>
<path d="M5035 9994 c9 -9 19 -13 23 -10 3 4 0 11 -8 16 -24 15 -33 11 -15 -6z"/>
<path d="M4955 9970 c3 -5 8 -10 11 -10 2 0 4 5 4 10 0 6 -5 10 -11 10 -5 0
-7 -4 -4 -10z"/>
<path d="M5005 9970 c3 -5 14 -10 23 -10 15 0 15 2 2 10 -20 13 -33 13 -25 0z"/>
<path d="M5088 9957 c12 -13 20 -26 17 -29 -3 -3 3 -8 14 -11 19 -5 18 -2 -5
29 -15 19 -31 34 -37 34 -6 0 -1 -10 11 -23z"/>
<path d="M4980 9950 c0 -5 5 -10 10 -10 6 0 10 5 10 10 0 6 -4 10 -10 10 -5 0
-10 -4 -10 -10z"/>
<path d="M5039 9943 c-13 -15 -12 -15 9 -4 23 12 28 21 13 21 -5 0 -15 -7 -22
-17z"/>
<path d="M5055 9910 c3 -5 8 -10 11 -10 2 0 4 5 4 10 0 6 -5 10 -11 10 -5 0
-7 -4 -4 -10z"/>
<path d="M5050 9875 c13 -14 26 -23 28 -20 7 7 -29 45 -41 45 -6 0 0 -11 13
-25z"/>
<path d="M5082 9888 c5 -15 28 -23 28 -10 0 5 -7 13 -16 16 -10 4 -14 1 -12
-6z"/>
<path d="M5160 9885 c6 -8 9 -19 5 -24 -4 -7 1 -8 11 -4 13 5 15 3 9 -7 -5 -8
-4 -11 3 -6 6 3 12 -2 14 -11 2 -12 6 -14 11 -7 4 7 -6 25 -22 43 -29 31 -54
44 -31 16z"/>
<path d="M5118 9861 c-8 -12 -17 -19 -19 -17 -2 2 -13 -8 -24 -22 -19 -27 -19
-27 0 -13 33 24 67 62 62 67 -3 3 -11 -4 -19 -15z"/>
<path d="M5045 9840 c3 -5 8 -10 11 -10 2 0 4 5 4 10 0 6 -5 10 -11 10 -5 0
-7 -4 -4 -10z"/>
<path d="M5160 9816 c0 -16 18 -31 27 -22 3 3 -2 12 -11 21 -14 14 -16 14 -16
1z"/>
<path d="M5120 9814 c0 -6 5 -15 11 -21 8 -8 7 -17 -1 -34 l-12 -24 21 23 22
22 -21 22 c-11 12 -20 17 -20 12z"/>
<path d="M5201 9786 c-7 -8 -8 -17 -3 -20 6 -3 13 1 16 10 9 23 2 28 -13 10z"/>
<path d="M5156 9745 c-9 -14 -13 -25 -9 -25 10 0 36 40 30 46 -2 3 -12 -7 -21
-21z"/>
<path d="M5190 9742 c0 -14 39 -56 46 -49 3 3 -6 18 -20 32 -14 14 -26 22 -26
17z"/>
<path d="M5270 9740 c0 -5 5 -10 10 -10 6 0 10 5 10 10 0 6 -4 10 -10 10 -5 0
-10 -4 -10 -10z"/>
<path d="M5292 9673 c-32 -48 -33 -52 -13 -46 11 3 22 16 25 29 4 13 11 24 16
24 6 0 10 5 10 10 0 19 -19 10 -38 -17z"/>
<path d="M5286 9597 c3 -10 9 -15 12 -12 3 3 0 11 -7 18 -10 9 -11 8 -5 -6z"/>
<path d="M5361 9409 c8 -16 8 -23 -1 -29 -7 -4 -8 -10 -3 -13 5 -3 15 -2 22 2
11 7 10 14 -4 35 -21 31 -30 35 -14 5z"/>
<path d="M5327 9359 c7 -7 15 -10 18 -7 3 3 -2 9 -12 12 -14 6 -15 5 -6 -5z"/>
</g>
</svg>
